<?xml version="1.0" encoding="utf-8"?>
<!-- Generator: Adobe Illustrator 16.0.0, SVG Export Plug-In . SVG Version: 6.00 Build 0)  -->
<!DOCTYPE svg PUBLIC "-//W3C//DTD SVG 1.1//EN" "http://www.w3.org/Graphics/SVG/1.1/DTD/svg11.dtd">
<svg version="1.1" id="圖層_1" xmlns="http://www.w3.org/2000/svg" xmlns:xlink="http://www.w3.org/1999/xlink" x="0px" y="0px"
	 width="50px" height="50px" viewBox="0 0 50 50" enable-background="new 0 0 50 50" xml:space="preserve">
<g>
	<path fill="#FFFFFF" d="M9.026,48.451c-2.065,2.065-5.412,2.065-7.477,0l0,0c-2.065-2.064-2.065-5.412,0-7.476L40.975,1.549
		c2.063-2.065,5.41-2.065,7.477,0l0,0c2.064,2.065,2.064,5.412,0,7.477L9.026,48.451z"/>
	<path fill="#FFFFFF" d="M48.452,40.975c2.064,2.065,2.064,5.411,0,7.476l0,0c-2.066,2.065-5.414,2.065-7.477,0L1.549,9.026
		c-2.065-2.064-2.065-5.412,0-7.477l0,0c2.065-2.065,5.412-2.065,7.477,0L48.452,40.975z"/>
</g>
</svg>
