<?xml version="1.0" encoding="UTF-8"?>
<svg width="46px" height="42px" viewBox="0 0 46 42" version="1.1" xmlns="http://www.w3.org/2000/svg" xmlns:xlink="http://www.w3.org/1999/xlink">
    <!-- Generator: Sketch 50.2 (55047) - http://www.bohemiancoding.com/sketch -->
    <title>icon_invited</title>
    <desc>Created with Sketch.</desc>
    <defs></defs>
    <g id="Page-3" stroke="none" stroke-width="1" fill="none" fill-rule="evenodd" fill-opacity="0.849999964">
        <path d="M38.5768795,39.4492994 C38.3959593,39.4492994 38.2492129,39.3032231 38.2488779,39.1223029 C38.2488779,38.9417177 38.3952892,38.7946363 38.5758744,38.7946363 C40.2855704,38.792291 42.5500884,36.5204022 42.5477431,34.8097011 C42.5474081,34.6291159 42.6941545,34.4823695 42.8740696,34.4820345 C43.0553248,34.4820345 43.2017362,34.6281108 43.2017362,34.809031 C43.2047515,36.8876032 40.6547816,39.4462841 38.5768795,39.4492994 M37.3968777,35.677448 C36.2647862,35.6787882 35.3424282,34.7587754 35.340753,33.6263489 C35.3390778,32.4939224 36.2587555,31.5712293 37.390847,31.5695541 C38.5226034,31.568214 39.4449615,32.4878917 39.4463016,33.6206533 C39.4479768,34.7530798 38.5282991,35.6757729 37.3968777,35.677448 M32.5374948,32.7559217 C32.5378299,32.9365068 32.3910835,33.0832532 32.2108333,33.0835883 C32.0295781,33.0835883 31.8831667,32.9371769 31.8831667,32.7565917 C31.8801514,30.6776845 34.4301213,28.1193387 36.5080234,28.1163234 C36.6889436,28.1159883 36.83569,28.2623997 36.836025,28.4429849 C36.836025,28.62357 36.6899487,28.7706515 36.5093635,28.7709865 C34.7993325,28.7733318 32.5348145,31.0452206 32.5374948,32.7559217 M40.2878725,0.70647165 L11.8477001,4.52616152 C10.3585536,4.72616304 9.24703301,5.99694772 9.24703301,7.49946494 L9.24703301,27.7574983 C8.52067186,27.4995195 7.75075585,27.3326708 6.93560979,27.3326708 C3.10512688,27.3326708 0,30.4391379 0,34.2709609 C0,38.102784 3.10512688,41.209251 6.93560979,41.209251 C10.7657577,41.209251 13.8708845,38.102784 13.8708845,34.2709609 L13.8708845,10.8187934 C13.8708845,9.80819748 14.6247821,8.95639368 15.6278913,8.83360971 L36.8206957,6.23953876 C37.9170824,6.10533732 38.9146711,6.88534257 39.0488726,7.98172925 C39.058741,8.06235098 39.0636889,8.143499 39.0636889,8.22472245 L39.0636889,25.6434121 C38.5205932,25.5298344 37.9584004,25.4695277 37.382136,25.4705328 C32.888279,25.4768985 29.2377112,29.1391926 29.244412,33.6350599 C29.2504426,38.1305921 32.9113966,41.7828351 37.4052536,41.7764694 C41.8991106,41.7704387 45.5496785,38.1074745 45.5433127,33.6119423 C45.5406324,31.6533135 44.8437546,29.8555027 43.6872054,28.4500207 L43.6872054,3.67977507 C43.6872054,2.02292082 42.3440596,0.679775069 40.6872054,0.679775069 C40.5536486,0.679775069 40.4202408,0.688693771 40.2878725,0.70647165 Z" id="icon_invited" fill="#FFFFFF"></path>
    </g>
</svg>