<?xml version="1.0" encoding="UTF-8"?>
<svg width="38px" height="45px" viewBox="0 0 38 45" version="1.1" xmlns="http://www.w3.org/2000/svg" xmlns:xlink="http://www.w3.org/1999/xlink">
    <!-- Generator: Sketch 50.2 (55047) - http://www.bohemiancoding.com/sketch -->
    <title>icon_mission2_lock</title>
    <desc>Created with Sketch.</desc>
    <defs></defs>
    <g id="Page-3" stroke="none" stroke-width="1" fill="none" fill-rule="evenodd" fill-opacity="0.849999964">
        <path d="M27.2224519,7.85739671 C28.1066076,7.85739671 28.8252128,7.13870947 28.8252128,6.254219 L28.8252128,1.76761476 C28.8252128,0.88312429 28.1066076,0.164437045 27.2224519,0.164437045 C26.3382963,0.164437045 25.6196911,0.88312429 25.6196911,1.76761476 L25.6196911,6.254219 C25.6196911,7.13870947 26.3382963,7.85739671 27.2224519,7.85739671 Z M35.8444943,41.1265109 L35.7890059,41.1265109 C35.7890059,42.0106914 35.0707056,42.7293787 34.1862451,42.7293787 L3.89933959,42.7293787 C3.0151839,42.7293787 2.29688363,42.0106914 2.29688363,41.1265109 L2.29688363,22.3070702 L35.8444943,22.3070702 L35.8444943,41.1265109 Z M10.353981,18.1976295 C10.353981,18.1557913 10.3579444,18.0519706 10.3661762,17.8846178 C10.6231911,17.8846178 10.8533765,17.8703619 11.0564274,17.8409202 C11.2594784,17.8117884 11.4296021,17.7513554 11.5661889,17.6593114 C11.7030806,17.5675773 11.8067402,17.4380338 11.8771678,17.270991 C11.9475954,17.104258 11.9829616,16.8786416 11.9829616,16.5947617 L11.9829616,11.159825 C12.1985127,11.1433997 12.3994294,11.1288338 12.5860168,11.1164373 C12.7722992,11.1037309 12.8945566,11.0975326 12.9527889,11.0975326 C13.1268761,11.0975326 13.3052317,11.1099291 13.4875507,11.1347221 C13.6698697,11.159825 13.8357251,11.2081714 13.9851169,11.2788315 C14.1342039,11.3501114 14.2564612,11.4480437 14.3518891,11.5732484 C14.447012,11.698763 14.4945735,11.8658059 14.4945735,12.0740671 L14.4945735,16.1314424 C14.4945735,16.6493063 14.4531097,17.129051 14.3704868,17.5716061 C14.2875591,18.0141613 14.1549358,18.3962835 13.9726168,18.7173529 C13.7899929,19.0390422 13.5518806,19.2916209 13.2573653,19.4750891 C12.9631549,19.6585574 12.6088829,19.7506014 12.1942443,19.7506014 C11.5558229,19.7506014 11.0893546,19.6232273 10.7954491,19.3687891 C10.5009338,19.114041 10.353981,18.7573316 10.353981,18.2977313 L10.353981,18.1976295 Z M15.8128801,11.159825 C16.0272117,11.1182967 16.218982,11.0931938 16.3878862,11.0848262 C16.5570953,11.0767685 16.6830113,11.0724297 16.7653292,11.0724297 C16.93027,11.0724297 17.1037474,11.0869956 17.2851518,11.1164373 C17.4665562,11.1452591 17.6314969,11.2038326 17.7799741,11.2915379 C17.9284513,11.3789332 18.0522331,11.5063073 18.1513195,11.6733502 C18.250101,11.8407029 18.2997967,12.0576417 18.2997967,12.3244765 L18.2997967,16.1565454 C18.2997967,16.5321594 18.3330287,16.8411422 18.4001026,17.0834939 C18.45803,17.2585945 18.5540676,17.4129309 18.6879105,17.5465032 C18.8211436,17.6800755 19.0217555,17.7470167 19.2885266,17.7470167 C19.4885287,17.7470167 19.6620062,17.6989802 19.8080443,17.6029073 C19.9540824,17.5071443 20.060486,17.3379321 20.127255,17.0958904 C20.1522553,16.987421 20.1711579,16.8513693 20.183658,16.6886652 C20.1958533,16.5259611 20.2022558,16.3486912 20.2022558,16.1565454 L20.2022558,11.159825 C20.4168922,11.1182967 20.6086625,11.0931938 20.7775668,11.0848262 C20.9467759,11.0767685 21.0726918,11.0724297 21.1550098,11.0724297 C21.3117187,11.0724297 21.480623,11.0869956 21.6623322,11.1164373 C21.8437366,11.1452591 22.0108115,11.2038326 22.163557,11.2915379 C22.3159977,11.3789332 22.4419136,11.5063073 22.541,11.6733502 C22.6397816,11.8407029 22.6891723,12.0576417 22.6891723,12.3244765 L22.6891723,16.0812366 C22.6891723,16.2482795 22.6852089,16.4239999 22.6769771,16.6071582 C22.6684404,16.7909364 22.6559403,16.9790533 22.6394767,17.1708892 C22.6065495,17.5217102 22.5175242,17.8514572 22.3727056,18.1601301 C22.227887,18.4691129 22.0190433,18.7402864 21.7461746,18.9739605 C21.4730009,19.2079445 21.1315339,19.3917227 20.7220784,19.5249851 C20.3123179,19.6585574 19.8263372,19.7254985 19.2635264,19.7254985 C18.7089473,19.7254985 18.2311984,19.6709539 17.8296697,19.5627944 C17.428446,19.454325 17.0912473,19.2894515 16.8180737,19.0681739 C16.5449001,18.8468964 16.3320929,18.575413 16.1787377,18.2540336 C16.0256873,17.9329642 15.9205032,17.5592096 15.8625758,17.1333898 C15.8458073,16.9747145 15.8333072,16.7952752 15.8253803,16.5947617 C15.8168436,16.3945582 15.8128801,16.2234865 15.8128801,16.0812366 L15.8128801,11.159825 Z M23.9949788,11.159825 C24.2105299,11.1182967 24.405349,11.0931938 24.5794362,11.0848262 C24.7535234,11.0767685 24.8818784,11.0724297 24.9648061,11.0724297 C25.1306615,11.0724297 25.3047488,11.0869956 25.4870678,11.1164373 C25.6693868,11.1452591 25.8352422,11.2038326 25.984634,11.2915379 C26.1337209,11.3789332 26.2581125,11.5063073 26.3578087,11.6733502 C26.4572,11.8407029 26.5068956,12.0576417 26.5068956,12.3244765 L26.5068956,17.5341067 L28.3224636,17.5341067 C28.6041739,17.5341067 28.8340543,17.5697467 29.0124099,17.6404067 C29.1907654,17.7113767 29.3273522,17.8055901 29.4227801,17.9224272 C29.5182079,18.0392642 29.582233,18.1684978 29.6157699,18.3104377 C29.6486971,18.4526876 29.6654656,18.5902888 29.6654656,18.7238611 C29.6654656,18.8406981 29.6611972,18.9637334 29.6529654,19.0932769 C29.6444288,19.2228203 29.636197,19.3706486 29.6279652,19.5373816 L23.9949788,19.5373816 L23.9949788,11.159825 Z M34.1862451,4.25497303 L30.483462,4.25497303 L30.483462,6.254219 C30.483462,8.02319994 29.0462517,9.51573886 27.2224519,9.51573886 C25.3986522,9.51573886 23.9617468,8.07836437 23.9617468,6.254219 L23.9617468,4.25497303 L14.1793263,4.25497303 L14.1793263,6.254219 C14.1793263,8.02319994 12.7424209,9.51573886 10.9183162,9.51573886 C9.09482133,9.51573886 7.65761102,8.07836437 7.65761102,6.254219 L7.65761102,4.25497303 L3.89933959,4.25497303 C1.79931739,4.25497303 0.0858846494,5.96878953 0.0858846494,8.06937691 L0.0858846494,41.1265109 C0.0858846494,43.2267883 1.79931739,44.9406048 3.89933959,44.9406048 L34.1862451,44.9406048 C36.2862673,44.9406048 37.9997,43.2267883 37.9997,41.1265109 L37.9997,8.06937691 C37.9997,5.96878953 36.2862673,4.25497303 34.1862451,4.25497303 Z M22.8400886,39.814341 L26.0081098,39.814341 C26.2382952,34.6335326 26.5568961,32.1412158 29.6011356,28.4916854 L29.6011356,26.5692977 L20.5745158,26.5692977 L20.5745158,29.2038645 L26.2382952,29.2038645 C23.7605251,32.6575301 23.0876521,35.4526316 22.8400886,39.814341 Z M12.5384553,28.79447 C13.5829785,28.79447 14.2555466,29.4533441 14.2555466,30.6638626 C14.2555466,32.5865601 12.0430232,34.9899321 8.75122014,37.9985633 L8.75122014,39.814341 L17.8836337,39.814341 L17.8836337,37.1441344 L15.458913,37.1441344 C14.8747605,37.1441344 13.9723119,37.2330793 13.3174269,37.3220242 C15.3351312,35.2747417 17.282103,32.76445 17.282103,30.4859728 C17.282103,27.957706 15.5119623,26.3198181 12.9634598,26.3198181 C11.0872204,26.3198181 9.88385406,26.9963572 8.59176723,28.3674104 L10.3085537,30.0762683 C10.9280724,29.3997292 11.6360067,28.79447 12.5384553,28.79447 Z M10.9183162,7.85739671 C11.8027768,7.85739671 12.5213819,7.13870947 12.5213819,6.254219 L12.5213819,1.76761476 C12.5213819,0.88312429 11.8027768,0.164437045 10.9183162,0.164437045 C10.0341605,0.164437045 9.31586025,0.88312429 9.31586025,1.76761476 L9.31586025,6.254219 C9.31586025,7.13870947 10.0341605,7.85739671 10.9183162,7.85739671 Z" id="icon_mission2_lock" fill="#2B1137"></path>
    </g>
</svg>