<?xml version="1.0" encoding="UTF-8"?>
<svg width="38px" height="45px" viewBox="0 0 38 45" version="1.1" xmlns="http://www.w3.org/2000/svg" xmlns:xlink="http://www.w3.org/1999/xlink">
    <!-- Generator: Sketch 50.2 (55047) - http://www.bohemiancoding.com/sketch -->
    <title>icon_mission1_lock</title>
    <desc>Created with Sketch.</desc>
    <defs></defs>
    <g id="Page-3" stroke="none" stroke-width="1" fill="none" fill-rule="evenodd" fill-opacity="0.849999964">
        <path d="M24.2913234,37.3357869 C23.2647882,37.3357869 22.3443516,36.8194725 21.5480017,36.0539885 L20.0967669,38.0479659 C21.0522648,39.1695395 22.5214876,39.8993836 24.6099243,39.8993836 C27.2294642,39.8993836 29.4770489,38.5106654 29.4770489,36.0363235 C29.4770489,34.3271556 28.3974644,33.258887 26.9282415,32.8138526 L26.9282415,32.7249077 C28.344415,32.1549785 29.0523493,31.1226597 29.0523493,29.8052214 C29.0523493,27.4374894 27.2645256,26.155691 24.538887,26.155691 C22.9815535,26.155691 21.6717835,26.7609502 20.450734,27.7935789 L22.0434338,29.7339415 C22.8400886,29.0394274 23.5123518,28.6300329 24.3974221,28.6300329 C25.370908,28.6300329 25.9020112,29.1289921 25.9020112,30.0367261 C25.9020112,31.0870198 25.193772,31.7812239 22.9461872,31.7812239 L22.9461872,34.0067061 C25.707192,34.0067061 26.3090277,34.6829353 26.3090277,35.8224838 C26.3090277,36.8194725 25.5123729,37.3357869 24.2913234,37.3357869 Z M12.5384553,28.6300329 C13.5826736,28.6300329 14.2555466,29.288907 14.2555466,30.4994255 C14.2555466,32.422433 12.0430232,34.8254951 8.75091526,37.8341263 L8.75091526,39.6502139 L17.8836337,39.6502139 L17.8836337,36.9800072 L15.458913,36.9800072 C14.8747605,36.9800072 13.972007,37.0689521 13.3174269,37.157897 C15.3351312,35.1103047 17.2817981,32.6003228 17.2817981,30.3215357 C17.2817981,27.7935789 15.5119623,26.155691 12.9634598,26.155691 C11.0872204,26.155691 9.88385406,26.8319202 8.59176723,28.2029734 L10.3085537,29.9121412 C10.9277675,29.2352922 11.6360067,28.6300329 12.5384553,28.6300329 Z M35.8444943,40.9620738 L35.7890059,40.9620738 C35.7890059,41.8465643 35.0704007,42.5652515 34.1862451,42.5652515 L3.89933959,42.5652515 C3.0151839,42.5652515 2.29657875,41.8465643 2.29657875,40.9620738 L2.29657875,22.1426331 L35.8444943,22.1426331 L35.8444943,40.9620738 Z M10.353981,18.0335024 C10.353981,17.9916642 10.3579444,17.8875336 10.3661762,17.7204907 C10.6231911,17.7204907 10.8530716,17.7059248 11.0564274,17.6764831 C11.2594784,17.6473513 11.4292972,17.5869184 11.5661889,17.4948744 C11.7030806,17.4034502 11.8067402,17.2739067 11.8771678,17.1068638 C11.9475954,16.9398209 11.9826567,16.7145145 11.9826567,16.4306346 L11.9826567,10.9956979 C12.1982078,10.9789626 12.3994294,10.9643967 12.5857119,10.9520002 C12.7722992,10.9392938 12.8945566,10.9330956 12.9527889,10.9330956 C13.1268761,10.9330956 13.3049268,10.945802 13.4875507,10.9709049 C13.6698697,10.9956979 13.8357251,11.0437343 13.984812,11.1147043 C14.1342039,11.1856743 14.2561564,11.2836067 14.3515842,11.4091213 C14.447012,11.5343259 14.4945735,11.7013688 14.4945735,11.90994 L14.4945735,15.9673153 C14.4945735,16.4848693 14.4531097,16.9649239 14.370182,17.4071691 C14.2872543,17.8500342 14.1546309,18.2318464 13.9723119,18.5532258 C13.7899929,18.8746051 13.5515758,19.1271839 13.2573653,19.3106521 C12.9631549,19.4944302 12.6088829,19.5864743 12.1942443,19.5864743 C11.5558229,19.5864743 11.0893546,19.4587903 10.7951442,19.2043521 C10.5009338,18.9499139 10.353981,18.5925847 10.353981,18.1336042 L10.353981,18.0335024 Z M15.8125753,10.9956979 C16.0272117,10.9541696 16.218982,10.9290667 16.3878862,10.9206991 C16.5570953,10.9123314 16.6830113,10.9083026 16.7653292,10.9083026 C16.93027,10.9083026 17.1037474,10.9225585 17.2851518,10.9520002 C17.4665562,10.981132 17.6314969,11.0393956 17.7799741,11.1274107 C17.9284513,11.2148061 18.0522331,11.3421802 18.1513195,11.509223 C18.250101,11.6762659 18.2997967,11.8932047 18.2997967,12.1603493 L18.2997967,15.9924182 C18.2997967,16.3680323 18.3330287,16.6770151 18.3997977,16.9190568 C18.45803,17.0944673 18.5540676,17.2488038 18.6879105,17.3820662 C18.8211436,17.5159484 19.0214506,17.5828895 19.2885266,17.5828895 C19.4885287,17.5828895 19.6617013,17.5345432 19.8077394,17.4387802 C19.9537776,17.3427073 20.060486,17.173495 20.1269501,16.9314533 C20.1522553,16.8232938 20.170853,16.6872422 20.1833532,16.5245381 C20.1958533,16.3615241 20.2022558,16.184564 20.2022558,15.9924182 L20.2022558,10.9956979 C20.4168922,10.9541696 20.6086625,10.9290667 20.7775668,10.9206991 C20.946471,10.9123314 21.0723869,10.9083026 21.1550098,10.9083026 C21.3117187,10.9083026 21.480623,10.9225585 21.6623322,10.9520002 C21.8437366,10.981132 22.0108115,11.0393956 22.163557,11.1274107 C22.3159977,11.2148061 22.4419136,11.3421802 22.541,11.509223 C22.6397816,11.6762659 22.6891723,11.8932047 22.6891723,12.1603493 L22.6891723,15.9171095 C22.6891723,16.0844623 22.684904,16.2595629 22.6769771,16.4430311 C22.6684404,16.6268093 22.6559403,16.8146163 22.6394767,17.0064522 C22.6065495,17.3572732 22.5175242,17.6873301 22.3727056,17.996003 C22.227887,18.3049858 22.0190433,18.5761593 21.7458697,18.8101433 C21.4726961,19.0438174 21.1315339,19.2272856 20.7217735,19.3608579 C20.3123179,19.4944302 19.8260323,19.5610614 19.2635264,19.5610614 C18.7089473,19.5610614 18.2311984,19.5068267 17.8296697,19.3983573 C17.428446,19.2898879 17.0912473,19.1250145 16.8180737,18.9037369 C16.5449001,18.6827692 16.3320929,18.4115957 16.1787377,18.0895966 C16.0256873,17.7685272 15.9201983,17.3947726 15.8625758,16.9689527 C15.8458073,16.8105874 15.8333072,16.6308381 15.8250754,16.4306346 C15.8168436,16.2301212 15.8125753,16.0593593 15.8125753,15.9171095 L15.8125753,10.9956979 Z M23.9946739,10.9956979 C24.210225,10.9541696 24.405349,10.9290667 24.5791313,10.9206991 C24.7535234,10.9123314 24.8818784,10.9083026 24.9648061,10.9083026 C25.1306615,10.9083026 25.3047488,10.9225585 25.4870678,10.9520002 C25.6693868,10.981132 25.8352422,11.0393956 25.984634,11.1274107 C26.1337209,11.2148061 26.2581125,11.3421802 26.3575038,11.509223 C26.4572,11.6762659 26.5068956,11.8932047 26.5068956,12.1603493 L26.5068956,17.3696697 L28.3224636,17.3696697 C28.6041739,17.3696697 28.8340543,17.4053096 29.0124099,17.4762796 C29.1904606,17.5472496 29.3273522,17.6411531 29.4227801,17.7579901 C29.5182079,17.8748272 29.582233,18.0043706 29.615465,18.1463106 C29.6486971,18.2882505 29.6651607,18.4258517 29.6651607,18.559424 C29.6651607,18.6762611 29.6608924,18.7992964 29.6526606,18.9288398 C29.6444288,19.0583833 29.636197,19.2065215 29.6279652,19.3732544 L23.9946739,19.3732544 L23.9946739,10.9956979 Z M34.1862451,4.09084589 L30.483462,4.09084589 L30.483462,6.09009187 C30.483462,7.8590728 29.0462517,9.35130182 27.2224519,9.35130182 C25.3986522,9.35130182 23.9614419,7.91392733 23.9614419,6.09009187 L23.9614419,4.09084589 L14.1793263,4.09084589 L14.1793263,6.09009187 C14.1793263,7.8590728 12.7424209,9.35130182 10.9183162,9.35130182 C9.09451645,9.35130182 7.65761102,7.91392733 7.65761102,6.09009187 L7.65761102,4.09084589 L3.89933959,4.09084589 C1.79931739,4.09084589 0.0858846494,5.80435248 0.0858846494,7.90493986 L0.0858846494,40.9620738 C0.0858846494,43.0626612 1.79931739,44.7764777 3.89933959,44.7764777 L34.1862451,44.7764777 C36.2862673,44.7764777 37.9997,43.0626612 37.9997,40.9620738 L37.9997,7.90493986 C37.9997,5.80435248 36.2862673,4.09084589 34.1862451,4.09084589 Z M27.2224519,7.69326958 C28.1066076,7.69326958 28.8252128,6.97427242 28.8252128,6.09009187 L28.8252128,1.60317771 C28.8252128,0.718997157 28.1066076,0 27.2224519,0 C26.3382963,0 25.6196911,0.718997157 25.6196911,1.60317771 L25.6196911,6.09009187 C25.6196911,6.97427242 26.3382963,7.69326958 27.2224519,7.69326958 Z M10.9183162,7.69326958 C11.8027768,7.69326958 12.5213819,6.97427242 12.5213819,6.09009187 L12.5213819,1.60317771 C12.5213819,0.718997157 11.8027768,0 10.9183162,0 C10.0341605,0 9.31555537,0.718997157 9.31555537,1.60317771 L9.31555537,6.09009187 C9.31555537,6.97427242 10.0341605,7.69326958 10.9183162,7.69326958 Z" id="icon_mission1_lock" fill="#2B1137"></path>
    </g>
</svg>