<?xml version="1.0" encoding="UTF-8"?>
<svg width="38px" height="45px" viewBox="0 0 38 45" version="1.1" xmlns="http://www.w3.org/2000/svg" xmlns:xlink="http://www.w3.org/1999/xlink">
    <!-- Generator: Sketch 50.2 (55047) - http://www.bohemiancoding.com/sketch -->
    <title>icon_mission3_lock</title>
    <desc>Created with Sketch.</desc>
    <defs></defs>
    <g id="Page-3" stroke="none" stroke-width="1" fill="none" fill-rule="evenodd" fill-opacity="0.849999964">
        <path d="M35.8444943,40.9810353 L35.7890059,40.9810353 C35.7890059,41.8655258 35.0707056,42.5839031 34.1865499,42.5839031 L3.89964447,42.5839031 C3.0151839,42.5839031 2.29688363,41.8655258 2.29688363,40.9810353 L2.29688363,22.1612847 L35.8444943,22.1612847 L35.8444943,40.9810353 Z M10.353981,18.0524639 C10.353981,18.0106257 10.3579444,17.9064951 10.3664811,17.7391423 C10.6231911,17.7391423 10.8533765,17.7248863 11.0564274,17.6954446 C11.2594784,17.6663129 11.4296021,17.60557 11.5664938,17.5138359 C11.7030806,17.4217918 11.8067402,17.2925583 11.8774727,17.1255154 C11.9475954,16.9587825 11.9829616,16.733476 11.9829616,16.4495961 L11.9829616,11.0146594 C12.1985127,10.9979241 12.3997343,10.9833583 12.5860168,10.9706518 C12.7726041,10.9582553 12.8948615,10.9517472 12.9530938,10.9517472 C13.1268761,10.9517472 13.3052317,10.9647635 13.4875507,10.9895565 C13.6698697,11.0146594 13.8357251,11.0626959 13.9851169,11.1333559 C14.1342039,11.2046358 14.2564612,11.3025682 14.3518891,11.4280828 C14.447012,11.5529776 14.4948784,11.7203303 14.4948784,11.9289015 L14.4948784,15.9862768 C14.4948784,16.5038308 14.4531097,16.9835755 14.3704868,17.4261306 C14.2875591,17.8689957 14.1549358,18.2504981 13.9726168,18.5718774 C13.7902978,18.8932567 13.5518806,19.1461454 13.2576702,19.3296136 C12.9631549,19.5130819 12.6088829,19.6051259 12.1942443,19.6051259 C11.5558229,19.6051259 11.0896595,19.4777518 10.7954491,19.2233136 C10.5012386,18.9685655 10.353981,18.6115462 10.353981,18.1525657 L10.353981,18.0524639 Z M15.8128801,11.0146594 C16.0272117,10.9728212 16.218982,10.9480282 16.3881911,10.9393507 C16.5570953,10.9312929 16.6830113,10.9269542 16.7653292,10.9269542 C16.93027,10.9269542 17.1037474,10.9415201 17.2851518,10.9706518 C17.466861,11.0000935 17.6318018,11.0583571 17.780279,11.1460624 C17.9284513,11.2337676 18.052538,11.3611417 18.1513195,11.5281845 C18.2504059,11.6952274 18.2997967,11.9121662 18.2997967,12.1790009 L18.2997967,16.0113798 C18.2997967,16.3869938 18.3330287,16.6959766 18.4001026,16.9377084 C18.4583349,17.112809 18.5543725,17.2674554 18.6879105,17.4010277 C18.8214485,17.5349099 19.0217555,17.6015411 19.2885266,17.6015411 C19.4888336,17.6015411 19.6620062,17.5535047 19.8080443,17.4574318 C19.9540824,17.3616688 20.060486,17.1924565 20.127255,16.9504148 C20.1522553,16.8419454 20.1711579,16.7062037 20.183658,16.5431897 C20.1958533,16.3804856 20.2022558,16.2032156 20.2022558,16.0113798 L20.2022558,11.0146594 C20.4168922,10.9728212 20.6086625,10.9480282 20.7778716,10.9393507 C20.9467759,10.9312929 21.0726918,10.9269542 21.1550098,10.9269542 C21.3117187,10.9269542 21.4809278,10.9415201 21.6623322,10.9706518 C21.8437366,11.0000935 22.0108115,11.0583571 22.163557,11.1460624 C22.3159977,11.2337676 22.4419136,11.3611417 22.541,11.5281845 C22.6397816,11.6952274 22.6894772,11.9121662 22.6894772,12.1790009 L22.6894772,15.936071 C22.6894772,16.1031139 22.6852089,16.2785244 22.6769771,16.4619926 C22.6687453,16.6457708 22.6562451,16.8335778 22.6394767,17.0254137 C22.6065495,17.3762347 22.5178291,17.7056718 22.3727056,18.0149645 C22.227887,18.3239473 22.0190433,18.5951208 21.7461746,18.8287949 C21.4730009,19.062469 21.1315339,19.2462471 20.7220784,19.3798195 C20.3123179,19.5130819 19.8263372,19.580023 19.2635264,19.580023 C18.7089473,19.580023 18.2311984,19.5257883 17.8299746,19.4173189 C17.428446,19.3088495 17.0912473,19.143976 16.8180737,18.9226984 C16.5449001,18.7014208 16.3320929,18.4299374 16.1790425,18.1085581 C16.0259921,17.7874887 15.9205032,17.4137341 15.8625758,16.9879143 C15.8458073,16.829239 15.8333072,16.6497996 15.8253803,16.4495961 C15.8171485,16.2490827 15.8128801,16.0783209 15.8128801,15.936071 L15.8128801,11.0146594 Z M23.9949788,11.0146594 C24.2105299,10.9728212 24.405349,10.9480282 24.5794362,10.9393507 C24.7535234,10.9312929 24.8818784,10.9269542 24.9648061,10.9269542 C25.1306615,10.9269542 25.3047488,10.9415201 25.4870678,10.9706518 C25.6693868,11.0000935 25.8352422,11.0583571 25.984634,11.1460624 C26.1337209,11.2337676 26.2581125,11.3611417 26.3578087,11.5281845 C26.4572,11.6952274 26.5068956,11.9121662 26.5068956,12.1790009 L26.5068956,17.3886312 L28.3224636,17.3886312 C28.6041739,17.3886312 28.8340543,17.4242711 29.0124099,17.4952411 C29.1907654,17.5659012 29.3276571,17.6601146 29.423085,17.7769517 C29.5182079,17.8937887 29.582233,18.0233321 29.6157699,18.1649622 C29.6486971,18.3072121 29.6654656,18.4448132 29.6654656,18.5783856 C29.6654656,18.6952226 29.6611972,18.8182579 29.6529654,18.9474914 C29.6447336,19.0770349 29.636197,19.225483 29.6279652,19.392216 L23.9949788,19.392216 L23.9949788,11.0146594 Z M34.1865499,4.1094975 L30.483462,4.1094975 L30.483462,6.10905339 C30.483462,7.87803433 29.0465566,9.37026334 27.2224519,9.37026334 C25.3986522,9.37026334 23.9617468,7.93288885 23.9617468,6.10905339 L23.9617468,4.1094975 L14.1793263,4.1094975 L14.1793263,6.10905339 C14.1793263,7.87803433 12.7424209,9.37026334 10.9186211,9.37026334 C9.09482133,9.37026334 7.65761102,7.93288885 7.65761102,6.10905339 L7.65761102,4.1094975 L3.89964447,4.1094975 C1.79931739,4.1094975 0.0858846494,5.823314 0.0858846494,7.92390139 L0.0858846494,40.9810353 C0.0858846494,43.0813128 1.79931739,44.7951293 3.89964447,44.7951293 L34.1865499,44.7951293 C36.2865721,44.7951293 37.9997,43.0813128 37.9997,40.9810353 L37.9997,7.92390139 C37.9997,5.823314 36.2865721,4.1094975 34.1865499,4.1094975 Z M29.3709503,37.1052688 L26.9992789,37.1052688 L26.9992789,26.4235123 L24.6806568,26.4235123 C23.7605251,26.9934415 22.8400886,27.349531 21.4242199,27.6166757 L21.4242199,29.5747033 L23.8489407,29.5747033 L23.8489407,37.1052688 L21.0525697,37.1052688 L21.0525697,39.6691754 L29.3709503,39.6691754 L29.3709503,37.1052688 Z M27.2224519,7.71192119 C28.1069125,7.71192119 28.8255177,6.99323395 28.8255177,6.10905339 L28.8255177,1.62213924 C28.8255177,0.737648767 28.1069125,0.0189615226 27.2224519,0.0189615226 C26.3382963,0.0189615226 25.6196911,0.737648767 25.6196911,1.62213924 L25.6196911,6.10905339 C25.6196911,6.99323395 26.3382963,7.71192119 27.2224519,7.71192119 Z M10.9186211,7.71192119 C11.8027768,7.71192119 12.5213819,6.99323395 12.5213819,6.10905339 L12.5213819,1.62213924 C12.5213819,0.737648767 11.8027768,0.0189615226 10.9186211,0.0189615226 C10.0341605,0.0189615226 9.31586025,0.737648767 9.31586025,1.62213924 L9.31586025,6.10905339 C9.31586025,6.99323395 10.0341605,7.71192119 10.9186211,7.71192119 Z M12.6271757,37.3547484 C11.6006405,37.3547484 10.6802039,36.838434 9.88385406,36.07295 L8.43261921,38.0669275 C9.38842199,39.188501 10.85734,39.9180352 12.9457767,39.9180352 C15.5653165,39.9180352 17.8129013,38.5296269 17.8129013,36.0549751 C17.8129013,34.3461172 16.7333167,33.2778485 15.2643987,32.8328141 L15.2643987,32.7438692 C16.6802674,32.17394 17.3882017,31.1413113 17.3882017,29.8241829 C17.3882017,27.456141 15.6006828,26.1746525 12.8750442,26.1746525 C11.3174058,26.1746525 10.0076359,26.7799117 8.78658636,27.8125404 L10.379591,29.752903 C11.1759409,29.0583889 11.848509,28.6489944 12.7332744,28.6489944 C13.7067603,28.6489944 14.2378635,29.1473338 14.2378635,30.0553777 C14.2378635,31.1059813 13.5299292,31.8001854 11.2820396,31.8001854 L11.2820396,34.0256676 C14.0430444,34.0256676 14.64488,34.7018968 14.64488,35.8414453 C14.64488,36.838434 13.8485301,37.3547484 12.6271757,37.3547484 Z" id="icon_mission3_lock" fill="#2B1137"></path>
    </g>
</svg>