<?xml version="1.0" encoding="UTF-8"?>
<svg width="311px" height="229px" viewBox="0 0 311 229" version="1.1" xmlns="http://www.w3.org/2000/svg" xmlns:xlink="http://www.w3.org/1999/xlink">
    <!-- Generator: Sketch 50.2 (55047) - http://www.bohemiancoding.com/sketch -->
    <title>event_title</title>
    <desc>Created with Sketch.</desc>
    <defs></defs>
    <g id="Page-1" stroke="none" stroke-width="1" fill="none" fill-rule="evenodd">
        <g id="Desktop-KV1" transform="translate(-564.000000, -129.000000)" fill="#FFFFFF">
            <g id="text" transform="translate(499.000000, 129.000000)">
                <g id="event_title" transform="translate(65.000000, 0.000000)">
                    <path d="M153.340591,128.767767 L145.458726,127.116569 C145.086136,127.037501 144.720731,127.274706 144.641697,127.645404 L144.490814,128.352914 L143.096938,134.698936 L141.446457,142.205315 C140.885007,141.585088 140.163435,141.086032 139.316639,140.74614 C138.836276,140.554117 138.332304,140.39598 137.782144,140.319992 C134.48221,139.870225 131.304419,141.868503 130.685489,144.784798 C130.066559,147.700066 132.239486,150.428445 135.540447,150.879238 C136.804994,151.051751 138.047987,150.859728 139.140096,150.398666 C140.857293,149.674726 142.183426,148.273056 142.599125,146.530467 C142.605283,146.507876 142.62068,146.491447 142.625812,146.468856 L145.091268,135.249335 L145.944222,131.367788 L148.890042,131.984933 C150.458409,132.314557 152.084256,131.769292 153.132228,130.563753 L153.720366,129.886023 C154.064216,129.491707 153.8538,128.875588 153.340591,128.767767 Z M258.559748,81.5073607 C259.315191,82.0598137 260.231783,82.4613177 261.284888,82.6040519 C264.413411,83.0312274 267.41671,81.1654148 268.070539,78.4257407 C268.076697,78.4041765 268.092094,78.3867198 268.097226,78.3651557 L268.913228,74.6140201 L270.505203,67.2904233 L270.648901,66.6270689 L273.475657,67.2195696 C274.637562,67.4629365 275.825128,67.1990323 276.772512,66.5397854 C277.054777,66.3426274 277.322672,66.118771 277.554643,65.8517863 L278.120199,65.2017811 C278.44968,64.8218413 278.248502,64.2293405 277.754794,64.1256272 L276.826912,63.9315498 L274.286527,63.3996341 L274.285501,63.3986072 L270.395376,62.5832769 L270.176749,62.5380949 C269.817503,62.4631338 269.466468,62.6900708 269.389486,63.0463927 L269.239629,63.7528754 L266.982535,74.137555 L266.955849,74.2576981 C266.899396,74.1940325 266.83781,74.1334475 266.776225,74.0728625 C266.053627,73.3530306 265.093926,72.8252223 263.964866,72.5726137 C263.789348,72.5335928 263.624095,72.4781421 263.440366,72.4524705 C261.671848,72.2111574 259.957729,72.7184284 258.668548,73.6847078 C257.643156,74.4517755 256.880528,75.5022578 256.616738,76.7437368 C256.218488,78.6177643 257.036543,80.3942397 258.559748,81.5073607 Z M188.30758,59.1802483 C189.05276,59.2819079 189.786649,59.1689528 190.430213,58.8968338 C191.443288,58.4696582 192.224392,57.6440592 192.469706,56.616168 C192.472785,56.6028187 192.482023,56.5935769 192.485102,56.5802277 L193.939537,49.9641405 L194.442482,47.6752597 L196.179181,48.0397966 C197.105011,48.2328471 198.062659,47.9124654 198.680563,47.2008484 L199.027492,46.8013981 C199.229696,46.5693268 199.106526,46.2058168 198.803733,46.1421512 L194.156111,45.1686838 C193.936458,45.1224749 193.72091,45.2621284 193.673695,45.4808505 L193.585423,45.8977575 L192.763262,49.6396513 L191.790217,54.0654368 C191.459711,53.6998731 191.033747,53.405163 190.533881,53.2059513 C190.251616,53.0919694 189.953955,52.9985247 189.629607,52.9543696 C187.683518,52.6884117 185.810305,53.867252 185.4449,55.586223 C185.079495,57.305194 186.361491,58.9142905 188.30758,59.1802483 Z M250.987861,128.230717 C251.778203,129.175432 253.214162,129.522513 255.293685,129.274011 C256.035785,129.185701 256.852814,129.020376 257.742719,128.778036 C258.631597,128.535696 259.41578,128.28206 260.089111,128.022264 L260.813762,123.666305 C259.873563,123.778233 259.318271,123.608801 259.151991,123.152873 C259.045243,122.867404 259.563585,118.642884 260.034711,115.103283 C260.314923,113.005399 260.578712,111.147801 260.686486,110.495742 L263.883779,91.2707873 C263.916624,91.0695219 263.907387,90.9124116 263.924836,90.7265492 C264.00387,89.9348367 263.983341,89.2478644 263.794481,88.7405934 C263.557378,88.1142062 263.201211,87.6356873 262.720847,87.3101713 C262.24151,86.9846553 261.653372,86.7936586 260.959513,86.7412885 C260.262575,86.6889184 259.519449,86.7094557 258.727054,86.8049541 C258.231294,86.8634853 257.732455,86.9466613 257.228483,87.0524284 C256.725538,87.1581954 256.371424,87.2465057 256.16614,87.3142788 L255.833581,89.3844374 L250.321715,123.701218 C249.976839,125.775484 250.198545,127.286002 250.987861,128.230717 Z M250.196492,90.8086983 C249.852642,90.1094037 248.952473,89.5210104 247.562703,89.0311961 C247.340997,88.9531544 247.138792,88.8699783 246.889373,88.7980978 C245.083903,88.2682358 242.546597,88.198409 239.277455,88.5906712 C237.494567,88.8032322 235.736313,89.2293809 234.003719,89.8650099 C232.271125,90.5016659 230.705837,91.310835 229.30375,92.2925173 C227.903715,93.2731728 226.729493,94.4191535 225.783135,95.7294324 C224.837804,97.0407383 224.233244,98.4793753 223.972534,100.04637 C223.696427,101.705783 223.773408,103.063298 224.206557,104.118914 C224.636626,105.174531 225.297639,106.021694 226.187544,106.661431 C227.075396,107.30014 228.153135,107.758122 229.416656,108.036402 C230.682229,108.315709 232.008362,108.505679 233.400185,108.610419 C235.419149,108.730562 237.043969,109.033487 238.274645,109.518167 C239.503267,110.004901 239.988763,111.030739 239.729079,112.596707 C239.590513,113.426413 239.291825,114.129815 238.83199,114.703833 C238.372154,115.278877 237.818915,115.763557 237.170219,116.156846 C236.522549,116.551162 235.816373,116.851006 235.054771,117.052271 C234.292142,117.257644 233.540804,117.404486 232.796651,117.493823 C231.6563,117.630396 230.600116,117.63245 229.627071,117.499984 C228.654027,117.367519 227.775413,117.179603 226.991229,116.934182 C226.204993,116.688761 225.512161,116.411508 224.909653,116.098314 C224.305093,115.787175 223.831914,115.493491 223.490117,115.218292 C222.749043,116.166087 222.093162,117.04611 221.52042,117.859387 C220.949732,118.67369 220.60075,119.45 220.478606,120.187288 C220.279481,121.386666 221.178623,122.329328 223.177059,123.0163 C225.173443,123.703272 228.128501,123.813147 232.04326,123.344896 C234.023221,123.107691 235.920041,122.642521 237.735775,121.950415 C239.550483,121.260362 241.190699,120.375205 242.65745,119.294943 C242.676952,119.280567 242.690296,119.26311 242.709798,119.248734 C244.149863,118.179769 245.352825,116.933155 246.309446,115.50376 C247.278385,114.054854 247.912712,112.430355 248.212426,110.632315 C248.502902,108.881512 248.398207,107.459304 247.901421,106.366721 C247.402582,105.274137 246.661508,104.403356 245.677173,103.752324 C245.542712,103.662987 245.377459,103.603429 245.235813,103.521279 C244.344882,103.001686 243.350283,102.589913 242.198642,102.338332 C240.863271,102.047729 239.475554,101.850571 238.035489,101.751992 C236.173567,101.568183 234.734528,101.243694 233.719401,100.777498 C232.704273,100.313355 232.285495,99.5483411 232.462038,98.4886171 C232.584182,97.7513284 232.867474,97.141371 233.311913,96.6577178 C233.756352,96.1750916 234.283931,95.7735876 234.896702,95.4521791 C235.506395,95.1317974 236.142774,94.8843231 236.802761,94.7159173 C237.460695,94.5464847 238.088863,94.4263415 238.683159,94.354461 C239.624385,94.2425328 240.547135,94.233291 241.455515,94.3277626 C242.360816,94.4222341 243.206584,94.5926936 243.991794,94.8381142 C244.775978,95.0825079 245.480101,95.3720836 246.105189,95.7037608 C246.235544,95.7725607 246.338186,95.8454681 246.457251,95.9163218 C246.910928,96.1833065 247.309178,96.4574793 247.606839,96.7429476 C248.266826,95.9871754 248.85599,95.2160003 249.375358,94.430449 C249.893699,93.6459246 250.223179,92.8377823 250.360719,92.0080759 C250.4377,91.5480407 250.382274,91.1485904 250.196492,90.8086983 Z M220.827588,96.6279388 C221.003106,95.5671879 220.988736,94.7097561 220.781399,94.0576972 C220.573036,93.4046115 220.219949,92.9045285 219.719057,92.5574484 C219.34544,92.2986785 218.899975,92.1415683 218.419611,92.0337475 C218.257437,91.9967804 218.106554,91.9444103 217.932062,91.9248999 C217.240257,91.8489119 216.523817,91.8561 215.78069,91.9444103 C215.234635,92.0101296 214.710136,92.0963862 214.208217,92.2011264 C213.705272,92.3068934 213.350132,92.3952038 213.144848,92.4640037 L209.36147,115.214184 C209.184927,116.275962 208.297075,117.330552 206.698942,118.380007 C205.099782,119.430489 203.215278,120.084602 201.047483,120.344399 C198.585106,120.639109 197.041373,120.259169 196.421416,119.204579 C195.800433,118.148963 195.709082,116.306768 196.14531,113.679022 L198.570736,99.0883059 C198.748306,98.0275549 198.716487,97.1834724 198.477332,96.558112 C198.238176,95.9317247 197.876877,95.4542328 197.393434,95.1287168 C196.907938,94.8032008 196.314669,94.6132309 195.614651,94.5608608 C194.912581,94.5105444 194.161243,94.5321086 193.361664,94.627607 C192.811503,94.6933263 192.296241,94.778556 191.814851,94.8812425 C191.332435,94.9839289 190.962924,95.074293 190.705293,95.1492541 L187.416649,114.926662 C187.125147,116.67952 186.930127,118.363577 186.832617,119.978835 C186.733055,121.595119 186.958867,123.001924 187.514159,124.201301 C188.066372,125.400679 189.069183,126.297132 190.52567,126.889632 C191.981131,127.484187 194.094526,127.615625 196.868934,127.283948 C199.841442,126.927626 202.252498,126.220117 204.10313,125.162446 C205.953762,124.105803 207.437963,122.991655 208.554706,121.816922 C208.401769,122.740073 208.379188,123.46504 208.485936,123.994902 C208.59063,124.523737 208.997092,124.860548 209.700188,125.002256 L213.138689,124.590483 L216.239499,124.219785 L220.827588,96.6279388 Z M174.765019,96.8528221 L171.732979,129.54613 L179.980249,128.559314 L180.061336,127.648485 L183.287369,91.6240286 L184.060262,82.9993946 C183.692804,82.8638485 183.109799,82.7971024 182.308166,82.8022367 C181.505507,82.8083979 180.659738,82.8648754 179.768807,82.9706424 C178.62743,83.1072154 177.544559,83.4851015 176.52122,84.1043007 C175.493775,84.7255537 174.548444,85.7421494 173.682147,87.1561417 L157.048014,114.495379 L149.124065,89.8917084 C148.795612,88.9377514 148.297799,88.2066239 147.631653,87.6983261 C146.961402,87.1910551 145.909324,87.0236762 144.474391,87.1951625 C143.582434,87.3019564 142.717163,87.4621473 141.880632,87.6747082 C141.045128,87.888296 140.415933,88.0864808 139.997155,88.2723433 L128.635732,134.70407 L136.95793,133.708012 L144.648882,101.473712 L151.926187,122.088014 L159.579161,121.173078 L174.765019,96.8528221 Z M132.858416,102.750104 C131.60516,102.403024 130.334454,102.306499 129.047325,102.460528 C128.675762,102.505711 128.347308,102.609424 128.006537,102.696707 C127.257252,102.887704 126.554156,103.14442 125.953701,103.542844 C125.081245,104.121995 124.322722,104.811021 123.680185,105.609922 C123.037647,106.410876 122.493645,107.267281 122.051259,108.177083 C121.607846,109.089965 121.198305,109.952531 120.820583,110.765808 L111.599242,130.303956 L108.008832,108.978037 C107.827155,107.735531 107.325237,106.81238 106.503076,106.208584 C105.679889,105.607868 104.575463,105.389146 103.189798,105.555498 C102.445645,105.643808 101.632722,105.787569 100.752055,105.982673 C99.8693352,106.178804 99.0861781,106.431413 98.4056628,106.737419 L104.746874,137.359542 L108.535384,136.905667 L106.795605,140.367227 C105.6337,142.675618 104.468715,144.350434 103.301678,145.394755 C102.131561,146.43805 100.755134,147.055195 99.1703444,147.244138 C98.0802882,147.37455 97.1441948,147.317046 96.3579585,147.072652 C95.573775,146.827231 94.9394485,146.553058 94.457032,146.249107 C93.7806224,147.098323 93.1945376,147.925976 92.6977512,148.730011 C92.1989119,149.536099 91.8961186,150.261066 91.7883447,150.906963 C91.5738233,152.196705 92.1003758,153.037707 93.3731344,153.427915 C94.6417873,153.818124 96.3425622,153.885897 98.4734064,153.630208 C100.453367,153.393002 102.23215,152.920644 103.806675,152.213135 C105.380174,151.504598 106.776103,150.626629 107.994462,149.577174 C109.213846,148.526692 110.299797,147.324234 111.252313,145.967746 C112.206882,144.610231 113.082417,143.139761 113.88097,141.552229 L123.121813,122.658951 L132.858416,102.750104 Z M71.9302317,131.93359 C72.1447531,130.643848 72.6938868,129.537916 73.5745537,128.618872 C74.4562469,127.699828 75.5175633,126.928653 76.763635,126.305346 C78.005601,125.683067 79.3748429,125.192225 80.867255,124.831796 C82.3586406,124.47342 83.822313,124.207462 85.2603249,124.034949 L86.7465784,123.857302 L85.5733824,130.910833 C85.4964011,131.372922 85.2048983,131.88122 84.6999006,132.438807 C84.1949028,132.997422 83.5359423,133.527284 82.7240455,134.030447 C81.9121487,134.534638 80.9873459,134.984404 79.95169,135.37872 C78.9139811,135.774063 77.8506119,136.037967 76.7615822,136.168379 C74.6810325,136.41688 73.2994736,136.107794 72.6189583,135.240093 C71.9363902,134.37342 71.7085254,133.271594 71.9302317,131.93359 Z M63.9056942,138.147147 C64.3891372,139.332148 65.0994186,140.239896 66.0375648,140.873471 C66.9767375,141.507047 68.0883484,141.90547 69.3713711,142.067715 C70.6554203,142.228932 71.9404959,142.235094 73.2296771,142.081064 C75.904523,141.760682 78.1965148,141.112731 80.1056527,140.139263 C82.015817,139.164769 83.6324256,138.055756 84.9554787,136.81325 C84.9811391,138.120448 85.4255782,139.028196 86.2877695,139.53444 C87.0155,139.961616 87.9587783,140.133102 89.0950233,140.077652 C89.305439,140.067383 89.5107227,140.063275 89.7355083,140.036577 C90.9241005,139.893843 91.9505187,139.6361 92.8137364,139.262321 C93.6779806,138.887516 94.3338618,138.515791 94.7844594,138.144066 L94.7916443,138.105045 L95.4393142,134.203987 C95.2832986,134.266626 95.0574866,134.316942 94.7598254,134.352883 C94.0166986,134.441193 93.5814973,134.212202 93.4542214,133.661803 C93.3269455,133.111404 93.352606,132.307369 93.5291499,131.247645 L94.2219822,127.076522 L95.7359491,117.969261 C96.0808256,115.894995 96.1475428,114.103117 95.9391799,112.590546 C95.7267113,111.080028 95.1519171,109.872436 94.2096652,108.967768 C93.2674133,108.064127 91.9474395,107.466492 90.2487174,107.171782 C90.2364003,107.169729 90.2210041,107.168702 90.2076606,107.166648 C88.515097,106.88118 86.3678301,106.890421 83.7627807,107.202588 C82.0271076,107.410015 80.3088835,107.751961 78.6029764,108.227399 C76.8970694,108.70181 75.3625742,109.248102 73.9994908,109.862167 C72.6333282,110.477259 71.506321,111.120076 70.6194957,111.791645 C69.7306175,112.463214 69.2369103,113.098844 69.1373478,113.696479 C69.0613928,114.157541 69.1260572,114.783928 69.3344201,115.571533 C69.542783,116.360165 69.8835538,117.087185 70.3557062,117.752593 C72.1929948,116.63023 73.9512491,115.685515 75.6325222,114.920501 C77.3148216,114.15446 79.2701483,113.63692 81.4985022,113.370963 C84.0737855,113.061876 85.8125379,113.272384 86.7096274,114.00043 C87.6087697,114.729504 87.8971933,116.06032 87.5748979,117.996987 L87.3798785,119.172746 L85.5959636,119.386334 C83.3676097,119.653319 81.048931,120.089736 78.6430067,120.692506 C76.2350296,121.298356 73.9830681,122.143465 71.8840429,123.230914 C69.7860441,124.317337 67.9908386,125.695389 66.5004794,127.364044 C65.0090938,129.034752 64.0637626,131.06897 63.6655123,133.464645 C63.343217,135.401311 63.4222512,136.962145 63.9056942,138.147147 Z M50.9769305,142.981624 C51.768299,143.926339 53.2268392,144.271366 55.3576834,144.016703 C56.0761762,143.930447 56.8049331,143.782578 57.5419013,143.595689 C57.6681508,143.563856 57.7923474,143.541265 57.9185968,143.506352 C58.7838674,143.268119 59.5033865,143.021672 60.0792071,142.773171 L60.8038584,138.416185 C59.8123384,138.535301 59.2560197,138.308364 59.1328496,137.735374 C59.0096794,137.16341 59.0517625,136.253609 59.259099,135.009049 L61.649627,120.630894 L61.8898089,119.186096 L63.9529094,106.778493 L65.2030868,99.2567116 C65.3714194,98.2431965 65.3365212,97.4227318 65.1024978,96.7963445 C64.8653952,96.1699573 64.5092281,95.6924653 64.0288644,95.3659225 C63.5495271,95.0393796 62.9613895,94.8494097 62.2675308,94.7960127 C61.5705928,94.7446695 60.827466,94.7652068 60.0360976,94.8596783 C59.5403376,94.9192364 59.0425248,94.991117 58.5426591,95.0732661 C58.0427934,95.1564421 57.690732,95.2314032 57.4854483,95.30123 L50.3118115,138.452125 C49.966935,140.526391 50.1876149,142.035882 50.9769305,142.981624 Z M295.45435,83.594976 C294.451539,83.1965526 293.234207,82.9244335 291.802354,82.7786188 C290.370501,82.6338309 288.786737,82.6646369 287.053117,82.8720635 C285.467301,83.0620334 283.630012,83.5313104 281.539198,84.2778408 C279.449411,85.0264249 277.414024,86.1385191 275.434063,87.6182307 C273.454102,89.0979422 271.676346,91.0274204 270.10182,93.4066652 C268.528321,95.7879637 267.452635,98.7063123 266.877841,102.163765 C266.265069,105.852262 266.347183,108.756234 267.125208,110.876709 C267.903233,112.998211 269.047689,114.589851 270.556524,115.650602 C272.064332,116.714433 273.784609,117.342874 275.718381,117.541059 C277.651126,117.738217 279.460702,117.73719 281.145054,117.535925 C283.224577,117.286397 285.047496,116.899269 286.617916,116.37146 C288.185256,115.845706 289.5196,115.268608 290.61992,114.63914 C291.718188,114.011726 292.569088,113.356587 293.168517,112.673722 C293.765892,111.992911 294.107689,111.398356 294.192882,110.890058 C294.245229,110.56865 294.221622,110.198979 294.122059,109.781045 C294.02147,109.364138 293.88393,108.951338 293.708413,108.542646 C293.533922,108.133954 293.329664,107.752988 293.09872,107.395639 C292.86675,107.039317 292.645043,106.762063 292.437707,106.559771 C291.669946,107.375101 290.512146,108.281823 288.961228,109.279935 C287.412363,110.279074 285.570969,110.906488 283.442178,111.16115 C281.659289,111.374738 280.196643,111.255622 279.059372,110.803802 C277.920048,110.354035 277.051698,109.666036 276.453296,108.743912 C275.851815,107.822814 275.494622,106.690183 275.37761,105.349098 C275.261625,104.006986 275.333474,102.551919 275.593158,100.984924 C275.847709,99.4631114 276.256224,98.0255012 276.82178,96.6700402 C277.38631,95.3145792 278.14586,94.104933 279.099402,93.0411015 C280.051918,91.9793237 281.179952,91.1105964 282.482477,90.4349197 C283.783975,89.7592429 285.301021,89.3176912 287.035668,89.1102646 C289.116218,88.8607366 290.809808,89.0424916 292.115412,89.6534759 C293.422042,90.2665139 294.402271,90.9391101 295.057126,91.674345 C295.82694,91.1311337 296.536195,90.3681735 297.184891,89.3864911 C297.832561,88.4058356 298.212336,87.592559 298.32011,86.9466613 C298.434042,86.2545547 298.235943,85.6230332 297.723761,85.0510697 C297.210551,84.48116 296.455108,83.99648 295.45435,83.594976 Z M28.0703555,107.089633 C28.874041,106.903771 29.6623301,106.742553 30.4341966,106.604953 C31.2060631,106.467353 32.010775,106.34721 32.8483322,106.246577 C34.3766689,106.064822 35.7715713,106.03299 37.0309864,106.15416 C38.291428,106.273276 39.3342689,106.613168 40.1595091,107.168702 C40.9857758,107.725262 41.5841776,108.488222 41.9536881,109.460663 C42.3231987,110.43413 42.3817045,111.679717 42.1292056,113.20153 C41.823333,115.045778 41.2854899,116.601478 40.5197819,117.867602 C39.7540739,119.134752 38.780003,120.189342 37.6027014,121.029317 C36.4233468,121.872373 35.0192067,122.536754 33.3933603,123.024515 C31.7664875,123.514329 29.9168819,123.88092 27.8465963,124.128394 L25.1840675,124.446722 L28.0703555,107.089633 Z M24.2469477,130.523705 L28.4706586,130.018488 C31.1352403,129.699133 33.7228406,129.131277 36.2303802,128.310813 C38.7389463,127.491375 41.0104098,126.349502 43.0447707,124.885193 C43.5189759,124.544274 43.9726527,124.180764 44.4140125,123.801851 C45.8653679,122.555238 47.1391529,121.109413 48.2312618,119.45308 C49.6549039,117.294611 50.6156313,114.716155 51.1144706,111.719765 C51.8750465,107.150218 50.845549,103.908407 48.0413745,101.984063 C48.0167404,101.967634 47.9982649,101.946069 47.9726045,101.92964 C45.1109505,100.012484 40.1143467,99.4815949 32.9807402,100.335946 C31.0982892,100.560829 29.0444264,100.862728 26.822231,101.24164 C24.5979827,101.62158 22.4271082,102.049783 20.3085811,102.529328 L12.6504749,148.585223 L21.4191656,147.535768 L24.2469477,130.523705 Z M264.134225,139.847634 C263.53377,140.393926 263.020561,140.918654 262.597677,141.42079 C262.547382,140.253245 262.031094,139.456399 261.047785,139.03025 C260.064477,138.606155 258.849198,138.479851 257.400922,138.653391 C256.900029,138.713976 256.447379,138.779695 256.045023,138.850549 C255.641641,138.922429 255.235179,139.004578 254.827691,139.098023 L249.389727,171.806734 L258.08349,170.765494 L261.739591,148.77622 C261.930505,147.624078 262.6685,146.541763 263.954602,145.529275 C265.238651,144.516786 266.673584,143.916071 268.2594,143.726101 C269.397697,143.590555 270.33687,143.635737 271.076918,143.862674 C271.814912,144.091664 272.531352,144.457228 273.224185,144.962445 C273.849273,144.11939 274.490785,143.104848 275.150772,141.917793 C275.808706,140.731764 276.211062,139.701819 276.356813,138.825904 C276.456375,138.227242 276.366051,137.740508 276.088918,137.36673 C275.810758,136.992951 275.420719,136.712617 274.918801,136.524701 C274.41483,136.335758 273.849273,136.234098 273.221105,136.218695 C272.591911,136.204319 271.981192,136.232044 271.386896,136.302898 C270.395376,136.422014 269.470573,136.657166 268.612488,137.007327 C267.752349,137.359542 266.940452,137.783637 266.17885,138.281666 C265.415195,138.779695 264.73468,139.302369 264.134225,139.847634 Z M240.417806,153.496715 L225.632252,155.266003 C226.151619,152.719379 227.222174,150.659489 228.843914,149.08736 C230.463602,147.51523 232.413797,146.592079 234.693472,146.318933 C237.367291,145.999578 239.088594,146.528414 239.855329,147.904412 C240.62001,149.282464 240.808871,151.145196 240.417806,153.496715 Z M246.577342,143.609038 C246.361794,143.344107 246.121612,143.10074 245.868087,142.865588 C244.980235,142.042043 243.864518,141.398199 242.505541,140.945352 C240.756524,140.364147 238.544593,140.233735 235.869747,140.554117 C233.789197,140.802618 231.704542,141.36842 229.616807,142.250497 C227.52702,143.1336 225.588116,144.360703 223.798042,145.929752 C222.006943,147.4988 220.466289,149.389258 219.178134,151.59907 C217.8869,153.809909 217.001101,156.367828 216.518685,159.270774 C215.951075,162.684071 215.982894,165.480223 216.615168,167.663336 C217.246415,169.848504 218.277965,171.531535 219.707766,172.715509 C221.13654,173.900511 222.892742,174.651149 224.977397,174.966396 C227.061026,175.281643 229.266799,175.2991 231.595742,175.019793 C233.527461,174.788748 235.301111,174.41805 236.914641,173.909753 C238.529196,173.399401 239.935389,172.825384 241.134246,172.185647 C241.151695,172.175379 241.165038,172.16511 241.183514,172.154841 C242.35671,171.52332 243.304094,170.8651 244.016428,170.179154 C244.738,169.48294 245.1537,168.812398 245.261473,168.1665 C245.361036,167.567838 245.201941,166.841845 244.786242,165.987494 C244.369516,165.134169 243.945605,164.392773 243.516563,163.766386 C243.131656,164.14838 242.682085,164.548857 242.193509,164.958576 C242.091894,165.043805 241.999516,165.126981 241.891743,165.215292 C241.273839,165.718455 240.550214,166.200055 239.721894,166.66009 C238.892549,167.122179 237.960561,167.539086 236.929011,167.909784 C235.895407,168.281509 234.735555,168.545413 233.4474,168.699443 C230.029427,169.108135 227.676877,168.509473 226.391801,166.900376 C225.104673,165.292307 224.604807,163.047581 224.890151,160.168253 L243.358494,157.957414 L247.403608,157.473761 C247.586311,156.954168 247.758749,156.277464 247.921949,155.444677 C248.08515,154.61189 248.216531,153.897192 248.316094,153.296477 C248.630178,151.407046 248.659944,149.619275 248.407445,147.932137 C248.152894,146.244999 247.543201,144.805335 246.577342,143.609038 Z M212.018867,147.587111 C211.44202,146.396975 210.457685,145.50463 209.054571,144.91521 C207.628877,144.318601 205.558591,144.181002 202.844741,144.506518 C200.178107,144.825872 197.901511,145.493334 196.014955,146.50993 C194.127371,147.526526 192.601088,148.624244 191.438156,149.802057 L193.798918,135.614899 L193.830737,135.418768 C194.000096,134.405253 193.977514,133.582734 193.762993,132.95224 C193.549498,132.323799 193.200516,131.846307 192.717073,131.518737 C192.231577,131.193221 191.638307,131.004278 190.936237,130.952935 C190.235194,130.900565 189.483856,130.923156 188.685302,131.018654 C187.436151,131.168576 186.554458,131.318498 186.039196,131.470474 L185.685082,133.606352 L185.527013,134.554148 L177.91099,180.361541 L186.604752,179.320301 L190.364522,156.708747 C190.555436,155.556605 191.447394,154.478398 193.038342,153.475151 C194.630316,152.469851 196.534322,151.835249 198.751385,151.570318 C200.229428,151.393697 201.345144,151.440933 202.095456,151.712025 C202.846794,151.984144 203.365135,152.429803 203.648427,153.051056 C203.930692,153.673336 204.042571,154.450672 203.984065,155.383065 C203.92556,156.316485 203.805469,157.336161 203.620713,158.442094 L200.424447,177.667049 L208.969379,176.644292 L209.654,172.525539 L212.223124,157.074311 C212.521812,155.275244 212.710673,153.559354 212.789707,151.923559 C212.868741,150.286737 212.621375,148.859396 212.04966,147.639481 C212.041448,147.620997 212.028105,147.605594 212.018867,147.587111 Z M167.019667,155.638754 L173.823793,154.824451 L177.71905,154.358255 L178.754706,148.13443 L174.858423,148.600626 L168.054296,149.415956 L168.882616,144.435664 C169.050948,143.423176 169.031446,142.588335 168.825136,141.935249 C168.616773,141.28319 168.261633,140.79543 167.757661,140.470941 C167.252664,140.147478 166.654262,139.948267 165.963482,139.872279 C165.271677,139.796291 164.555237,139.802452 163.81211,139.891789 C163.31635,139.951347 162.854462,140.030416 162.426445,140.126941 C161.997403,140.222439 161.580677,140.318965 161.177294,140.410356 L155.819391,172.636441 C155.650032,173.649956 155.518651,174.66039 155.42422,175.664664 C155.32979,176.670991 155.379058,177.613652 155.573051,178.493675 C155.97438,180.163357 156.883787,181.40997 158.301271,182.233515 C159.717728,183.059114 161.91221,183.293239 164.884717,182.936917 C166.419212,182.753109 167.829511,182.449157 169.11356,182.025062 C169.361953,181.942913 169.577501,181.844334 169.814604,181.75705 C170.800991,181.392513 171.712451,180.993063 172.493555,180.535082 C173.462494,179.968252 174.238466,179.377805 174.826604,178.764767 C175.412688,178.152756 175.75038,177.593115 175.834546,177.085844 C175.941294,176.440973 175.854048,175.796102 175.573836,175.151232 C175.290545,174.507388 174.876898,173.789609 174.329817,172.994816 C173.855612,173.505168 173.033451,174.145931 171.861281,174.918133 C171.377838,175.237488 170.871814,175.491124 170.35142,175.706765 C169.610346,176.013798 168.837453,176.228412 168.022477,176.325964 C165.000702,176.687421 163.777212,175.139936 164.352006,171.682484 L167.019667,155.638754 Z M145.311948,164.87848 L130.525368,166.648794 C131.045762,164.101144 132.116316,162.041254 133.73703,160.470151 C135.357744,158.898022 137.307939,157.974871 139.586587,157.701725 C142.261433,157.381343 143.98171,157.911205 144.748445,159.287204 C145.514153,160.664229 145.703014,162.526961 145.311948,164.87848 Z M151.470457,154.99183 C151.202562,154.66118 150.898742,154.359281 150.571315,154.075867 C149.715282,153.334471 148.662177,152.749158 147.398656,152.328144 C146.21417,151.934855 144.800792,151.765422 143.191368,151.784932 C141.537808,153.6949 138.996397,154.908654 136.272283,154.908654 C135.855557,154.908654 135.435752,154.880929 135.014921,154.824451 C134.336458,154.731006 133.690841,154.546171 133.068832,154.313073 C131.523046,155.113 130.062453,156.110085 128.691158,157.312543 C126.901085,158.881592 125.360431,160.77205 124.07125,162.981862 C122.781042,165.192701 121.894217,167.749593 121.4118,170.653566 C120.844191,174.065836 120.877036,176.863014 121.50931,179.046128 C122.140557,181.231296 123.171081,182.913299 124.601908,184.098301 C126.030682,185.282276 127.786884,186.03394 129.871539,186.349188 C131.955168,186.663408 134.159914,186.680865 136.489884,186.402585 C138.421603,186.17154 140.194227,185.800842 141.808783,185.292544 C143.422312,184.782193 144.828505,184.208175 146.027362,183.567412 C146.860813,183.121753 147.537223,182.65761 148.140757,182.186279 C148.404546,181.978853 148.689891,181.774507 148.91057,181.561946 C149.632142,180.865732 150.047842,180.194163 150.155616,179.548265 C150.255178,178.95063 150.095057,178.22361 149.680384,177.369259 C149.262632,176.515934 148.839748,175.774538 148.410705,175.149178 C148.0453,175.511661 147.61831,175.890574 147.160527,176.278729 C147.034278,176.385523 146.919319,176.489236 146.785885,176.597057 C146.166955,177.10022 145.444356,177.582846 144.616037,178.042882 C143.785664,178.504971 142.854703,178.920851 141.823153,179.292576 C140.78955,179.664301 139.629697,179.927178 138.341542,180.082234 C134.92357,180.490926 132.571019,179.892264 131.285943,178.283168 C129.998815,176.674071 129.497923,174.429346 129.783267,171.550018 L148.028877,169.366904 L152.296724,168.855526 C152.480453,168.336959 152.652891,167.660256 152.816092,166.827469 C152.978266,165.994682 153.109647,165.279984 153.210236,164.679269 C153.52432,162.788811 153.554086,161.002067 153.300561,159.314929 C153.047036,157.626764 152.437343,156.1871 151.470457,154.99183 Z M107.069659,179.825518 C106.894141,180.886269 106.159226,181.866925 104.869018,182.766458 C103.578811,183.665991 101.892405,184.240008 99.8128822,184.489536 C98.227066,184.679506 96.948149,184.56039 95.9751045,184.135268 C95.00206,183.709119 94.287673,183.038577 93.8350226,182.121587 C93.3792929,181.204597 93.1308997,180.069912 93.0888165,178.719585 C93.045707,177.369259 93.163745,175.863875 93.4388251,174.204463 C94.6192061,167.105749 97.9335104,163.229336 103.383791,162.577277 C105.117411,162.369851 106.485627,162.534149 107.488437,163.069145 C108.492274,163.603115 109.203582,164.072392 109.622361,164.472869 L107.069659,179.825518 Z M113.04136,156.609141 C111.973885,157.18932 111.153777,158.033402 110.582062,159.139335 C110.365488,158.829222 110.098619,158.549915 109.808143,158.286011 C109.204609,157.734585 108.453271,157.27763 107.526415,156.93055 C106.156147,156.416091 104.329122,156.296975 102.052527,156.569094 C100.119781,156.800138 98.2085905,157.345403 96.3179282,158.203862 C94.6376816,158.967849 93.0775259,160.037842 91.627197,161.382007 C91.445521,161.548359 91.2597393,161.704442 91.0821689,161.881063 C89.481983,163.47373 88.1014505,165.422718 86.9426243,167.730083 C85.7807189,170.038474 84.9441881,172.737073 84.430979,175.824855 C83.9095585,178.960898 83.8685018,181.541409 84.3088352,183.566385 C84.7481422,185.592389 85.5302729,187.171706 86.6531744,188.301257 C87.7760759,189.432861 89.1576348,190.17015 90.7999039,190.515177 C92.4411466,190.86123 94.2035067,190.921815 96.0869841,190.695905 C98.6129993,190.394007 100.691496,189.783022 102.325554,188.865005 C103.958585,187.948016 105.211842,187.051563 106.085324,186.179755 L105.936493,187.077235 C105.64499,188.830092 105.259057,190.422759 104.777667,191.858315 C104.29525,193.293872 103.613709,194.550754 102.730989,195.628961 C101.847243,196.705115 100.70484,197.588218 99.3048051,198.274164 C97.9037443,198.962163 96.1639655,199.430413 94.0834158,199.679941 C92.6454039,199.852454 91.3705924,199.856562 90.2569287,199.697398 C89.1422385,199.53618 88.1743262,199.302055 87.3511388,198.993996 C86.5289778,198.68491 85.854621,198.359394 85.3290949,198.016421 C84.8035688,197.672421 84.4361111,197.399275 84.2267218,197.200064 C83.5739198,197.909627 82.8636384,198.752683 82.0958776,199.725123 C81.3260639,200.697564 80.8888098,201.506733 80.7820623,202.152631 C80.6814733,202.751293 80.8405681,203.331471 81.2572939,203.891112 C81.6740197,204.45178 82.3976445,204.917976 83.427142,205.291755 C84.4576659,205.665534 85.8115115,205.909927 87.4927845,206.025963 C89.1720047,206.140972 91.2012334,206.056769 93.5794444,205.772328 C96.997417,205.362609 99.9165504,204.594514 102.337871,203.469071 C104.757139,202.343627 106.779182,200.916286 108.40195,199.184993 C110.024717,197.454726 111.292343,195.450287 112.205856,193.172702 C113.118341,190.895116 113.805015,188.373137 114.26485,185.606765 L114.548142,183.906277 L119.275824,155.471376 L119.289168,155.387173 C118.469059,155.350206 117.515517,155.395388 116.426487,155.525799 C115.236868,155.668534 114.108835,156.031017 113.04136,156.609141 Z M72.5265807,176.911277 C72.3038479,178.249281 71.970262,179.598581 71.5247965,180.962257 C71.0803574,182.32696 70.4593744,183.575627 69.6649267,184.708258 C68.8684262,185.84397 67.8697213,186.811277 66.6698384,187.60915 C65.4689291,188.408051 64.0247587,188.908134 62.3424593,189.110426 C60.7063487,189.30553 59.4120353,189.133017 58.4595192,188.59186 C57.5049503,188.051729 56.8069859,187.287742 56.3645997,186.299898 C55.9191342,185.315135 55.6861372,184.169155 55.6615032,182.860929 C55.6358427,181.552704 55.7343789,180.232157 55.9571116,178.894152 C56.171633,177.604411 56.5216417,176.297212 57.0091903,174.972557 C57.4957125,173.649956 58.1464617,172.442363 58.9593849,171.350806 C59.7712817,170.260276 60.7761451,169.32583 61.9739751,168.54952 C63.1697524,167.774238 64.560549,167.291612 66.1473916,167.102669 C67.7814493,166.906537 69.0788419,167.055433 70.0416222,167.551408 C71.0023496,168.04533 71.7085254,168.764135 72.1601494,169.702689 C72.6097206,170.643297 72.8396382,171.746149 72.8478496,173.009192 C72.8560609,174.273263 72.748287,175.5743 72.5265807,176.911277 Z M81.3845698,169.412087 C81.1187274,167.461044 80.4648991,165.796497 79.436428,164.408176 C79.4107676,164.373263 79.3912656,164.334242 79.3645787,164.300356 C78.2899189,162.892525 76.7667143,161.855391 74.7970177,161.185876 C72.8232155,160.519441 70.3300457,160.365411 67.3164819,160.726868 C64.4486694,161.06984 61.8641484,161.830747 59.560866,163.009587 C57.2575835,164.190481 55.2550416,165.659924 53.5593987,167.42305 C51.8606766,169.183096 50.4811705,171.145434 49.4188277,173.305956 C48.3564849,175.465452 47.6318336,177.7225 47.2407683,180.071966 C46.8568879,182.378303 46.8004349,184.541906 47.0693564,186.566883 C47.338278,188.589806 48.0075027,190.315965 49.0780569,191.747414 C50.1475846,193.178863 51.6820798,194.227291 53.6784632,194.891673 C55.6758731,195.555027 58.2049675,195.704949 61.2698523,195.337332 C64.3840051,194.96458 67.0968284,194.165679 69.4083222,192.941657 C71.7187896,191.715581 73.6864332,190.215332 75.3153589,188.43783 C75.7957227,187.913102 76.2381089,187.365783 76.6609932,186.807169 C77.6709887,185.473272 78.5249687,184.046958 79.2054839,182.51693 C80.1723699,180.345112 80.8487795,178.107574 81.2316334,175.802264 C81.6062761,173.543162 81.657597,171.412418 81.3845698,169.412087 Z M54.829078,156.323673 C56.8100652,156.086467 58.2829753,155.481644 59.246782,154.50715 C59.3463445,154.406517 59.4243523,154.30075 59.5157036,154.198064 C60.307072,153.308799 60.8059112,152.351762 60.9783495,151.317709 C60.9886137,151.250963 60.996825,151.172921 61.0070892,151.104121 C61.0543044,150.797089 61.0994668,150.483895 61.1364179,150.147084 C61.1795275,149.735311 61.2113464,149.324565 61.2318748,148.915873 L47.4491312,150.566044 L27.543803,152.947343 L26.6805853,153.051056 C24.7488662,153.282101 23.2626127,153.900273 22.2218246,154.905573 C21.9313483,155.185907 21.682955,155.471376 21.4602223,155.758898 C20.8813224,156.505428 20.516944,157.275576 20.3835096,158.074477 C20.3075547,158.535539 20.2531545,158.926774 20.2254412,159.246129 C20.1956751,159.565484 20.1884901,159.974176 20.2049128,160.468098 L35.8085223,158.600231 L29.2312345,198.155048 L37.9239703,197.114834 L39.2306006,189.261375 L42.6783394,168.521795 L44.5012581,157.560018 L54.7582552,156.331888 L54.829078,156.323673 Z M306.435998,88.2651552 C306.135258,90.0755171 305.358259,91.9053895 304.057787,93.8708079 C302.852772,95.6975996 301.423998,97.1999022 299.820733,98.3345874 C298.894904,98.9856194 297.87567,99.4230636 296.827698,99.6530813 C297.310114,99.9549794 297.763791,100.310274 298.178464,100.711778 C298.836398,101.348434 299.432747,102.082642 300.001383,102.955477 C300.497143,103.723572 300.916948,104.511177 301.267983,105.324453 C301.272088,105.337803 301.278247,105.350125 301.283379,105.362447 C301.63544,106.189073 301.916679,107.03829 302.120936,107.884426 C302.470945,109.350789 302.534583,110.793533 302.313903,112.177746 C301.962868,114.278711 301.000088,116.184571 299.357818,118.049357 C298.150751,119.425355 296.629599,120.629867 294.714302,121.722451 C293.152094,122.617876 291.360994,123.401374 289.251705,124.10991 C287.159864,124.815366 284.761125,125.330852 282.12631,125.647126 C280.956193,125.785753 279.742967,125.856607 278.498948,125.856607 C277.319593,125.856607 276.10842,125.792941 274.877744,125.667664 C272.784878,125.452022 270.828524,124.896488 268.994315,124.083212 C268.978919,124.388191 268.977892,124.693169 268.926572,124.999175 L268.331249,128.578824 C269.012791,128.421714 269.699464,128.276926 270.408719,128.192723 C271.372526,128.074634 272.385601,128.031505 273.425363,128.052043 C274.974228,128.091064 276.45227,128.369344 277.818432,128.880722 C277.819459,128.880722 277.823565,128.881749 277.826644,128.883803 C278.719628,129.218561 279.541789,129.671408 280.299285,130.202297 C281.219982,130.849221 282.039064,131.617316 282.705209,132.513769 C284.303343,134.678399 284.927405,137.382133 284.472702,140.144398 C284.16375,141.981458 283.471944,143.842136 282.350069,145.860952 C281.508406,147.37763 280.689324,148.666345 279.848688,149.803084 C277.42942,153.06954 273.023007,154.030685 269.496234,152.245995 L266.195273,172.09631 C265.59995,175.680067 262.695187,178.440278 259.066798,178.875669 L250.373036,179.917936 C250.044582,179.956957 249.715102,179.97544 249.388701,179.97544 C248.068727,179.97544 246.793916,179.62528 245.63509,179.031752 C245.429806,179.148815 245.235813,179.267931 245.021292,179.381913 C243.812171,180.029864 242.414189,180.605935 240.9382,181.141958 C240.42807,181.326794 239.943601,181.526006 239.404731,181.696465 C237.28723,182.35982 234.992159,182.843473 232.572892,183.129968 C231.164646,183.300427 229.77077,183.38463 228.401528,183.38463 C226.811606,183.38463 225.255556,183.270648 223.744669,183.042684 C220.976419,182.623724 218.487355,181.702626 216.298005,180.31944 C215.613384,181.666686 214.565411,182.782888 213.284441,183.57152 C212.290868,184.183531 211.167966,184.609679 209.950634,184.754467 L201.407756,185.777224 C198.839657,186.085284 196.273612,185.173428 194.484565,183.31583 C194.329576,183.152559 194.180745,182.986207 194.0391,182.812667 C192.85256,185.30384 190.445609,187.087503 187.589088,187.430476 L178.895325,188.472743 C178.566872,188.511764 178.237391,188.530248 177.91099,188.530248 C177.101146,188.530248 176.31491,188.373137 175.550228,188.144147 C174.369848,188.751024 173.10838,189.312718 171.713477,189.775834 C171.193083,189.947321 170.632659,190.073625 170.085578,190.217386 C168.738917,190.571654 167.345041,190.870472 165.866999,191.047092 C164.654799,191.192907 163.506237,191.264788 162.417208,191.264788 C159.150118,191.264788 156.420872,190.607594 154.142224,189.279859 C153.809665,189.086808 153.496607,188.874247 153.184576,188.659633 C152.222822,189.406163 151.155347,190.102377 149.928777,190.758543 C149.691675,190.884848 149.414542,190.992668 149.168201,191.114865 C147.697344,191.842912 146.091,192.510374 144.305032,193.076176 C142.196769,193.739531 139.903751,194.222157 137.474219,194.513786 C136.057762,194.681165 134.660807,194.765368 133.291565,194.765368 C131.697537,194.765368 130.139434,194.652413 128.6306,194.424449 C125.919829,194.012677 123.471822,193.12752 121.316343,191.791569 C120.912961,193.264092 120.439782,194.677058 119.907071,196.024304 C119.885517,196.078728 119.868067,196.136232 119.846513,196.189629 C118.556305,199.407822 116.731333,202.286123 114.417787,204.753678 C112.081659,207.245878 109.189212,209.302687 105.823587,210.868656 C102.617057,212.359663 98.8275207,213.373178 94.5596738,213.882502 C92.5366035,214.124842 90.7147112,214.244986 89.0447288,214.244986 C88.3108398,214.244986 87.6067169,214.222395 86.9272281,214.176186 C84.4412432,214.002646 82.3781426,213.60833 80.6075712,212.964486 C78.0415257,212.035173 76.0369309,210.617074 74.6471607,208.751261 C72.9043026,206.402822 72.2073646,203.588187 72.6692528,200.812573 C72.6938868,200.668812 72.7452078,200.526077 72.7749739,200.382316 C71.3154072,201.116524 69.7716742,201.7501 68.1222202,202.245048 C66.2746674,202.799555 64.3142086,203.201059 62.2521345,203.447507 C60.8243868,203.62002 59.4705412,203.70525 58.1803335,203.70525 C55.5609142,203.70525 53.2104165,203.349954 51.0672553,202.638337 C49.0298152,201.960607 47.2489796,200.992274 45.6847183,199.799057 C45.1817734,201.235641 44.2785253,202.466851 43.1248313,203.408486 C41.9434239,204.371685 40.5043856,205.032985 38.9083053,205.225009 L30.2155696,206.266249 C29.8881422,206.30527 29.5576355,206.323754 29.2312345,206.323754 C27.0018542,206.323754 24.8525345,205.423194 23.2913524,203.803829 C21.5023054,201.947258 20.6965672,199.361613 21.1194515,196.824231 L25.9087188,168.01247 L21.1882215,168.578273 C18.8900711,168.853472 16.595,168.158285 14.8459834,166.664197 C13.1985822,165.25842 12.2132207,163.260142 12.0387296,161.121183 C12.0284654,160.987691 11.9884351,160.859333 11.9843295,160.723787 C11.958669,159.867382 11.9750917,159.12804 12.0418089,158.459551 C12.0756807,158.058047 12.1516356,157.457331 12.2696737,156.751875 C12.2717266,156.74058 12.2758322,156.728258 12.2778851,156.716962 C10.1850183,156.621464 8.18350285,155.761978 6.71059273,154.234004 C4.92154581,152.376406 4.11580752,149.791789 4.53869182,147.254407 L12.196798,101.197485 C12.7407997,97.9217879 15.2247317,95.2991763 18.4836095,94.5639414 C20.7324918,94.0556435 23.0686196,93.5925277 25.4324607,93.1910237 C27.7778263,92.7895197 29.9877047,92.4650306 31.9994844,92.2257712 C37.2485871,91.5952764 41.585204,91.636351 45.2269358,92.3222964 C46.7655366,92.6118722 48.1799409,93.0205642 49.4742543,93.5514531 C50.0890788,90.7686506 52.1111226,88.4859311 54.8465272,87.5648337 C55.494197,87.3471385 56.1901086,87.183867 57.1744436,87.017515 C57.8210871,86.9107211 58.4461758,86.8224108 59.0681852,86.7484765 C60.3696835,86.5944469 61.6547591,86.5605603 62.8772232,86.6498975 C65.0429656,86.8162496 66.9849488,87.479604 68.6682747,88.6214772 C70.5425143,89.894789 71.9723149,91.7277419 72.8016608,93.9252317 C73.1280617,94.8021739 73.3230812,95.7273787 73.4298287,96.6823626 C73.5694216,97.9248685 73.5437611,99.2248788 73.3158963,100.593689 L73.1834883,101.387455 C74.2058009,101.016757 75.2691701,100.671731 76.3818074,100.361618 C78.4869912,99.7752781 80.6383637,99.3481025 82.7804985,99.0924133 C84.9318711,98.8377509 86.8502467,98.7638167 88.6136332,98.8356972 C89.6831609,98.8777987 90.7085527,98.9609747 91.6569631,99.1232192 C92.5458413,99.2772489 93.3875042,99.4928904 94.1932425,99.7526871 C94.4580584,99.59455 94.7177422,99.4292248 95.0041129,99.2998399 C96.1988637,98.7607361 97.5301281,98.3273993 98.9619815,98.0100982 C100.099253,97.7574896 101.190335,97.5675197 102.201357,97.4453228 C106.580057,96.9205951 109.615176,98.3428023 111.377536,99.6294634 C112.578445,100.512567 113.982585,101.891646 114.985396,103.95667 C115.632039,102.737782 116.394668,101.579479 117.259939,100.506406 C118.421844,99.0616074 119.812641,97.7934299 121.387166,96.7491088 C122.596287,95.9471277 123.929604,95.3556538 125.349141,94.9336125 C126.221596,94.6738159 127.118686,94.4643355 128.06299,94.3503536 C128.734268,94.271285 129.406572,94.2394522 130.076823,94.2343179 L132.008542,86.343892 C132.60797,83.8958473 134.308745,81.8595752 136.620239,80.8255227 C137.484483,80.4394217 138.471897,80.1128789 139.82369,79.7647718 C141.022547,79.46082 142.250143,79.2328561 143.493135,79.0860145 C147.114339,78.6393285 150.186408,79.3612141 152.616967,81.2044357 C154.575372,82.6913353 156.055468,84.7810044 156.905342,87.2485595 L159.367719,94.8915111 L166.645024,82.9316216 C168.208259,80.3788367 170.086604,78.4339556 172.242083,77.1298378 C174.273364,75.901708 176.470926,75.1377209 178.781393,74.8604675 C179.986408,74.7177334 181.154472,74.6407185 182.254792,74.6345573 C184.148534,74.6191544 185.615285,74.8522526 186.962972,75.3574699 C189.903661,76.4592954 191.891833,79.1075786 192.21926,82.1234793 C192.276739,82.6492339 192.299321,83.1821765 192.250053,83.7243609 L191.994474,86.5790439 C192.122777,86.5615872 192.232603,86.5348887 192.363985,86.5184589 C193.69217,86.3592949 194.988536,86.3264353 196.219212,86.4157725 C198.357241,86.5718558 200.297171,87.2228879 201.983576,88.350385 C203.182433,89.1585272 204.195508,90.1802573 204.989955,91.3745006 L205.031012,91.1331874 C205.526772,88.1429584 207.649405,85.6723226 210.542878,84.7142582 C210.929837,84.586927 211.584692,84.4010645 212.520786,84.2059603 C213.24749,84.0550112 214.009092,83.92768 214.798408,83.8342354 C216.152253,83.6719908 217.509178,83.6617222 218.828126,83.8044563 C219.093968,83.8342354 219.347493,83.8917398 219.607177,83.935895 C221.33156,84.230605 222.921481,84.8436431 224.329727,85.7976001 C224.411841,85.7390688 224.486769,85.6723226 224.569909,85.6148182 C226.543711,84.2295782 228.758722,83.0825707 231.150276,82.2046016 C233.483325,81.346143 235.889249,80.7669915 238.298252,80.4804963 C240.418832,80.2268608 242.333102,80.1406042 244.083145,80.2032429 C245.785973,80.2638279 247.312257,80.4876844 248.70408,80.8501675 C248.218584,78.9792206 248.155973,77.0117484 248.571672,75.0555717 C249.442075,70.9563291 252.213404,67.6600944 255.848977,65.8209803 C255.960857,65.7655296 256.073763,65.710079 256.187695,65.656682 C257.589782,64.9912739 259.109908,64.5394536 260.698803,64.3422956 L261.170956,62.173558 L261.343394,61.3613083 C261.837101,59.046756 263.20429,57.0649077 265.198621,55.7803003 C267.187819,54.4946661 269.567056,54.0592756 271.884709,54.5480631 L273.312457,54.8468806 L275.077896,55.2165518 L279.449411,56.131488 C282.528666,56.7835469 285.046469,59.0169769 286.041069,61.9599702 C287.037721,64.9060442 286.385945,68.1930371 284.34132,70.5425028 L283.778843,71.1914811 C282.037011,73.1969472 279.723465,74.5483007 277.211819,75.1377209 L276.716059,77.4142792 C277.390416,77.113408 278.068878,76.8371815 278.752473,76.5927877 C281.467349,75.6244546 283.85993,75.0247658 286.073914,74.7629154 C286.213507,74.7454587 286.342836,74.7495662 286.481402,74.7341632 C288.647144,74.4990113 290.720509,74.4589635 292.630673,74.6509872 C294.855948,74.8779242 296.774324,75.3215296 298.507944,76.0115825 C300.709611,76.8926321 302.50379,78.1022784 303.860715,79.6138228 C306.041854,82.0515988 306.952287,85.1198696 306.435998,88.2651552 Z M72.1334625,67.7258138 C72.7688154,70.298109 74.1257402,72.5489958 75.9948478,74.2700205 L75.9948478,90.334287 C75.0187241,88.5516504 73.6987503,87.0226493 72.1334625,85.7626867 L72.1334625,67.7258138 Z M88.4627497,77.5210731 L88.4627497,94.4263415 C87.2402856,94.3904013 85.9593157,94.4129923 84.6013644,94.5105444 L84.6013644,77.7654669 C84.7768819,77.7716281 84.9482938,77.7911385 85.1258641,77.7911385 C85.635994,77.7911385 86.1533087,77.7634131 86.6675442,77.7100162 L88.4627497,77.5210731 Z M100.929625,76.2138748 L100.929625,93.18897 C99.9873733,93.3234892 99.0112495,93.4918949 97.9981748,93.7178051 C97.6779323,93.7886588 97.380271,93.8882646 97.0682399,93.9704138 L97.0682399,76.6184593 L100.929625,76.2138748 Z M113.397527,74.9056495 L113.397527,95.6780892 C112.363924,94.991117 111.079875,94.3174939 109.536142,93.8040617 L109.536142,75.3102341 L113.397527,74.9056495 Z M125.864403,73.5974243 L125.864403,90.3055348 C124.520821,90.5745732 123.23164,90.962728 122.004044,91.4761602 L122.004044,74.0030358 L125.864403,73.5974243 Z M138.332304,72.290226 L138.332304,75.6111054 C136.922006,75.9879646 135.810395,76.363797 134.802452,76.8145904 C134.68852,76.8659337 134.583825,76.931653 134.470919,76.9860768 L134.470919,72.6958374 L138.332304,72.290226 Z M150.800206,70.9830276 L150.800206,75.3893027 C149.659856,75.0196315 148.379912,74.743405 146.938821,74.629423 L146.938821,71.3876122 L150.800206,70.9830276 Z M163.267082,69.6748024 L163.267082,80.0553744 C163.133647,80.2607473 162.984817,80.4425023 162.855488,80.6550632 L160.553232,84.4390585 C160.222725,83.6822595 159.83166,82.9644813 159.406723,82.2734015 L159.406723,70.0804138 L163.267082,69.6748024 Z M175.734984,68.3665771 L175.734984,70.9707052 C174.409878,71.3003287 173.118644,71.7459878 171.873598,72.3343811 L171.873598,68.7721886 L175.734984,68.3665771 Z M188.201859,67.0593788 L188.201859,71.1401378 C187.001976,70.7232309 185.731271,70.4593268 184.3415,70.3340493 L184.3415,67.4639633 L188.201859,67.0593788 Z M200.669761,65.7511535 L200.669761,82.8720635 C199.432927,82.459264 198.13964,82.1809837 196.808376,82.0639212 L196.808376,66.1557381 L200.669761,65.7511535 Z M213.137663,58.9646068 L213.137663,79.6518167 C212.626507,79.732939 212.099954,79.8007121 211.612406,79.9023717 C210.684523,80.0943953 209.94345,80.2884727 209.276278,80.5030873 L209.276278,62.7609244 C210.758426,61.7104422 212.067109,60.4258348 213.137663,58.9646068 Z M76.331513,57.4551162 C76.7697935,56.7660902 77.2676064,56.116085 77.8187929,55.510235 C79.4702998,53.6967925 81.5929327,52.2992301 83.9608794,51.5660489 C84.1702688,51.5013564 84.386843,51.4551476 84.6013644,51.4017506 C85.1905285,51.2508015 85.7889303,51.1286047 86.4017019,51.0639122 L88.4627497,50.8472438 L97.0682399,49.94463 L100.929625,49.5400455 L109.536142,48.6374317 L113.397527,48.2318202 L122.004044,47.3292064 L125.864403,46.923595 L134.470919,46.0209812 L138.332304,45.6163966 L146.938821,44.7137829 L150.800206,44.3081714 L159.406723,43.4055576 L163.267082,43.0009731 L171.873598,42.0983593 L175.734984,41.6927478 L184.3415,40.790134 L188.201859,40.3855495 L196.808376,39.4829357 L200.669761,39.0773242 L201.557613,38.9838796 L201.560692,38.9838796 C201.984603,38.9397244 202.402355,38.9181603 202.814975,38.9171334 C203.20912,38.9171334 203.598132,38.9366438 203.980986,38.9736109 C204.073364,38.9828527 204.161636,39.0023631 204.252987,39.0136586 C204.541411,39.048572 204.827781,39.0875929 205.107993,39.1430436 C205.243481,39.1707689 205.374862,39.2097897 205.509323,39.2416225 C205.739241,39.2970732 205.968132,39.351497 206.191891,39.4202969 C206.336616,39.4644521 206.475182,39.5199028 206.616828,39.5691923 C206.821085,39.6420996 207.026369,39.7139802 207.224468,39.798183 C207.368166,39.858768 207.506733,39.9285948 207.648378,39.995341 C207.835187,40.0846782 208.021995,40.1740154 208.203671,40.2736212 C208.342237,40.3496092 208.475672,40.4327852 208.611159,40.5149344 C208.783597,40.6196745 208.955009,40.7264684 209.120262,40.8404504 C209.251644,40.9308145 209.377893,41.0263128 209.504143,41.1218112 C209.663237,41.2429812 209.820279,41.366205 209.972189,41.4955899 C210.093307,41.5982763 210.210318,41.7060971 210.32733,41.8139178 C210.472055,41.9494639 210.612674,42.0880906 210.750214,42.2318516 C210.861067,42.3478873 210.968841,42.4659767 211.073536,42.5861198 C211.203891,42.736042 211.328088,42.8890448 211.450231,43.0461551 C211.548768,43.1724594 211.646277,43.3008175 211.738655,43.4312292 C211.853614,43.5955275 211.962414,43.7639333 212.068135,43.9354196 C212.152302,44.0709657 212.237494,44.205485 212.315502,44.3451385 C212.416091,44.5248398 212.507442,44.7096754 212.597767,44.8955378 C212.666537,45.0372451 212.738386,45.1779256 212.800998,45.3237403 C212.885164,45.5188445 212.95804,45.7211368 213.031942,45.9234291 C213.085316,46.0692438 213.142795,46.2130049 213.19001,46.3629271 C213.256728,46.5765148 213.310101,46.7983176 213.364501,47.0190934 C213.401452,47.1649081 213.443536,47.3066154 213.474328,47.4555108 C213.524623,47.7029851 213.558494,47.9576474 213.593393,48.2123098 C213.610842,48.3406679 213.636502,48.4659453 213.649846,48.597384 C213.68885,48.9855387 213.710404,49.3798546 213.710404,49.7823855 C213.710404,53.5181181 211.98089,57.0525853 209.276278,59.5550538 C208.675823,60.1116143 208.027127,60.6158047 207.3384,61.0614639 C206.993524,61.2842935 206.639409,61.4917201 206.276057,61.6827168 C204.823676,62.4487577 203.228622,62.9550018 201.557613,63.1305956 L86.4017019,75.2106283 C85.9777912,75.2547834 85.5569598,75.2753207 85.1433132,75.2763476 C85.1371547,75.2763476 85.1309962,75.2773745 85.1258641,75.2773745 C84.9482938,75.2773745 84.7758555,75.2599178 84.6013644,75.2527297 L84.6013644,75.250676 C84.3940279,75.2414342 84.1846386,75.2404073 83.9803814,75.2208969 C83.8797924,75.2106283 83.7833091,75.190091 83.6837465,75.1777686 C83.4035344,75.1428552 83.1243486,75.1058881 82.8523478,75.0504374 C82.7137813,75.023739 82.5813734,74.9836912 82.4448598,74.9508316 C82.2180213,74.8964078 81.9891301,74.8430108 81.7684502,74.7742109 C81.6226988,74.7300557 81.4820795,74.6735782 81.3383809,74.6232618 C81.1361766,74.5513813 80.9329458,74.4805277 80.7358735,74.3973517 C80.5901221,74.3357398 80.4505292,74.2648862 80.3078571,74.1971131 C80.1220754,74.1088028 79.9362937,74.0204924 79.7576969,73.9208866 C79.6170776,73.8448986 79.4815904,73.7606958 79.3461032,73.6785466 C79.1757178,73.5738064 79.0053324,73.4680394 78.8411055,73.3550843 C78.7086975,73.2636934 78.5803952,73.1671681 78.452093,73.069616 C78.295051,72.9504998 78.1390354,72.8283029 77.9891783,72.6999448 C77.8670346,72.5962315 77.7489965,72.4884108 77.6309584,72.3785363 C77.4872598,72.2440171 77.3456141,72.1053904 77.2091005,71.9626562 C77.0992738,71.8466205 76.9914999,71.729558 76.8868052,71.608388 C76.7554237,71.4584658 76.6302007,71.305463 76.5090833,71.1473259 C76.4105472,71.0210216 76.3140638,70.8936904 76.2206598,70.7622517 C76.142652,70.6503235 76.0697763,70.533261 75.9948478,70.4172253 L75.9948478,70.4305746 C75.9589231,70.3751239 75.9271042,70.3165926 75.8911795,70.2601151 C75.8070133,70.124569 75.7218205,69.987996 75.6438128,69.8483424 C75.5432238,69.669668 75.4518726,69.4858593 75.3615478,69.29897 C75.2927777,69.1572627 75.2209285,69.0165823 75.1583169,68.8697407 C75.0741507,68.6746364 75.001275,68.4743979 74.9273729,68.2721056 C74.8750255,68.125264 74.8175461,67.981503 74.7703309,67.8315808 C74.7025873,67.617993 74.6492135,67.3972172 74.5948134,67.1774682 C74.5588887,67.0306266 74.5157792,66.8878924 74.4849866,66.7389971 C74.4346921,66.4915228 74.4008203,66.2368604 74.3669485,65.9832249 C74.3494994,65.85384 74.3228125,65.7275357 74.3094691,65.5971239 C74.2704652,65.2089691 74.2489104,64.8136264 74.2489104,64.4121224 C74.2489104,61.9219762 75.0176977,59.5201404 76.331513,57.4551162 Z M307.165782,76.6872593 C305.351074,74.6663901 303.003656,73.069616 300.152266,71.926716 C298.031686,71.0846872 295.723272,70.5445565 293.077165,70.275518 C292.008664,70.1687241 290.89808,70.1255958 289.759782,70.131757 C291.087967,67.1466622 291.308647,63.7241232 290.238093,60.5603541 C288.74876,56.1489447 284.975647,52.8054742 280.362923,51.8278993 L272.805406,50.2465282 C269.328927,49.5082127 265.767256,50.1674596 262.786538,52.0897497 C261.336209,53.0262501 260.111692,54.2122784 259.146859,55.5769812 L259.146859,26.9295185 C259.146859,24.7556466 257.355759,22.9771175 255.167436,22.9771175 L254.518739,22.9771175 C252.329389,22.9771175 250.540342,24.7556466 250.540342,26.9295185 L250.540342,64.0260214 C249.023296,65.2428557 247.736168,66.7143523 246.678957,68.3511742 L246.678957,45.4993341 C246.678957,43.3254622 244.887857,41.5469331 242.70056,41.5469331 L242.050837,41.5469331 C239.862514,41.5469331 238.07244,43.3254622 238.07244,45.4993341 L238.07244,76.0875705 C237.968772,76.098866 237.875368,76.0998928 237.770673,76.1132421 C236.580028,76.2539225 235.391436,76.4705909 234.211055,76.7365487 L234.211055,35.3734244 C234.211055,33.2005793 232.420982,31.4220502 230.232658,31.4220502 L229.582935,31.4220502 C227.394612,31.4220502 225.604538,33.2005793 225.604538,35.3734244 L225.604538,79.892103 C225.096461,80.1590877 224.577094,80.4096427 224.087492,80.6992184 C223.329996,80.3757561 222.548891,80.1046639 221.74418,79.8900493 L221.74418,21.4963791 C221.74418,19.3225072 219.95308,17.543978 217.764756,17.543978 L217.11606,17.543978 C214.927736,17.543978 213.137663,19.3225072 213.137663,21.4963791 L213.137663,41.1392679 C212.067109,39.8618486 210.761505,38.7918559 209.276278,37.996036 L209.276278,3.95240102 C209.276278,1.77852912 207.485178,0 205.297881,0 L204.648158,0 C202.459834,0 200.669761,1.77852912 200.669761,3.95240102 L200.669761,36.550211 L196.808376,36.9547955 L196.808376,20.3473178 C196.808376,18.1734459 195.018302,16.3938899 192.829979,16.3938899 L192.180256,16.3938899 C189.992959,16.3938899 188.201859,18.1734459 188.201859,20.3473178 L188.201859,37.8574093 L184.3415,38.2630208 L184.3415,27.826998 C184.3415,25.6531261 182.550401,23.8756239 180.363103,23.8756239 L179.713381,23.8756239 C177.525057,23.8756239 175.734984,25.6531261 175.734984,27.826998 L175.734984,39.1656346 L171.873598,39.5702191 L171.873598,10.5263868 C171.873598,8.35148806 170.083525,6.57295894 167.895201,6.57295894 L167.245479,6.57295894 C165.058182,6.57295894 163.267082,8.35148806 163.267082,10.5263868 L163.267082,40.4738598 L159.406723,40.8784444 L159.406723,21.7212624 C159.406723,19.5473905 157.615623,17.7688613 155.4273,17.7688613 L154.778603,17.7688613 C152.59028,17.7688613 150.800206,19.5473905 150.800206,21.7212624 L150.800206,41.7810582 L146.938821,42.1866696 L146.938821,32.6933083 C146.938821,30.5194364 145.148748,28.7409073 142.960424,28.7409073 L142.310701,28.7409073 C140.122378,28.7409073 138.332304,30.5194364 138.332304,32.6933083 L138.332304,43.0882565 L134.470919,43.493868 L134.470919,22.1833513 C134.470919,20.0094794 132.680846,18.2309503 130.492522,18.2309503 L129.842799,18.2309503 C127.655502,18.2309503 125.864403,20.0094794 125.864403,22.1833513 L125.864403,44.3964818 L122.004044,44.8010663 L122.004044,8.94398881 C122.004044,6.7701169 120.21397,4.99158778 118.025647,4.99158778 L117.375924,4.99158778 C115.1876,4.99158778 113.397527,6.7701169 113.397527,8.94398881 L113.397527,45.7036801 L109.536142,46.1092916 L109.536142,33.5117193 C109.536142,31.3388742 107.746068,29.5603451 105.557745,29.5603451 L104.908022,29.5603451 C102.720725,29.5603451 100.929625,31.3388742 100.929625,33.5117193 L100.929625,47.0119053 L97.0682399,47.4175168 L97.0682399,24.6981422 C97.0682399,22.5252972 95.2781665,20.7467681 93.0898429,20.7467681 L92.4411466,20.7467681 C90.252823,20.7467681 88.4627497,22.5252972 88.4627497,24.6981422 L88.4627497,48.3201306 L86.1358596,48.5645243 C85.6175184,48.6189481 85.1053357,48.7021241 84.6013644,48.808918 L84.6013644,46.0507603 C84.6013644,43.8768884 82.8112911,42.0983593 80.6229675,42.0983593 L79.9732447,42.0983593 C77.7849211,42.0983593 75.9948478,43.8768884 75.9948478,46.0507603 L75.9948478,53.7871566 C74.1247138,55.8265092 72.7708682,58.319736 72.1334625,61.0142281 L72.1334625,35.1043859 C72.1334625,32.930514 70.3433892,31.1519849 68.1550656,31.1519849 L67.5063693,31.1519849 C65.3180456,31.1519849 63.5279723,32.930514 63.5279723,35.1043859 L63.5279723,82.3093418 C63.419172,82.2990731 63.3144773,82.2723747 63.205677,82.2641597 C62.0550622,82.17893 60.8644171,82.2107628 59.6655606,82.3001 L59.6655606,19.2537072 C59.6655606,17.0798353 57.8754873,15.3013062 55.6871637,15.3013062 L55.0384674,15.3013062 C52.8501437,15.3013062 51.0600704,17.0798353 51.0600704,19.2537072 L51.0600704,84.5191539 C49.5317337,85.4248483 48.216892,86.6211453 47.1986851,88.0464331 L47.1986851,45.7581039 C47.1986851,43.584232 45.4086118,41.8057029 43.2202882,41.8057029 L42.5705655,41.8057029 C40.3822418,41.8057029 38.5921685,43.584232 38.5921685,45.7581039 L38.5921685,87.4179921 C37.356361,87.4241533 36.0723118,87.471389 34.7307832,87.5689412 L34.7307832,69.0484151 C34.7307832,66.87557 32.9407099,65.0960141 30.7523863,65.0960141 L30.10369,65.0960141 C27.9153664,65.0960141 26.125293,66.87557 26.125293,69.0484151 L26.125293,88.6255846 C25.6408236,88.7036263 25.1789354,88.7703725 24.6831755,88.8545754 C22.2413265,89.2714823 19.8251381,89.7479474 17.5013273,90.273702 C12.4883008,91.4073602 8.66591941,95.4419104 7.82733574,100.480734 L0.169229534,146.537655 C-0.47946677,150.43974 0.758393582,154.417813 3.5112472,157.275576 C4.67520544,158.483169 6.05573792,159.423777 7.55636133,160.08097 C7.55636133,160.33974 7.55020282,160.586187 7.55841417,160.86036 C7.67132017,164.386612 9.26637406,167.702357 11.9607218,170.00048 C14.3625404,172.054209 17.4356365,173.105718 20.5877668,173.02973 L16.7499892,196.10748 C16.1012929,200.009565 17.3391532,203.987637 20.0930333,206.846428 C22.4938254,209.338628 25.8019713,210.722841 29.2291817,210.722841 C29.7341794,210.722841 30.2391772,210.694089 30.7462278,210.633504 L39.4379371,209.592263 C42.4340518,209.232861 45.0842636,207.820922 47.0621715,205.758978 C47.8997288,206.150214 48.76192,206.509616 49.6620888,206.808434 C50.1188449,206.959383 50.5899709,207.08158 51.0600704,207.206857 L51.0600704,209.746293 C51.0600704,211.920165 52.8501437,213.698694 55.0384674,213.698694 L55.6871637,213.698694 C57.8754873,213.698694 59.6655606,211.920165 59.6655606,209.746293 L59.6655606,208.055047 C60.677609,208.012946 61.7081328,207.943119 62.7807399,207.814761 C64.8530782,207.567287 66.825854,207.154487 68.720622,206.625652 C69.2174084,208.29636 69.9985126,209.900322 71.0885688,211.367712 C73.0028387,213.936926 75.6951337,215.865378 79.0884722,217.097615 C81.2542147,217.883166 83.7145391,218.361685 86.6234083,218.563977 C87.4024597,218.617374 88.2071715,218.644073 89.042676,218.644073 C90.8922816,218.644073 92.8896914,218.511607 95.0882792,218.249757 C99.8231463,217.683954 104.066359,216.542081 107.702959,214.851862 C109.757848,213.894825 111.653643,212.76322 113.397527,211.489908 L113.397527,220.056011 C113.397527,222.229883 115.1876,224.008412 117.375924,224.008412 L118.025647,224.008412 C120.21397,224.008412 122.004044,222.229883 122.004044,220.056011 L122.004044,201.799389 C122.731774,200.520943 123.404078,199.20553 123.961423,197.816182 C123.964502,197.808994 123.966555,197.801806 123.969635,197.794618 C124.591644,197.995884 125.221865,198.180719 125.864403,198.342964 L125.864403,206.816649 C125.864403,208.990521 127.655502,210.76905 129.842799,210.76905 L130.492522,210.76905 C132.680846,210.76905 134.470919,208.990521 134.470919,206.816649 L134.470919,199.129542 C135.63693,199.093602 136.813206,199.021721 138.003851,198.878987 C138.400048,198.831751 138.771611,198.746521 139.16165,198.690044 C139.890407,199.636813 141.025626,200.259093 142.310701,200.259093 L142.960424,200.259093 C144.972204,200.259093 146.628843,198.750629 146.886474,196.819097 C148.275218,196.332363 149.578769,195.794286 150.800206,195.207947 L150.800206,207.278738 C150.800206,209.45261 152.59028,211.231139 154.778603,211.231139 L155.4273,211.231139 C157.615623,211.231139 159.406723,209.45261 159.406723,207.278738 L159.406723,195.46569 C160.369503,195.583779 161.35897,195.664901 162.402838,195.664901 C162.685103,195.664901 162.979685,195.645391 163.267082,195.637176 L163.267082,218.47464 C163.267082,220.648512 165.058182,222.427041 167.245479,222.427041 L167.895201,222.427041 C170.083525,222.427041 171.873598,220.648512 171.873598,218.47464 L171.873598,194.285823 C172.284166,194.167733 172.715261,194.079423 173.114538,193.947984 C174.025997,193.646086 174.891268,193.299006 175.734984,192.936523 L175.734984,201.173002 C175.734984,203.346874 177.525057,205.125403 179.713381,205.125403 L180.363103,205.125403 C182.550401,205.125403 184.3415,203.346874 184.3415,201.173002 L184.3415,192.250577 L188.119746,191.798757 C188.147459,191.79465 188.174146,191.785408 188.201859,191.782327 L188.201859,208.653709 C188.201859,210.827581 189.992959,212.60611 192.180256,212.60611 L192.829979,212.60611 C195.018302,212.60611 196.808376,210.827581 196.808376,208.653709 L196.808376,189.688551 C198.053421,190.057195 199.352867,190.226628 200.669761,190.201983 L200.669761,225.048626 C200.669761,227.221471 202.459834,229 204.648158,229 L205.297881,229 C207.485178,229 209.276278,227.221471 209.276278,225.048626 L209.276278,189.266509 L210.481293,189.121722 C211.407122,189.01082 212.285736,188.767453 213.137663,188.468636 L213.137663,207.504648 C213.137663,209.677493 214.927736,211.456022 217.11606,211.456022 L217.764756,211.456022 C219.95308,211.456022 221.74418,209.677493 221.74418,207.504648 L221.74418,187.103933 C222.190672,187.198405 222.621767,187.321628 223.081603,187.391455 C223.911975,187.516733 224.754664,187.608123 225.604538,187.672816 L225.604538,193.626576 C225.604538,195.800448 227.394612,197.578977 229.582935,197.578977 L230.232658,197.578977 C232.420982,197.578977 234.211055,195.800448 234.211055,193.626576 L234.211055,187.316494 C235.950834,187.065939 237.623896,186.716805 239.232293,186.281415 C239.953865,187.0033 240.951543,187.453067 242.050837,187.453067 L242.70056,187.453067 C244.706181,187.453067 246.359741,185.953845 246.624557,184.030528 C247.527805,184.235901 248.448502,184.373501 249.386648,184.373501 C249.770529,184.373501 250.155435,184.340641 250.540342,184.305728 L250.540342,202.070481 C250.540342,204.244353 252.329389,206.022882 254.518739,206.022882 L255.167436,206.022882 C257.355759,206.022882 259.146859,204.244353 259.146859,202.070481 L259.146859,183.297347 L259.597456,183.24395 C265.180145,182.574434 269.647117,178.325269 270.563709,172.814088 L273.106146,157.529212 C273.142071,157.531266 273.177996,157.531266 273.214947,157.531266 C277.101993,157.531266 280.935664,155.757871 283.414464,152.410293 C284.371086,151.119524 285.291783,149.672672 286.228903,147.984507 C287.595066,145.523113 288.448019,143.2024 288.842164,140.852934 C289.489834,136.915936 288.58248,133.036442 286.264828,129.901426 C286.159107,129.758691 286.028752,129.637521 285.917898,129.497868 C287.600198,129.175432 289.182935,128.778036 290.670215,128.275899 C293.05869,127.475972 295.1105,126.574385 296.921102,125.535198 C299.267494,124.19514 301.160209,122.689757 302.691625,120.943061 C304.861473,118.479613 306.198896,115.788201 306.686444,112.87088 C307.000528,110.914703 306.914309,108.896914 306.426761,106.862696 C306.168103,105.780381 305.808857,104.70012 305.361338,103.650664 C305.35518,103.631154 305.345942,103.610617 305.337731,103.592133 C304.922031,102.627907 304.429351,101.694488 303.850451,100.77339 C305.310018,99.5144546 306.620754,98.0111251 307.760078,96.2859929 C309.405426,93.7948199 310.401052,91.4104408 310.804434,88.9736916 C311.532165,84.5612554 310.209112,80.089261 307.165782,76.6872593 Z M168.591113,62.7876229 C168.400199,63.1028703 168.284214,63.3883386 168.243157,63.6573771 C168.139489,64.3001942 168.443309,64.7776861 169.07353,64.9645754 C169.3599,65.0498052 169.691433,65.0929335 170.073261,65.0929335 C170.330892,65.0929335 170.61213,65.0723962 170.91903,65.0344022 C171.60673,64.9471187 172.233871,64.7735786 172.781979,64.5219969 C173.328033,64.271442 173.820714,63.9551677 174.244624,63.5844697 C174.669562,63.2147985 175.04831,62.7896766 175.370605,62.3224534 C175.689821,61.8593375 175.98543,61.3551471 176.249219,60.818097 L182.56785,47.6649911 L182.056693,47.5273913 C181.592752,47.4031407 181.117521,47.3723347 180.643316,47.4298392 C180.188612,47.4873436 179.786256,47.6331583 179.447538,47.8600953 C179.131402,48.0706025 178.850163,48.3303992 178.612034,48.6312705 C178.384169,48.9177657 178.190176,49.2289056 178.03724,49.5523678 C177.891488,49.8532391 177.75908,50.1397343 177.637963,50.4056921 L175.274122,55.5092081 L174.300051,49.9682479 C174.218964,49.4445471 173.993152,49.0450968 173.628774,48.7822196 C173.269527,48.5224229 172.803533,48.4187096 172.229766,48.4967513 C171.97624,48.528584 171.698081,48.5789004 171.392208,48.6487272 C171.076072,48.7226614 170.791754,48.8171329 170.54644,48.930088 L170.225171,49.0759028 L172.520242,59.7737759 L173.34035,59.6690358 L173.143278,60.0664323 C172.798401,60.7677807 172.452498,61.2781323 172.115833,61.5800304 C171.804828,61.8624181 171.445582,62.0277433 171.019618,62.0811402 C170.72401,62.1181073 170.480749,62.1078387 170.285729,62.0462268 C170.068129,61.9815344 169.895691,61.9076001 169.77252,61.8295584 L169.432776,61.6190512 L169.187462,61.9332718 C168.959597,62.2249012 168.760472,62.5113964 168.591113,62.7876229 Z M161.395921,57.8145187 C161.449295,57.4818146 161.584782,57.2025075 161.810594,56.9632481 C162.06104,56.699344 162.359728,56.479595 162.721027,56.2927057 C163.093617,56.1037626 163.511369,55.9517867 163.960941,55.8388316 C164.386904,55.7330646 164.816973,55.6498886 165.236778,55.5923842 L164.963751,57.3134089 C164.961698,57.3288118 164.94117,57.4202028 164.78926,57.5896354 C164.652746,57.7405845 164.470044,57.8905067 164.240126,58.0342677 C164.009182,58.1811093 163.731023,58.3187091 163.417965,58.440906 C163.116198,58.5589954 162.803141,58.6380639 162.48803,58.6770848 C161.999455,58.7356161 161.6515,58.6924877 161.535514,58.546673 C161.392842,58.3679986 161.345627,58.1277123 161.395921,57.8145187 Z M157.951262,59.9555309 C158.145255,60.4196736 158.436758,60.7831836 158.816532,61.0357923 C159.178858,61.2760785 159.608927,61.4290813 160.097502,61.4886395 C160.315103,61.5143111 160.535783,61.5286872 160.755436,61.5286872 C160.992539,61.5286872 161.227589,61.5132842 161.461612,61.4835052 C162.37923,61.3654157 163.181889,61.1323175 163.845982,60.788318 C164.255523,60.5767839 164.629139,60.3426588 164.961698,60.091077 C165.09308,60.3293096 165.271677,60.4771781 165.429745,60.5675421 C165.794123,60.7811299 166.265249,60.8468492 166.833885,60.7811299 C167.261901,60.7256792 167.64065,60.6260734 167.957813,60.4874467 C168.281135,60.3426588 168.524396,60.2009515 168.699913,60.0530831 L168.826163,59.9462892 L169.190541,57.6964293 L168.446388,58.0270796 L168.387882,58.0352945 C168.384803,57.9377424 168.389935,57.781659 168.427913,57.5434265 L169.116639,53.2131394 C169.228519,52.4984418 169.248021,51.8648664 169.170013,51.3298701 C169.083794,50.7383962 168.846691,50.2578237 168.464864,49.8973943 C168.0933,49.5462067 167.578038,49.3141353 166.940633,49.2093951 C166.340178,49.1087624 165.611421,49.1159505 164.697909,49.2299324 C164.105665,49.3059204 163.518554,49.4281173 162.955051,49.589335 C162.387441,49.7515795 161.863968,49.9425763 161.395921,50.1551372 C160.910426,50.3800205 160.524492,50.6059307 160.216567,50.8431364 C159.83166,51.1357927 159.621244,51.4315297 159.57095,51.7457502 C159.537078,51.9613917 159.562739,52.2201615 159.649984,52.5374626 C159.733124,52.8465488 159.869638,53.1309902 160.054393,53.3887332 L160.295601,53.7214373 L160.646636,53.503742 C161.231695,53.1422857 161.793145,52.8362802 162.313539,52.5939402 C162.815458,52.3608419 163.412833,52.1996242 164.088216,52.1164482 C165.055102,51.9973319 165.362001,52.1431467 165.454379,52.2170809 C165.654531,52.3762449 165.636055,52.7869907 165.585761,53.102238 L165.576523,53.1607693 L165.322997,53.1926021 C164.583976,53.2870736 163.804925,53.4400764 163.007398,53.6454493 C162.192422,53.8569834 161.422608,54.1516934 160.717459,54.5244452 C159.993834,54.9054119 159.363613,55.3952262 158.847325,55.9805389 C158.312561,56.5915232 157.969737,57.3359999 157.835277,58.1934317 C157.721344,58.8999144 157.761375,59.4924151 157.951262,59.9555309 Z M148.866434,50.0606657 C149.044005,50.0226717 149.222602,49.9887852 149.400172,49.9559255 C149.678331,49.9076629 149.953411,49.8635078 150.222333,49.8306481 C151.17177,49.7074244 151.933372,49.733096 152.496876,49.9015017 C153.023428,50.0606657 153.404229,50.3091669 153.660834,50.6613814 C153.92565,51.0320794 154.085771,51.4982759 154.135039,52.0455946 C154.188413,52.6422028 154.15762,53.3117184 154.043688,54.0377115 C153.919491,54.8119672 153.720366,55.5513096 153.452471,56.2331475 C153.193814,56.8954751 152.83662,57.486949 152.387049,57.9931931 C151.943636,58.4973835 151.383212,58.925586 150.71604,59.2685587 C150.050921,59.6156388 149.234919,59.8507908 148.286508,59.9709339 L147.269328,60.1013457 L148.866434,50.0606657 Z M152.071938,61.8090212 C153.176364,61.2555413 154.139145,60.5644615 154.93154,59.7511849 C155.727014,58.9348277 156.371604,57.9983274 156.847862,56.9673556 C157.318988,55.9466524 157.649495,54.8581761 157.829118,53.7388939 C157.994372,52.6976535 158.013873,51.7077562 157.885571,50.7948737 C157.75111,49.8470779 157.391864,49.0317476 156.815017,48.3725007 C156.23817,47.7122269 155.400613,47.2306275 154.326979,46.9451592 C153.284138,46.6679058 151.927214,46.6340193 150.300341,46.8373384 C149.748128,46.9061383 149.120986,46.9985561 148.41789,47.1084306 C147.711714,47.219332 146.851576,47.4000601 145.856976,47.6465075 L145.573685,47.7153075 L143.050749,63.5731742 L148.231082,62.9180347 C149.675252,62.734226 150.966486,62.3604473 152.071938,61.8090212 Z M135.677987,57.1850508 L135.677987,57.1829971 C135.719044,56.9221735 135.905852,56.6562157 136.2302,56.3953921 C136.587393,56.1109507 136.973327,55.9466524 137.408528,55.8912017 C137.713374,55.8552614 137.960741,55.8624495 138.141391,55.9158464 C138.333331,55.972324 138.525271,56.0698761 138.712079,56.2033685 L139.069273,56.4621383 L139.329983,56.1058164 C139.545531,55.8069988 139.765184,55.4558112 139.978679,55.063549 C140.213729,54.632266 140.360507,54.246165 140.413881,53.912434 C140.463149,53.5982135 140.405669,53.3281482 140.238363,53.1001843 C140.092612,52.913295 139.899645,52.7746683 139.651252,52.6822505 C139.438783,52.6062625 139.203733,52.565188 138.956367,52.5621074 C138.730555,52.5621074 138.507822,52.5703223 138.298433,52.5980476 C137.93816,52.6422028 137.596363,52.73154 137.280226,52.8640055 C136.973327,52.9923635 136.680798,53.1463932 136.419061,53.321987 C136.156298,53.4934734 135.914063,53.6813895 135.697489,53.882655 C135.686198,53.8929236 135.675934,53.9021654 135.66567,53.912434 C135.539421,53.7522432 135.372114,53.6269657 135.166831,53.541736 C134.769607,53.3733302 134.305666,53.3250676 133.749347,53.3959212 C133.575882,53.4174854 133.418841,53.4400764 133.279248,53.465748 C133.140681,53.4914196 133.005194,53.5211987 132.866628,53.5530315 L132.577178,53.6197777 L130.742968,65.1524916 L134.484263,64.6791071 L135.677987,57.1850508 Z M123.62989,57.7580412 C124.090752,57.3062208 124.627569,57.047451 125.276265,56.9673556 C125.938305,56.881099 126.360163,56.9735168 126.517205,57.2507701 C126.684511,57.5465071 126.747122,57.9531454 126.70196,58.4624701 L122.88779,58.9461233 C123.057149,58.4768462 123.305542,58.0784228 123.62989,57.7580412 Z M118.955582,63.6481353 C119.191658,64.4388209 119.582723,65.0621275 120.117487,65.5016255 C120.648145,65.9339354 121.300947,66.2081082 122.056391,66.3149021 C122.420769,66.3672722 122.799518,66.3949975 123.18853,66.3949975 C123.56112,66.3949975 123.942948,66.3703528 124.332987,66.3210633 C124.985789,66.2368604 125.595481,66.1054218 126.140509,65.9267474 C126.70196,65.7460192 127.175139,65.5478344 127.587759,65.323978 C128.00859,65.0949872 128.354493,64.8495666 128.620335,64.5918236 C128.92005,64.2991673 129.096593,63.9962423 129.146888,63.6902367 C129.19205,63.3996341 129.12636,63.082333 128.944684,62.7167693 C128.796879,62.4200055 128.648049,62.1591819 128.494086,61.9414867 L128.18924,61.5060962 L127.815624,61.8850091 C127.673978,62.0277433 127.509751,62.1766386 127.323969,62.3306683 C127.145372,62.4785367 126.93701,62.6192172 126.682458,62.764005 C126.440223,62.900578 126.156932,63.0309898 125.843874,63.1459986 C125.536975,63.2579268 125.189019,63.3380222 124.809245,63.3862849 C123.857755,63.5023205 123.224455,63.3678013 122.906265,62.976566 C122.611683,62.6120291 122.467985,62.1016775 122.478249,61.4526992 L129.715524,60.5346825 L129.802769,60.272832 C129.865381,60.0869696 129.925939,59.848737 129.982392,59.5519732 C130.032687,59.2757467 130.075796,59.0405948 130.106589,58.8424099 C130.21231,58.1852167 130.217442,57.5506145 130.124038,56.9560601 C130.026528,56.3337803 129.791479,55.790569 129.422994,55.3428561 C129.052457,54.8910358 128.536169,54.556278 127.886446,54.3457708 C127.248014,54.1352636 126.472042,54.0931622 125.532869,54.215359 C124.81643,54.30675 124.090752,54.5069885 123.379444,54.814021 C122.660951,55.124134 121.986595,55.5584976 121.372796,56.1027358 C120.760025,56.6480008 120.230393,57.3103283 119.795192,58.0681542 C119.356911,58.8300876 119.052065,59.7224327 118.89297,60.7205449 C118.707188,61.8921972 118.727717,62.8769601 118.955582,63.6481353 Z M109.328805,67.0809429 L109.330858,67.0809429 C109.885124,67.4649902 110.52253,67.6929541 111.2246,67.7607271 C111.529446,67.7894793 111.828134,67.8048823 112.117584,67.8048823 C112.454249,67.8048823 112.778597,67.784345 113.089602,67.7453242 C113.792698,67.655987 114.421892,67.5173603 114.956656,67.3335516 C115.498605,67.1476891 115.951256,66.9484774 116.338215,66.724621 C116.734413,66.4925496 117.049523,66.2440484 117.274309,65.9852786 C117.522702,65.6987835 117.662295,65.4379599 117.705404,65.1791901 C117.732091,65.0138649 117.719774,64.8341636 117.671532,64.6472743 C117.631502,64.4891372 117.578128,64.3330538 117.510385,64.1790242 C117.442641,64.0239676 117.36566,63.8781529 117.272256,63.7343919 C117.171667,63.5865234 117.082368,63.4766489 116.991017,63.3914192 L116.666669,63.0864405 L116.361823,63.4119565 C116.13909,63.6512159 115.789081,63.9274424 115.317956,64.2355017 C114.873516,64.5261043 114.33362,64.7140205 113.713664,64.7920622 C113.20764,64.8577815 112.801178,64.8321099 112.501464,64.7119668 C112.215093,64.6020923 112.004678,64.4388209 111.856873,64.2149644 C111.699831,63.9798125 111.603348,63.6758606 111.56845,63.3144044 C111.530472,62.9180347 111.549974,62.476483 111.625929,62.0010448 C111.699831,61.5399827 111.820949,61.0974041 111.988255,60.689739 C112.14735,60.2985036 112.36803,59.9411548 112.64311,59.6269343 C112.919216,59.3168213 113.236379,59.0683201 113.615128,58.8691084 C113.98977,58.6719505 114.437289,58.539485 114.942286,58.4747925 C115.53453,58.3957239 116.007709,58.4460403 116.358744,58.6031505 C116.727228,58.77361 117.003334,58.9574188 117.177825,59.1494424 L117.440588,59.4420987 L117.762884,59.213108 C118.056439,59.0036277 118.318176,58.7202131 118.565543,58.342327 C118.810857,57.963414 118.95045,57.6481667 118.993559,57.3791282 C119.051039,57.0238331 118.943265,56.6859947 118.68666,56.4005264 C118.474191,56.1653745 118.168319,55.9682165 117.77828,55.8172675 C117.408769,55.6735065 116.980753,55.5790349 116.465491,55.5297454 C115.964599,55.4835365 115.412386,55.4979126 114.823222,55.5739006 C114.274088,55.6427005 113.636683,55.8090525 112.934612,56.0678224 C112.219199,56.3276191 111.515076,56.7178275 110.836614,57.2312597 C110.158151,57.7477725 109.543327,58.4234493 109.011642,59.2398065 C108.472773,60.068486 108.105315,61.0871355 107.916454,62.2670027 C107.714249,63.5392877 107.756333,64.5671789 108.039624,65.3280854 C108.329074,66.0982337 108.764275,66.6876539 109.328805,67.0809429 Z M100.769504,57.5403459 L101.720994,62.226955 L98.2414359,62.6674798 L100.769504,57.5403459 Z M96.8496128,65.694676 L102.194172,65.0169455 L103.059443,68.6623141 L106.865402,68.1807147 L103.634237,54.4114901 C103.561361,54.0952159 103.434086,53.8343923 103.251383,53.6351806 C103.075866,53.4482913 102.872635,53.3117184 102.636559,53.2223812 C102.427169,53.1484469 102.209569,53.1053186 101.983757,53.0971037 C101.783605,53.0899157 101.586533,53.0991574 101.401778,53.1217484 C101.065112,53.1638499 100.724342,53.2357304 100.389729,53.3343094 C100.05409,53.4318615 99.7872217,53.5345479 99.5675682,53.647503 L99.4433716,53.7111686 L90.9199949,70.2015838 L94.8131991,69.7086889 L96.8496128,65.694676 Z" id="Fill-1"></path>
                </g>
            </g>
        </g>
    </g>
</svg>