<?xml version="1.0" encoding="UTF-8"?>
<svg width="36px" height="30px" viewBox="0 0 36 30" version="1.1" xmlns="http://www.w3.org/2000/svg" xmlns:xlink="http://www.w3.org/1999/xlink">
    <!-- Generator: Sketch 50.2 (55047) - http://www.bohemiancoding.com/sketch -->
    <title>icon_play_share</title>
    <desc>Created with Sketch.</desc>
    <defs></defs>
    <g id="Page-3" stroke="none" stroke-width="1" fill="none" fill-rule="evenodd">
        <path d="M28.141151,25.8088796 C26.3786692,25.8088796 24.9441889,24.5016132 24.9441889,22.895008 C24.9441889,21.2884028 26.3786692,19.980783 28.141151,19.980783 C29.9036328,19.980783 31.3384959,21.2884028 31.3384959,22.895008 C31.3384959,24.5016132 29.9036328,25.8088796 28.141151,25.8088796 M7.06294015,17.5800639 C5.30045834,17.5800639 3.86559529,16.2724441 3.86559529,14.6658389 C3.86559529,13.0595871 5.29969287,11.7519674 7.06294015,11.7519674 C8.8258047,11.7519674 10.2606677,13.0595871 10.2606677,14.6658389 C10.2606677,16.2724441 8.8258047,17.5800639 7.06294015,17.5800639 M28.141151,3.52279826 C29.9036328,3.52279826 31.3384959,4.830418 31.3384959,6.43702323 C31.3384959,8.04327505 29.9036328,9.35089479 28.141151,9.35089479 C26.3786692,9.35089479 24.9441889,8.04327505 24.9441889,6.43702323 C24.9441889,4.830418 26.3786692,3.52279826 28.141151,3.52279826 M28.141151,16.4579848 C25.9324034,16.4579848 23.9590362,17.3881619 22.6631049,18.8399732 L14.061964,15.4818643 C14.0994718,15.2143324 14.1251148,14.9429129 14.1251148,14.6658389 C14.1251148,14.3887649 14.0994718,14.1173454 14.061964,13.8498135 L22.6631049,10.4917047 C23.9590362,11.9438694 25.9324034,12.8736931 28.141151,12.8736931 C32.0354512,12.8736931 35.2033257,9.9863273 35.2033257,6.43702323 C35.2033257,2.88771916 32.0354512,0 28.141151,0 C24.2472335,0 21.0789763,2.88771916 21.0789763,6.43702323 C21.0789763,6.71409725 21.1046194,6.98516329 21.1421271,7.25304863 L12.5409862,10.6111575 C11.245055,9.15899276 9.27130499,8.22881569 7.06217469,8.22881569 C3.16787448,8.22881569 0,11.1165349 0,14.6658389 C0,18.2154964 3.16787448,21.1032156 7.06217469,21.1032156 C9.27168772,21.1032156 11.245055,20.1723317 12.5409862,18.7208738 L21.1421271,22.0786292 C21.1046194,22.3465145 21.0789763,22.617934 21.0789763,22.895008 C21.0789763,26.4443121 24.2472335,29.3320313 28.141151,29.3320313 C32.0354512,29.3320313 35.2033257,26.4443121 35.2033257,22.895008 C35.2033257,19.3457039 32.0354512,16.4579848 28.141151,16.4579848" id="icon_play_share" fill="#FFFFFF"></path>
    </g>
</svg>