<?xml version="1.0" encoding="UTF-8"?>
<svg width="97px" height="24px" viewBox="0 0 97 24" version="1.1" xmlns="http://www.w3.org/2000/svg" xmlns:xlink="http://www.w3.org/1999/xlink">
    <!-- Generator: Sketch 50.2 (55047) - http://www.bohemiancoding.com/sketch -->
    <title>Fill 1</title>
    <desc>Created with Sketch.</desc>
    <defs></defs>
    <g id="Page-8" stroke="none" stroke-width="1" fill="none" fill-rule="evenodd">
        <path d="M70.7805506,6.83296247 C70.3144861,8.34543613 68.1451497,9.38091415 64.2794976,9.93740906 L55.0486383,11.2471596 L55.2821675,10.4909227 C56.0453605,8.004583 57.136488,6.30926101 58.5376627,5.40793801 C59.9398311,4.51158371 62.2254352,4.05843786 65.3934812,4.05843786 C69.5572556,4.05843786 71.3509579,4.98559813 70.7805506,6.83296247 Z M19.5611568,18.7856781 C18.0625956,19.0192072 15.9151215,19.1364686 13.1078034,19.1364686 C8.23648548,19.1364686 6.10590497,18.1526651 6.72401182,16.1870456 C7.16722026,14.777921 8.4411961,13.93026 10.5618392,13.6430689 L21.6450315,12.154445 L19.5611568,18.7856781 Z M96.8245123,1.03647177 C96.4935966,0.551526203 96.0941127,0.21961674 94.4425153,0.0934116452 C94.0062631,0.0606181953 92.5762699,0.0139123727 90.1664482,0.0139123727 C83.8353249,0.0139123727 79.5334205,1.9338198 77.3322844,5.7259351 C77.9374726,1.91096376 74.2198879,0 66.1656179,0 C56.7121606,0 50.8113271,3.80900889 48.4591424,11.4210642 C47.5846504,14.2532258 47.4962075,16.5716234 48.1848699,18.3852005 L45.9519341,18.5342616 C44.2079188,18.6654354 41.913371,18.7856781 40.5082214,18.7856781 C37.0480156,18.7856781 34.9015352,18.2033459 34.0727553,17.0436503 C33.3284434,16.0032036 33.4019802,14.06839 34.2705097,11.2471596 C35.7104403,6.57359609 39.2879076,4.46885286 45.000924,4.46885286 C47.9612782,4.46289041 50.8441206,4.77890002 50.8441206,4.77890002 C51.2406232,4.75306275 51.4194966,4.34066028 51.3747782,3.99682592 L51.3161475,3.55163 L51.1134244,1.98052563 C50.9822506,0.949022565 50.2140888,0.335884426 48.8079455,0.146079913 C47.5250259,0.0596244544 46.5710347,0 45.1648913,0 C45.139054,0 45.112223,0.00198748181 45.0873795,0.00198748181 C37.6214041,0.0188810772 32.4181767,2.47242737 29.4776973,7.35666393 C30.5569,2.4535463 27.1056378,0 19.1070173,0 C14.6630079,0 11.4770746,0.127198836 9.54325477,0.379609026 C8.06158708,0.563451094 7.15728285,1.17758297 6.83232958,2.21902344 L6.19732914,4.23731122 C6.08205519,4.60797658 6.25993482,4.79181865 6.73494297,4.79181865 L6.74984908,4.78883743 C7.10163336,4.74411909 8.45411474,4.6109578 10.7645623,4.426122 C13.8232969,4.18166173 16.0880324,4.05843786 17.5796375,4.05843786 C21.9799222,4.05843786 23.833249,5.16049653 23.1435928,7.36262637 C22.9955254,7.84955942 22.6566598,8.15364414 22.1468707,8.26991182 C17.9821025,8.95956801 14.677914,9.4574322 12.2343051,9.75754196 C5.35761807,10.6340214 1.38464193,12.7745393 0.313389233,16.1870456 C-1.1523786,20.876509 2.52346901,23.2217375 11.3429196,23.2217375 C15.7412168,23.2217375 19.4359455,22.9653523 22.4201494,22.4645069 C24.1403149,22.1753283 25.0118257,21.7360948 25.3566538,20.6260862 L26.9993075,15.4000028 C26.8273904,20.6211175 30.4903193,23.2545309 37.9970381,23.2545309 C41.2455772,23.2545309 44.3281614,23.1462132 45.7829981,22.8947967 C47.3223028,22.6274804 48.0576711,22.2935835 48.3985242,21.1309066 L48.7304337,19.4852717 C50.3293628,21.9765801 53.8382619,23.2217375 59.2531561,23.2217375 C64.9651788,23.2217375 68.3001733,23.062739 69.2491959,22.7447419 C70.0431949,22.4903442 70.5370841,22.0809229 70.7119825,21.5085282 C70.7467634,21.4081603 70.7626633,21.2988488 70.7805506,21.1805937 L71.4652381,18.9615702 C71.584487,18.575005 71.4066074,18.391163 70.936568,18.4080565 L67.2805952,18.5819612 C64.8409612,18.71711 62.9299975,18.7856781 61.5496914,18.7856781 C58.9550338,18.7856781 57.1742501,18.6087922 56.2003841,18.2540267 C54.754491,17.6995193 54.0678161,16.5934857 54.1324092,14.9249947 L65.7134658,13.4413395 C70.9047682,12.7775206 74.3778927,11.1805789 76.1368141,8.64554588 L72.2145188,22.3154458 C72.1399882,22.5708372 72.1678129,22.7815103 72.3009742,22.9325589 C72.4470541,23.1034823 72.6954894,23.1879503 73.0661547,23.1879503 L77.8609546,23.1879503 C78.6976844,23.1879503 78.9977942,22.7536855 79.1011432,22.3909701 L83.336467,7.63988009 C83.8949494,5.69811036 85.679708,4.75306275 88.7950858,4.75306275 C91.6073725,4.75306275 93.7270219,4.77890002 95.0824845,4.82858706 C95.1182592,4.83156829 95.1520464,4.83156829 95.187821,4.83156829 C95.4521561,4.83156829 95.9311392,4.7371629 96.1686433,4.09222505 L96.9109678,2.06896857 C97.0540665,1.67743465 97.0242542,1.32863159 96.8245123,1.03647177 Z" id="Fill-1" fill="#FEFEFE"></path>
    </g>
</svg>