<?xml version="1.0" encoding="utf-8"?>
<!-- Generator: Adobe Illustrator 16.0.0, SVG Export Plug-In . SVG Version: 6.00 Build 0)  -->
<!DOCTYPE svg PUBLIC "-//W3C//DTD SVG 1.1//EN" "http://www.w3.org/Graphics/SVG/1.1/DTD/svg11.dtd">
<svg version="1.1" id="Layer_1" xmlns="http://www.w3.org/2000/svg" xmlns:xlink="http://www.w3.org/1999/xlink" x="0px" y="0px"
	 width="504.094px" height="121.438px" viewBox="47.731 360.822 504.094 121.438"
	 enable-background="new 47.731 360.822 504.094 121.438" xml:space="preserve">
<path fill="#83B81A" d="M550.634,366.179c-1.785-2.381-3.572-4.167-12.5-4.763c-2.383,0-9.525-0.595-22.025-0.595
	c-32.742,0-55.361,10.119-66.672,29.764c2.977-19.645-16.072-29.764-57.742-29.764c-48.813,0-79.768,19.644-92.27,59.527
	c-4.762,14.883-4.762,26.788-1.189,36.313H286.33c-8.929,0.596-20.834,1.19-28.573,1.19c-17.858,0-29.169-2.976-33.335-8.929
	c-3.572-5.357-3.572-15.478,1.19-30.359c7.739-24.406,26.192-35.122,55.956-35.122c15.478,0,30.36,1.786,30.36,1.786l0,0
	c1.785,0,2.977-2.381,2.977-4.167l-0.596-1.786l-1.191-8.334c-0.594-5.357-4.762-8.334-11.904-9.524
	c-6.549-0.595-11.906-0.595-19.049-0.595c0,0,0,0-0.596,0c-38.693,0-66.076,13.096-80.958,38.098
	c5.357-25.597-12.501-38.098-53.575-38.098c-23.216,0-39.884,0.595-49.408,1.785c-7.739,1.191-12.501,4.167-14.287,9.525
	l-3.572,10.715c-0.595,1.785,0.595,2.977,2.977,2.977l0,0c1.786,0,8.929-1.191,20.834-1.786c16.073-1.19,27.383-1.786,35.122-1.786
	c22.621,0,32.741,5.953,29.169,17.264c-0.595,2.381-2.381,4.167-5.357,4.762c-21.43,3.572-38.693,5.953-51.194,7.739
	c-35.717,4.762-56.552,15.477-61.909,33.335c-7.739,24.407,11.311,36.313,57.147,36.313c22.621,0,42.265-1.19,57.742-4.167
	c8.929-1.786,13.691-3.571,15.477-9.524l8.334-27.383c-0.595,27.383,17.858,41.074,57.147,41.074
	c16.668,0,32.741-0.596,40.479-1.786c7.739-1.19,11.906-2.976,13.691-8.929l1.787-8.334c8.334,13.096,26.787,19.645,54.766,19.645
	c29.764,0,47.027-0.596,51.789-2.382c4.166-1.19,6.549-3.571,7.738-6.548c0-0.595,0-1.19,0.596-1.786l3.572-11.31
	c0.594-1.786-0.596-2.977-2.977-2.977l-19.049,1.19c-12.502,0.596-22.621,1.19-29.766,1.19c-13.691,0-22.619-1.19-27.977-2.977
	c-7.74-2.977-11.311-8.334-10.715-17.263l60.123-7.739c26.787-3.571,45.24-11.905,54.17-25.002l-20.834,69.648
	c-0.596,1.19,0,2.381,0.594,2.977c0.596,0.595,1.787,1.19,4.168,1.19h25.002c4.166,0,5.953-2.381,6.547-4.167l22.025-76.791
	c2.977-10.12,11.906-14.883,28.574-14.883c14.883,0,25.598,0,32.74,0.596h0.596c1.189,0,3.572-0.596,5.357-3.571l3.572-10.716
	C551.826,369.156,551.826,367.37,550.634,366.179L550.634,366.179z M149.416,457.852c-7.739,1.191-19.049,1.786-33.336,1.786
	c-25.597,0-36.312-5.357-33.335-15.478c2.381-7.143,8.929-11.905,19.644-13.096l57.742-7.739L149.416,457.852L149.416,457.852z
	 M415.505,395.943c-2.381,7.739-13.691,13.097-33.932,16.073l-48.217,6.548l1.191-4.167c4.166-13.097,9.523-21.431,16.668-26.192
	c7.143-4.763,19.049-7.144,35.717-7.144C408.958,381.657,418.482,386.419,415.505,395.943L415.505,395.943z"/>
</svg>
