<?xml version="1.0" encoding="utf-8"?>
<!-- Generator: Adobe Illustrator 16.0.0, SVG Export Plug-In . SVG Version: 6.00 Build 0)  -->
<!DOCTYPE svg PUBLIC "-//W3C//DTD SVG 1.1//EN" "http://www.w3.org/Graphics/SVG/1.1/DTD/svg11.dtd">
<svg version="1.1" id="Layer_1" xmlns="http://www.w3.org/2000/svg" xmlns:xlink="http://www.w3.org/1999/xlink" x="0px" y="0px"
	 width="595.281px" height="347.286px" viewBox="0 247.36 595.281 347.286" enable-background="new 0 247.36 595.281 347.286"
	 xml:space="preserve">
<g>
	<rect y="567.905" fill="#CB001C" width="595.281" height="26.741"/>
	<rect y="541.164" fill="#FFFFFF" width="595.281" height="26.741"/>
	<rect y="514.423" fill="#CB001C" width="595.281" height="26.741"/>
	<rect y="487.681" fill="#FFFFFF" width="595.281" height="26.741"/>
	<rect y="461.057" fill="#CB001C" width="595.281" height="26.74"/>
	<rect y="434.316" fill="#FFFFFF" width="595.281" height="26.741"/>
	<rect y="407.575" fill="#CB001C" width="595.281" height="26.741"/>
	<rect y="380.834" fill="#FFFFFF" width="595.281" height="26.741"/>
	<rect y="354.209" fill="#CB001C" width="595.281" height="26.741"/>
	<rect y="327.468" fill="#FFFFFF" width="595.281" height="26.741"/>
	<rect y="300.726" fill="#CB001C" width="595.281" height="26.741"/>
	<rect y="273.985" fill="#FFFFFF" width="595.281" height="26.741"/>
	<rect y="247.36" fill="#CB001C" width="595.281" height="26.741"/>
	<rect y="247.36" fill="#2A3560" width="271.829" height="186.956"/>
	<polygon fill="#FFFFFF" points="24.532,267.939 26.857,275.032 34.182,275.032 28.252,279.334 30.461,286.426 24.532,282.008 
		18.486,286.426 20.812,279.334 14.766,275.032 22.207,275.032 	"/>
	<polygon fill="#FFFFFF" points="24.532,299.098 26.857,306.191 34.182,306.191 28.252,310.609 30.461,317.585 24.532,313.283 
		18.486,317.585 20.812,310.609 14.766,306.191 22.207,306.191 	"/>
	<polygon fill="#FFFFFF" points="24.532,330.374 26.857,337.467 34.182,337.467 28.252,341.768 30.461,348.86 24.532,344.442 
		18.486,348.86 20.812,341.768 14.766,337.467 22.207,337.467 	"/>
	<polygon fill="#FFFFFF" points="24.532,361.533 26.857,368.626 34.182,368.626 28.252,373.044 30.461,380.019 24.532,375.718 
		18.486,380.019 20.812,373.044 14.766,368.626 22.207,368.626 	"/>
	<polygon fill="#FFFFFF" points="24.532,392.808 26.857,399.785 34.182,399.785 28.252,404.203 30.461,411.295 24.532,406.877 
		18.486,411.295 20.812,404.203 14.766,399.785 22.207,399.785 	"/>
	<polygon fill="#FFFFFF" points="46.274,284.333 48.599,291.426 55.924,291.426 49.994,295.844 52.203,302.819 46.274,298.517 
		40.228,302.819 42.553,295.844 36.507,291.426 43.948,291.426 	"/>
	<polygon fill="#FFFFFF" points="46.274,315.608 48.599,322.585 55.924,322.585 49.994,327.003 52.203,334.094 46.274,329.677 
		40.228,334.094 42.553,327.003 36.507,322.585 43.948,322.585 	"/>
	<polygon fill="#FFFFFF" points="46.274,346.767 48.599,353.86 55.924,353.86 49.994,358.278 52.203,365.254 46.274,360.952 
		40.228,365.254 42.553,358.278 36.507,353.86 43.948,353.86 	"/>
	<polygon fill="#FFFFFF" points="46.274,378.043 48.599,385.019 55.924,385.019 49.994,389.437 52.203,396.529 46.274,392.111 
		40.228,396.529 42.553,389.437 36.507,385.019 43.948,385.019 	"/>
	<polygon fill="#FFFFFF" points="68.248,267.939 70.573,275.032 78.014,275.032 71.968,279.334 74.294,286.426 68.248,282.008 
		62.202,286.426 64.527,279.334 58.481,275.032 65.923,275.032 	"/>
	<polygon fill="#FFFFFF" points="68.248,299.098 70.573,306.191 78.014,306.191 71.968,310.609 74.294,317.585 68.248,313.283 
		62.202,317.585 64.527,310.609 58.481,306.191 65.923,306.191 	"/>
	<polygon fill="#FFFFFF" points="68.248,330.374 70.573,337.467 78.014,337.467 71.968,341.768 74.294,348.86 68.248,344.442 
		62.202,348.86 64.527,341.768 58.481,337.467 65.923,337.467 	"/>
	<polygon fill="#FFFFFF" points="68.248,361.533 70.573,368.626 78.014,368.626 71.968,373.044 74.294,380.019 68.248,375.718 
		62.202,380.019 64.527,373.044 58.481,368.626 65.923,368.626 	"/>
	<polygon fill="#FFFFFF" points="68.248,392.808 70.573,399.785 78.014,399.785 71.968,404.203 74.294,411.295 68.248,406.877 
		62.202,411.295 64.527,404.203 58.481,399.785 65.923,399.785 	"/>
	<polygon fill="#FFFFFF" points="89.99,284.333 92.315,291.426 99.756,291.426 93.71,295.844 96.036,302.819 89.99,298.517 
		83.944,302.819 86.269,295.844 80.223,291.426 87.665,291.426 	"/>
	<polygon fill="#FFFFFF" points="89.99,315.608 92.315,322.585 99.756,322.585 93.71,327.003 96.036,334.094 89.99,329.677 
		83.944,334.094 86.269,327.003 80.223,322.585 87.665,322.585 	"/>
	<polygon fill="#FFFFFF" points="89.99,346.767 92.315,353.86 99.756,353.86 93.71,358.278 96.036,365.254 89.99,360.952 
		83.944,365.254 86.269,358.278 80.223,353.86 87.665,353.86 	"/>
	<polygon fill="#FFFFFF" points="89.99,378.043 92.315,385.019 99.756,385.019 93.71,389.437 96.036,396.529 89.99,392.111 
		83.944,396.529 86.269,389.437 80.223,385.019 87.665,385.019 	"/>
	<polygon fill="#FFFFFF" points="111.964,267.939 114.289,275.032 121.73,275.032 115.685,279.334 118.01,286.426 111.964,282.008 
		106.034,286.426 108.359,279.334 102.314,275.032 109.755,275.032 	"/>
	<polygon fill="#FFFFFF" points="111.964,299.098 114.289,306.191 121.73,306.191 115.685,310.609 118.01,317.585 111.964,313.283 
		106.034,317.585 108.359,310.609 102.314,306.191 109.755,306.191 	"/>
	<polygon fill="#FFFFFF" points="111.964,330.374 114.289,337.467 121.73,337.467 115.685,341.768 118.01,348.86 111.964,344.442 
		106.034,348.86 108.359,341.768 102.314,337.467 109.755,337.467 	"/>
	<polygon fill="#FFFFFF" points="111.964,361.533 114.289,368.626 121.73,368.626 115.685,373.044 118.01,380.019 111.964,375.718 
		106.034,380.019 108.359,373.044 102.314,368.626 109.755,368.626 	"/>
	<polygon fill="#FFFFFF" points="111.964,392.808 114.289,399.785 121.73,399.785 115.685,404.203 118.01,411.295 111.964,406.877 
		106.034,411.295 108.359,404.203 102.314,399.785 109.755,399.785 	"/>
	<polygon fill="#FFFFFF" points="133.706,284.333 136.031,291.426 143.472,291.426 137.426,295.844 139.751,302.819 
		133.706,298.517 127.776,302.819 129.985,295.844 124.056,291.426 131.497,291.426 	"/>
	<polygon fill="#FFFFFF" points="133.706,315.608 136.031,322.585 143.472,322.585 137.426,327.003 139.751,334.094 
		133.706,329.677 127.776,334.094 129.985,327.003 124.056,322.585 131.497,322.585 	"/>
	<polygon fill="#FFFFFF" points="133.706,346.767 136.031,353.86 143.472,353.86 137.426,358.278 139.751,365.254 133.706,360.952 
		127.776,365.254 129.985,358.278 124.056,353.86 131.497,353.86 	"/>
	<polygon fill="#FFFFFF" points="133.706,378.043 136.031,385.019 143.472,385.019 137.426,389.437 139.751,396.529 
		133.706,392.111 127.776,396.529 129.985,389.437 124.056,385.019 131.497,385.019 	"/>
	<polygon fill="#FFFFFF" points="155.796,267.939 158.121,275.032 165.446,275.032 159.517,279.334 161.726,286.426 
		155.796,282.008 149.75,286.426 152.076,279.334 146.03,275.032 153.471,275.032 	"/>
	<polygon fill="#FFFFFF" points="155.796,299.098 158.121,306.191 165.446,306.191 159.517,310.609 161.726,317.585 
		155.796,313.283 149.75,317.585 152.076,310.609 146.03,306.191 153.471,306.191 	"/>
	<polygon fill="#FFFFFF" points="155.796,330.374 158.121,337.467 165.446,337.467 159.517,341.768 161.726,348.86 155.796,344.442 
		149.75,348.86 152.076,341.768 146.03,337.467 153.471,337.467 	"/>
	<polygon fill="#FFFFFF" points="155.796,361.533 158.121,368.626 165.446,368.626 159.517,373.044 161.726,380.019 
		155.796,375.718 149.75,380.019 152.076,373.044 146.03,368.626 153.471,368.626 	"/>
	<polygon fill="#FFFFFF" points="155.796,392.808 158.121,399.785 165.446,399.785 159.517,404.203 161.726,411.295 
		155.796,406.877 149.75,411.295 152.076,404.203 146.03,399.785 153.471,399.785 	"/>
	<polygon fill="#FFFFFF" points="177.538,284.333 179.747,291.426 187.188,291.426 181.258,295.844 183.467,302.819 
		177.538,298.517 171.492,302.819 173.817,295.844 167.771,291.426 175.212,291.426 	"/>
	<polygon fill="#FFFFFF" points="177.538,315.608 179.747,322.585 187.188,322.585 181.258,327.003 183.467,334.094 
		177.538,329.677 171.492,334.094 173.817,327.003 167.771,322.585 175.212,322.585 	"/>
	<polygon fill="#FFFFFF" points="177.538,346.767 179.747,353.86 187.188,353.86 181.258,358.278 183.467,365.254 177.538,360.952 
		171.492,365.254 173.817,358.278 167.771,353.86 175.212,353.86 	"/>
	<polygon fill="#FFFFFF" points="177.538,378.043 179.747,385.019 187.188,385.019 181.258,389.437 183.467,396.529 
		177.538,392.111 171.492,396.529 173.817,389.437 167.771,385.019 175.212,385.019 	"/>
	<polygon fill="#FFFFFF" points="199.512,267.939 201.837,275.032 209.278,275.032 203.232,279.334 205.558,286.426 
		199.512,282.008 193.466,286.426 195.792,279.334 189.746,275.032 197.187,275.032 	"/>
	<polygon fill="#FFFFFF" points="199.512,299.098 201.837,306.191 209.278,306.191 203.232,310.609 205.558,317.585 
		199.512,313.283 193.466,317.585 195.792,310.609 189.746,306.191 197.187,306.191 	"/>
	<polygon fill="#FFFFFF" points="199.512,330.374 201.837,337.467 209.278,337.467 203.232,341.768 205.558,348.86 199.512,344.442 
		193.466,348.86 195.792,341.768 189.746,337.467 197.187,337.467 	"/>
	<polygon fill="#FFFFFF" points="199.512,361.533 201.837,368.626 209.278,368.626 203.232,373.044 205.558,380.019 
		199.512,375.718 193.466,380.019 195.792,373.044 189.746,368.626 197.187,368.626 	"/>
	<polygon fill="#FFFFFF" points="199.512,392.808 201.837,399.785 209.278,399.785 203.232,404.203 205.558,411.295 
		199.512,406.877 193.466,411.295 195.792,404.203 189.746,399.785 197.187,399.785 	"/>
	<polygon fill="#FFFFFF" points="221.253,284.333 223.579,291.426 231.02,291.426 224.974,295.844 227.299,302.819 221.253,298.517 
		215.208,302.819 217.533,295.844 211.487,291.426 218.928,291.426 	"/>
	<polygon fill="#FFFFFF" points="221.253,315.608 223.579,322.585 231.02,322.585 224.974,327.003 227.299,334.094 221.253,329.677 
		215.208,334.094 217.533,327.003 211.487,322.585 218.928,322.585 	"/>
	<polygon fill="#FFFFFF" points="221.253,346.767 223.579,353.86 231.02,353.86 224.974,358.278 227.299,365.254 221.253,360.952 
		215.208,365.254 217.533,358.278 211.487,353.86 218.928,353.86 	"/>
	<polygon fill="#FFFFFF" points="221.253,378.043 223.579,385.019 231.02,385.019 224.974,389.437 227.299,396.529 221.253,392.111 
		215.208,396.529 217.533,389.437 211.487,385.019 218.928,385.019 	"/>
	<polygon fill="#FFFFFF" points="243.228,267.939 245.553,275.032 252.994,275.032 246.948,279.334 249.273,286.426 
		243.228,282.008 237.298,286.426 239.507,279.334 233.578,275.032 241.019,275.032 	"/>
	<polygon fill="#FFFFFF" points="243.228,299.098 245.553,306.191 252.994,306.191 246.948,310.609 249.273,317.585 
		243.228,313.283 237.298,317.585 239.507,310.609 233.578,306.191 241.019,306.191 	"/>
	<polygon fill="#FFFFFF" points="243.228,330.374 245.553,337.467 252.994,337.467 246.948,341.768 249.273,348.86 243.228,344.442 
		237.298,348.86 239.507,341.768 233.578,337.467 241.019,337.467 	"/>
	<polygon fill="#FFFFFF" points="243.228,361.533 245.553,368.626 252.994,368.626 246.948,373.044 249.273,380.019 
		243.228,375.718 237.298,380.019 239.507,373.044 233.578,368.626 241.019,368.626 	"/>
	<polygon fill="#FFFFFF" points="243.228,392.808 245.553,399.785 252.994,399.785 246.948,404.203 249.273,411.295 
		243.228,406.877 237.298,411.295 239.507,404.203 233.578,399.785 241.019,399.785 	"/>
</g>
</svg>
