<?xml version="1.0" encoding="utf-8"?>
<!-- Generator: Adobe Illustrator 16.0.0, SVG Export Plug-In . SVG Version: 6.00 Build 0)  -->
<!DOCTYPE svg PUBLIC "-//W3C//DTD SVG 1.1//EN" "http://www.w3.org/Graphics/SVG/1.1/DTD/svg11.dtd">
<svg version="1.1" id="Layer_1" xmlns="http://www.w3.org/2000/svg" xmlns:xlink="http://www.w3.org/1999/xlink" x="0px" y="0px"
	 width="595.281px" height="347.286px" viewBox="0 247.36 595.281 347.286" enable-background="new 0 247.36 595.281 347.286"
	 xml:space="preserve">
<g>
	<rect y="247.36" fill="#D10E2F" width="595.281" height="347.286"/>
	<rect y="247.36" fill="#1C2666" width="260.435" height="173.585"/>
	<path fill="#FFFFFF" d="M147.541,334.094l-17.323,65.109l-17.324-65.109l17.324-65.108 M130.218,351.535l65.108-17.324
		l-65.108-17.323l-65.109,17.323"/>
	<path fill="#FFFFFF" d="M145.216,342.814l-47.553,47.669l17.556-65.108l47.553-47.669 M121.498,349.209l65.109,17.557
		l-47.669-47.553l-65.109-17.556"/>
	<path fill="#FFFFFF" d="M138.938,349.209l-65.109,17.557l47.669-47.553l65.109-17.556 M115.219,342.814l47.553,47.669
		l-17.556-65.108l-47.553-47.669"/>
	<path fill="#1C2666" d="M130.218,297.238c20.346,0,36.856,16.51,36.856,36.856s-16.51,36.856-36.856,36.856
		c-20.347,0-36.856-16.51-36.856-36.856S109.871,297.238,130.218,297.238"/>
	<path fill="#FFFFFF" d="M130.218,301.54c18.021,0,32.554,14.533,32.554,32.555s-14.533,32.555-32.554,32.555
		c-18.021,0-32.555-14.533-32.555-32.555C97.663,316.19,112.196,301.54,130.218,301.54"/>
</g>
</svg>
