<?xml version="1.0" encoding="utf-8"?>
<!-- Generator: Adobe Illustrator 16.0.0, SVG Export Plug-In . SVG Version: 6.00 Build 0)  -->
<!DOCTYPE svg PUBLIC "-//W3C//DTD SVG 1.1//EN" "http://www.w3.org/Graphics/SVG/1.1/DTD/svg11.dtd">
<svg version="1.1" id="Layer_1" xmlns="http://www.w3.org/2000/svg" xmlns:xlink="http://www.w3.org/1999/xlink" x="0px" y="0px"
	 width="595.281px" height="347.17px" viewBox="0 247.36 595.281 347.17" enable-background="new 0 247.36 595.281 347.17"
	 xml:space="preserve">
<g>
	<rect y="247.36" fill="#D91D42" width="595.281" height="173.701"/>
	<rect y="420.945" fill="#FFFFFF" width="595.281" height="173.585"/>
	<path fill="#FFFFFF" d="M178.7,334.094c0,36.043-29.183,65.342-65.341,65.342c-36.042,0-65.341-29.299-65.341-65.342
		c0-36.042,29.183-65.341,65.341-65.341C149.401,268.87,178.7,298.052,178.7,334.094"/>
	<path fill="#D91D42" d="M199.163,334.094c0,34.066-27.671,61.737-61.737,61.737c-34.066,0-61.737-27.671-61.737-61.737
		c0-34.065,27.671-61.737,61.737-61.737C171.492,272.357,199.163,300.029,199.163,334.094"/>
	<polygon fill="#FFFFFF" points="121.381,335.722 112.545,328.863 103.709,335.722 107.081,324.677 98.245,317.933 109.173,318.05 
		112.545,307.005 115.917,318.05 126.962,317.933 118.01,324.677 	"/>
	<polygon fill="#FFFFFF" points="191.024,335.722 182.188,328.863 173.236,335.722 176.724,324.677 167.771,317.933 178.816,318.05 
		182.188,307.005 185.56,318.05 196.489,317.933 187.653,324.677 	"/>
	<polygon fill="#FFFFFF" points="156.261,309.912 147.425,303.052 138.473,309.912 141.96,298.866 133.008,292.123 144.053,292.123 
		147.425,281.194 150.796,292.123 161.726,292.123 152.889,298.866 	"/>
	<polygon fill="#FFFFFF" points="134.52,376.997 125.567,370.254 116.731,376.997 120.103,366.068 111.266,359.324 122.195,359.324 
		125.567,348.395 128.938,359.324 139.984,359.324 131.031,366.068 	"/>
	<polygon fill="#FFFFFF" points="178.003,376.997 169.167,370.254 160.331,376.997 163.702,366.068 154.75,359.324 165.795,359.324 
		169.167,348.395 172.538,359.324 183.467,359.324 174.631,366.068 	"/>
</g>
</svg>
