<?xml version="1.0" encoding="UTF-8"?>
<svg width="34px" height="37px" viewBox="0 0 34 37" version="1.1" xmlns="http://www.w3.org/2000/svg" xmlns:xlink="http://www.w3.org/1999/xlink">
    <!-- Generator: Sketch 50.2 (55047) - http://www.bohemiancoding.com/sketch -->
    <title>icon_female_hair</title>
    <desc>Created with Sketch.</desc>
    <defs></defs>
    <g id="Page-8" stroke="none" stroke-width="1" fill="none" fill-rule="evenodd">
        <path d="M30.608345,11.142294 C29.869881,10.2110589 28.8549414,9.45603246 27.5767192,8.46243496 L27.4986025,8.4019036 C27.404978,8.32920134 27.3117008,8.25617596 27.2143731,8.18347371 C26.7075976,7.80423719 25.7390652,7.32117109 24.7528262,6.91242285 C25.1147095,6.26122604 25.3203592,5.52267882 25.3203592,4.73911006 C25.3203592,2.12172111 23.0405062,0 20.2283018,0 C17.4159817,0 15.1362444,2.12172111 15.1362444,4.73911006 C15.1362444,4.96658734 15.1545295,5.18997176 15.1877436,5.40894018 C13.1376119,5.59225758 11.4029563,6.09374159 9.6970013,6.57012985 C6.22514399,7.53949327 3.09584327,9.63105641 1.04385988,14.6788549 C-0.812542226,19.2514498 0.257599925,23.1494756 0.832423767,25.2434083 C0.922807785,25.5740689 1.0026605,25.86337 1.05774731,26.1076496 C2.36872062,31.9218914 8.46437623,35.5472029 8.72360824,35.698639 C8.89708538,35.8006376 9.12553359,35.7656328 9.25514959,35.6175356 C9.38522851,35.4699769 9.37620168,35.2553168 9.23431845,35.1171286 C9.21915801,35.1022651 7.71399213,33.6222625 7.05156176,32.1769417 C6.48483892,30.9407879 5.73121443,28.9683488 5.73121443,26.1202513 C5.73121443,25.0763546 6.19898933,23.9251817 6.78955226,22.8873166 C6.66352384,23.3280538 6.56260852,23.7889323 6.50404986,24.2588581 C6.16265056,26.9410867 7.90205107,28.9857973 7.97646455,29.0715321 C8.11024678,29.226738 8.35107795,29.258727 8.52652247,29.1438035 C8.701967,29.0296341 8.75184601,28.8081884 8.64063085,28.6376881 C8.55996803,28.5139327 6.70067272,25.5820392 9.83413966,23.3378552 C10.4749288,22.8793463 11.0981272,22.3780777 11.6963282,21.8407272 C11.7106785,23.3737216 12.8718991,24.4917208 12.9345082,24.5503134 C13.0510469,24.66039 13.2281116,24.693133 13.3806419,24.6341095 C13.5339823,24.5747629 13.6328145,24.4347438 13.6308471,24.2801841 C13.6304999,24.2573502 13.61939,21.994856 15.1810314,21.2566319 C19.4332465,19.2468184 20.3749299,18.3338935 21.0657138,16.5132136 L24.5818951,20.747393 C24.7694912,20.9570986 25.0667979,21.3014381 25.4180341,21.754777 C26.316435,22.9093966 27.8240312,25.1239611 27.8240312,26.9833079 C27.8240312,29.8337749 27.0705225,31.8047061 26.5033367,33.0396751 C25.8424108,34.4815494 24.3352775,35.9658602 24.3201171,35.9801852 C24.178581,36.1184811 24.17048,36.3334643 24.300096,36.4811307 C24.3794859,36.5723586 24.4960245,36.6203959 24.6145306,36.6203959 C24.6890598,36.6203959 24.7638205,36.6013318 24.8304801,36.5621264 C25.0893649,36.4106903 31.1855992,32.7850557 32.4970354,26.9696291 C32.552238,26.7241647 32.6324379,26.4330326 32.7235162,26.1000024 C32.8724589,25.5573743 33.0572775,24.8837744 33.213511,24.1207777 C35.9090611,16.9691375 30.8286923,11.3793572 30.608345,11.142294" id="icon_female_hair" fill="#FFFFFF"></path>
    </g>
</svg>