<?xml version="1.0" encoding="utf-8"?>
<!-- Generator: Adobe Illustrator 16.0.0, SVG Export Plug-In . SVG Version: 6.00 Build 0)  -->
<!DOCTYPE svg PUBLIC "-//W3C//DTD SVG 1.1//EN" "http://www.w3.org/Graphics/SVG/1.1/DTD/svg11.dtd">
<svg version="1.1" id="圖層_1" xmlns="http://www.w3.org/2000/svg" xmlns:xlink="http://www.w3.org/1999/xlink" x="0px" y="0px"
	 width="500px" height="500px" viewBox="-217 -217 500 500" enable-background="new -217 -217 500 500" xml:space="preserve">
<title>icon_male</title>
<desc>Created with Sketch.</desc>
<g id="Page-8">
	<path id="icon_male" fill="#FFFFFF" d="M-11.75-68.7c81.13,0,146.448,65.322,146.448,146.446
		c0,81.128-65.317,146.452-146.448,146.452c-81.125,0-146.445-65.324-146.445-146.452C-158.195-3.378-92.874-68.7-11.75-68.7z
		 M131.371-198.875c-11.645,0-21.08,9.435-21.08,21.08s9.436,21.08,21.08,21.08h61.481l-83.879,83.882
		c-32.47-25.982-73.458-41.724-118.133-41.724c-104.526,0-189.716,85.19-189.716,189.716c0,104.525,85.189,189.716,189.716,189.716
		s189.716-85.19,189.716-189.716c0-44.739-15.672-85.862-41.72-118.353l83.879-83.879v61.702c0,11.644,9.435,21.079,21.08,21.079
		c11.645,0,21.079-9.435,21.079-21.079v-112.424c0-11.645-9.435-21.08-21.079-21.08H131.371z"/>
</g>
</svg>
