<?xml version="1.0" encoding="utf-8"?>
<!-- Generator: Adobe Illustrator 16.0.0, SVG Export Plug-In . SVG Version: 6.00 Build 0)  -->
<!DOCTYPE svg PUBLIC "-//W3C//DTD SVG 1.1//EN" "http://www.w3.org/Graphics/SVG/1.1/DTD/svg11.dtd">
<svg version="1.1" id="圖層_1" xmlns="http://www.w3.org/2000/svg" xmlns:xlink="http://www.w3.org/1999/xlink" x="0px" y="0px"
	 width="500px" height="500px" viewBox="-225.5 -217 500 500" enable-background="new -225.5 -217 500 500" xml:space="preserve">
<title>icon_female</title>
<desc>Created with Sketch.</desc>
<g id="Page-8">
	<path id="icon_female" fill="#FFFFFF" d="M24.265-165.567c74.672,0,134.745,60.073,134.745,134.741
		c0,74.672-60.073,134.745-134.745,134.745c-74.668,0-134.741-60.073-134.741-134.745
		C-110.477-105.494-50.404-165.567,24.265-165.567 M24.265-208.119c-97.659,0-177.293,79.635-177.293,177.293
		c0,90.491,68.292,165.434,156.019,175.966v29.697h-35.459c-11.752,0-21.274,9.519-21.274,21.278
		c0,11.744,9.522,21.271,21.274,21.271H2.99v35.456c0,11.752,9.522,21.277,21.274,21.277s21.271-9.525,21.271-21.277v-35.456h35.463
		c11.752,0,21.277-9.526,21.277-21.271c0-11.76-9.525-21.278-21.277-21.278H45.535V145.14
		c87.729-10.532,156.022-85.475,156.022-175.966C201.558-128.484,121.927-208.119,24.265-208.119"/>
</g>
</svg>
