<?xml version="1.0" encoding="UTF-8"?>
<svg width="33px" height="30px" viewBox="0 0 33 30" version="1.1" xmlns="http://www.w3.org/2000/svg" xmlns:xlink="http://www.w3.org/1999/xlink">
    <!-- Generator: Sketch 50.2 (55047) - http://www.bohemiancoding.com/sketch -->
    <title>icon_male_hair</title>
    <desc>Created with Sketch.</desc>
    <defs></defs>
    <g id="Page-8" stroke="none" stroke-width="1" fill="none" fill-rule="evenodd">
        <path d="M18.5476294,0.0126766019 C18.2551275,0.0411441006 17.9740185,0.0753742509 17.7043025,0.115712812 C17.5848002,0.127468621 17.465298,0.144065058 17.3456719,0.165386868 C17.3150842,0.170112243 17.2820199,0.174837617 17.2464788,0.179562991 C17.0149044,0.200884802 16.7274798,0.202152586 16.3839572,0.183135835 L16.3344226,0.183135835 C16.1411137,0.171264773 15.9312108,0.152363276 15.7048375,0.126316091 C15.1070785,0.0364187263 14.2954537,0.0411441006 13.2703348,0.140492214 C12.2424914,0.242375893 11.0709976,0.553674331 9.75585341,1.07450278 C8.60850776,1.55510792 7.65075586,2.02038441 6.88247389,2.47021699 C6.11159136,2.91301914 5.46541223,3.3545535 4.94393651,3.79493533 C4.41738349,4.23289685 3.94791912,4.67800406 3.53591491,5.13025696 C3.02719435,5.70317978 2.59723384,6.32347159 2.24615722,6.9911324 C1.90015789,7.66121353 1.53137264,8.37854839 1.13955379,9.14336751 C0.903025973,9.59077978 0.732503041,10.0596291 0.628232664,10.549685 C0.526562855,11.0397409 0.446316769,11.5535389 0.38774208,12.0909638 C0.0876861142,13.0428386 -0.0382556593,14.0027811 0.010040596,14.9712523 C0.0175946257,15.0445532 0.0304736271,15.1451691 0.048182254,15.2731 C0.208426752,16.2201341 0.288672838,16.9386215 0.288672838,17.4287927 C0.288672838,17.9235739 0.253007911,18.277516 0.181678057,18.4906189 C0.120626637,18.7084471 0.0673769196,18.8730284 0.0214335588,18.9842476 C-0.0167080993,19.095582 0.00112436423,19.2399941 0.0749309493,19.417599 C0.158892132,19.3725351 0.230098149,19.3181356 0.288672838,19.2541702 C0.349724258,19.19032 0.424645372,19.1381104 0.513683853,19.0978871 C0.539194183,19.2991189 0.518761152,19.5537128 0.452632433,19.8614384 C0.39170485,20.1692793 0.348362056,20.4805777 0.322975563,20.795449 C0.299941964,21.1057101 0.363593952,21.3696396 0.513683853,21.5874678 C0.572258543,21.566146 0.605322902,21.5282278 0.613000768,21.4738283 C0.623155365,21.4170086 0.662535389,21.3849682 0.731264675,21.3779378 C1.05175367,21.7354527 1.30227502,22.0444461 1.48295255,22.3048027 C1.66350624,22.5652745 1.82139784,22.8920169 1.95613201,23.2850297 C2.01210613,23.455489 2.07823485,23.6413921 2.15451817,23.8426239 C2.22572419,24.0414354 2.29185291,24.226186 2.35302816,24.3966452 C2.69902749,25.4122549 2.94447153,26.2954389 3.08948414,27.0459666 C3.23189617,27.7964944 3.34260605,28.3943119 3.42148993,28.8394191 C3.50024998,29.2773806 3.61603716,29.5438456 3.76860379,29.6384683 C3.94420402,29.7237556 4.13255942,29.7793075 4.3334223,29.80547 C4.40202775,29.8219512 4.47459597,29.8362425 4.55100313,29.8479983 C4.54592583,29.6988609 4.50134467,29.3661254 4.41738349,28.8500223 C4.3384996,28.3339193 4.24574602,27.7585761 4.13875124,27.1241082 C4.03200414,26.4872199 3.93912672,25.9107243 3.86024284,25.3946212 C3.78148279,24.8831283 3.7432173,24.550508 3.74581786,24.3966452 C3.81702388,23.3690492 3.92649539,22.3438735 4.07398473,21.3211181 C4.20116487,20.4616762 4.49998247,19.6341594 4.9706852,18.838683 C5.43878737,18.0360609 6.02899237,17.3270243 6.74130022,16.7113426 C7.49930376,16.0721493 8.20281921,15.4790572 8.85147507,14.9320663 C9.49505363,14.3993668 10.1398706,13.7756173 10.7860497,13.0604723 C10.5368905,13.354137 10.1807366,13.8015493 9.71758792,14.4029396 C9.22149869,15.0469735 8.69246894,15.7359562 8.13025099,16.4698875 C7.57311034,17.2085441 7.06438979,17.8608763 6.60396549,18.4267687 C6.15109522,18.9902408 5.83679805,19.34061 5.66132165,19.4778763 C5.70466444,19.4519444 5.75543743,19.4199041 5.81401212,19.3821011 C5.79878022,19.3938569 5.78466286,19.4044602 5.77203153,19.4140262 C6.700558,18.8883571 7.74103271,18.4385245 8.89345566,18.0644132 C10.043278,17.6832714 11.1358879,17.2819603 12.1712854,16.8605952 C13.567914,16.2709607 14.9073301,15.6198964 16.18941,14.9072869 L16.18941,14.9143173 C16.2504614,14.8812397 16.3102744,14.8468943 16.3687253,14.8113963 L16.8954021,14.5130062 C17.195582,14.3402419 17.6381738,14.0963665 18.2233015,13.7814953 C18.8109059,13.4665087 19.3731239,13.1421867 19.9099553,12.8082987 C20.4440624,12.4721056 20.7825077,12.1904272 20.9249197,11.9631482 C20.4696966,12.7965428 19.833672,13.5778431 19.01697,14.3070491 C18.197915,15.0363703 17.2998523,15.6802889 16.3230296,16.2390356 C16.2798106,16.2603575 16.2352295,16.2864046 16.18941,16.3171772 C15.8231014,16.5373105 15.5266367,16.7326644 15.3002635,16.9031236 C15.0485038,17.0949047 14.9199615,17.1955206 14.9148842,17.2049713 C15.3626771,17.0652846 15.7875604,16.9268657 16.18941,16.7894841 C16.2682938,16.7634369 16.3459394,16.7373898 16.4222227,16.7113426 L17.0747175,16.4804907 C17.960025,16.1608941 18.7320221,15.8495956 19.3910802,15.5464802 L19.6160912,15.4470168 C19.8195547,15.3523941 20.0105106,15.2576561 20.1884637,15.1629181 C20.2190514,15.1511623 20.2495152,15.1369862 20.2801028,15.1203897 L20.4327933,15.0422482 C21.1400238,14.6800079 21.7059569,14.352113 22.1308401,14.0584483 L22.2186402,13.9944829 C22.2898462,13.9472291 22.3559749,13.8974398 22.4170263,13.8454607 C22.4525674,13.8192982 22.4908329,13.7920985 22.5314513,13.7637463 L22.8176376,13.5328945 C23.0770752,13.3197916 23.2539138,13.1516374 23.3481534,13.0285472 C23.3607847,13.0711908 23.2983711,13.2180232 23.1610363,13.468929 C23.0186243,13.7152248 22.8799274,13.9578324 22.7451932,14.1969824 C22.6077346,14.4361325 22.5480454,14.5580702 22.565754,14.5627956 C22.9194312,14.3757399 23.2755852,14.1365898 23.6342158,13.8454607 C23.995447,13.5565213 24.3631178,13.3328152 24.7369803,13.1741118 C25.1083661,13.0155236 25.4912687,13.0415708 25.8856882,13.2523686 C26.2824605,13.4559054 26.6959507,13.9625578 27.1259112,14.7723256 C27.227581,15.054004 27.3407676,15.4103663 27.4654711,15.8412974 C27.5875739,16.2722285 27.6244772,16.7184883 27.5760571,17.1801919 L27.5760571,17.1979409 L27.5188446,17.773284 C27.5136435,17.8348291 27.5111667,17.8975268 27.5111667,17.9614922 C27.5111667,18.030183 27.5150057,18.0964535 27.5226835,18.1603037 L27.7019989,18.7286164 C27.8139471,18.915672 27.8940694,19.113331 27.9423656,19.3217085 C28.0263268,19.6768031 28.1076874,20.0106911 28.1865713,20.3231421 C28.2628546,20.633288 28.3278688,20.9659082 28.3812424,21.3211181 C28.526255,22.3438735 28.6318875,23.3690492 28.6980163,24.3966452 C28.7030936,24.5433623 28.6699054,24.872525 28.5986993,25.3839027 C28.5248928,25.890555 28.4384548,26.4600202 28.3392618,27.0921831 C28.336785,27.0992135 28.3354228,27.1098168 28.3354228,27.1241082 L28.1026101,28.6157129 C28.0873782,28.6795631 28.0758614,28.7435285 28.0683074,28.807494 C27.9920241,29.3141463 27.9500435,29.6397361 27.9423656,29.7840329 L27.9500435,29.7840329 C28.0161722,29.7840329 28.0823009,29.7828804 28.1484296,29.7805753 C28.273133,29.7828804 28.3964743,29.778155 28.5187009,29.7663992 C28.6380794,29.7498028 28.7208022,29.6881424 28.7667455,29.5816486 C28.9040803,29.0655455 28.9942333,28.6085672 29.0375761,28.210829 C29.0731172,27.8153959 29.1176983,27.4910738 29.1710719,27.2377477 C29.3466721,26.4493017 29.5412193,25.6798725 29.7549612,24.9293447 C29.9661026,24.1835424 30.2598429,23.4448857 30.6364298,22.7132594 C30.7000818,22.6043453 30.8157451,22.4363064 30.9836675,22.2089122 C31.151466,21.9840535 31.3283046,21.7662253 31.5140595,21.5554275 C31.5929433,21.4844316 31.7086067,21.4181611 31.8612971,21.356616 C32.0139876,21.2973759 32.1170196,21.2808948 32.1703932,21.3069419 C32.2874187,20.9517321 32.292496,20.5953697 32.1857489,20.2378548 C32.078878,19.8756145 32.0012324,19.5406892 31.9529362,19.2328484 L31.9529362,19.1263546 C32.0495287,19.1216292 32.1297748,19.1571271 32.1933029,19.2328484 C32.2595555,19.3134103 32.3358388,19.3749554 32.4222767,19.417599 C32.4019675,18.9582004 32.4198,18.4811681 32.4757741,17.9863869 C32.5391784,17.9768209 32.5748434,17.9720955 32.5825212,17.9720955 C32.5875985,17.965065 32.5926758,17.9437432 32.5977531,17.90813 L32.6626435,17.6276042 C32.6626435,17.6157331 32.665244,17.6051298 32.6703213,17.5956791 C32.7238187,17.3707052 32.7770684,17.1445787 32.8305658,16.9172997 C32.8789859,16.6877157 32.9068492,16.5574798 32.914527,16.5267072 C32.9552692,15.9134458 32.9820179,15.3310723 32.9946493,14.7794713 C33.0124817,14.2253347 32.985733,13.6346629 32.914527,13.0072254 C32.8891405,12.7468688 32.8851778,12.4780987 32.9031341,12.2010304 L32.9031341,12.1833967 L32.9031341,12.1691053 L32.8763854,11.3060906 C32.8713081,11.2588369 32.8662308,11.2090476 32.8610296,11.1569532 C32.8584291,11.1120045 32.8522372,11.063483 32.8420826,11.0113886 L32.5443796,9.67249418 L32.5443796,9.6618909 C32.5316244,9.62639296 32.5202314,9.58962725 32.5100768,9.551709 C32.5049995,9.53050244 32.49856,9.50906538 32.491006,9.48774357 C32.491006,9.48301819 32.4884054,9.4795606 32.4833281,9.47714029 C32.4833281,9.47241491 32.4808514,9.46538448 32.4757741,9.45581848 L32.4757741,9.4452152 C32.4731735,9.44048982 32.4718113,9.43334414 32.4718113,9.42389339 C32.466734,9.41916801 32.4642573,9.41559517 32.4642573,9.41317486 C32.45918,9.40844948 32.4565795,9.40372411 32.4565795,9.39899873 C32.4565795,9.38954799 32.4541027,9.38367008 32.4490254,9.38124977 C32.4490254,9.37652439 32.4476632,9.37179902 32.4451865,9.36707364 C32.4401092,9.3576229 32.4375086,9.34690436 32.4375086,9.33514855 L31.559879,7.76540227 C31.5394459,7.73705002 31.5154217,7.70742999 31.4873108,7.67665743 C31.4619243,7.64346456 31.4351756,7.60911916 31.4073123,7.57362122 L30.2395337,6.42293496 C29.8555165,6.12466011 29.6404124,5.98612597 29.5947167,6.00744778 C29.643013,5.95535341 29.7231352,5.9494755 29.8350835,5.98969881 C29.9495085,6.02277643 30.0717351,6.02876959 30.201392,6.00744778 C29.952109,5.68312575 29.6353351,5.27824185 29.251318,4.79291133 C28.8645764,4.3051605 28.3684872,3.88252764 27.7630503,3.52501273 C27.1652913,3.17464352 26.4173185,3.03368906 25.5193796,3.10237987 C25.4302173,3.11183062 25.3462561,3.12842705 25.2674961,3.15205392 C25.1503467,3.19469755 25.0219282,3.23376832 24.8819929,3.26926626 C24.8184648,3.25981551 24.6416262,3.05501087 24.351601,2.65485235 C24.059099,2.25711414 23.6049904,1.8108544 22.9893989,1.31607313 C22.3736835,0.818871557 21.5507897,0.422285876 20.5204695,0.126316091 C19.7547881,0.0245476641 19.159382,-0.0157908969 18.7346226,0.00553091391 L18.7193907,0.00553091391 L18.692642,0.00553091391 C18.6392685,0.0102562882 18.5909722,0.0126766019 18.5476294,0.0126766019" id="icon_male_hair" fill="#FFFFFF"></path>
    </g>
</svg>