<?xml version="1.0" encoding="UTF-8"?>
<svg width="68px" height="56px" viewBox="0 0 68 56" version="1.1" xmlns="http://www.w3.org/2000/svg" xmlns:xlink="http://www.w3.org/1999/xlink">
    <!-- Generator: Sketch 50.2 (55047) - http://www.bohemiancoding.com/sketch -->
    <title>icon_重新組合</title>
    <desc>Created with Sketch.</desc>
    <defs></defs>
    <g id="Page-8" stroke="none" stroke-width="1" fill="none" fill-rule="evenodd">
        <path d="M8.88343559,25.9195204 C8.76389898,25.9195204 8.63062254,25.9270773 8.51245992,25.9428782 C8.4884152,25.9435652 8.4629965,25.9428782 8.43826479,25.9428782 C8.37987047,25.957992 8.32285013,25.9737928 8.26514281,25.9909676 C8.23216719,25.9992115 8.19919158,26.0067684 8.16690295,26.0156993 C8.02263464,26.0603538 7.88180128,26.1160001 7.74646386,26.1833254 C7.72241914,26.1915693 7.69700044,26.1998132 7.67226873,26.2073701 C7.62211831,26.2375977 7.57265489,26.2698863 7.52387846,26.3035489 C7.49914675,26.3193498 7.47510203,26.3351506 7.44968333,26.3509514 C7.39953291,26.3894229 7.3493825,26.4292685 7.30129306,26.471175 C7.27724834,26.4862888 7.25182964,26.5020896 7.22709792,26.5185774 C7.17694751,26.557049 7.1267971,26.5968945 7.07939465,26.638801 C7.07115074,26.6477319 7.06359383,26.6539149 7.05466294,26.6621588 C7.00245155,26.7164311 6.95298812,26.7720775 6.90627267,26.8304718 L0.903336744,32.6863914 C-0.22195612,33.6241355 -0.314700037,35.5037456 0.730901757,36.5259896 C1.77306859,37.5502947 3.73511769,37.4939613 4.70789833,36.406453 L6.28866688,34.869652 C9.50516333,46.8308693 20.7209944,55.6532203 34.0060453,55.6532203 C45.9954294,55.6532203 56.2817603,48.4734671 60.5369886,38.2778192 C61.1470375,36.9526116 60.5349276,35.3979488 59.1705616,34.8057617 C57.8061955,34.2128876 56.2055042,34.8078227 55.5961423,36.1330302 C55.5693496,36.1914245 55.5446179,36.2498188 55.5226342,36.3102741 C52.0759954,44.5679177 43.7743843,50.3977317 34.0060453,50.3977317 C23.8584868,50.3977317 15.274522,44.0966412 12.0937491,35.3258146 L13.2059891,36.406453 C13.7638266,36.9629165 14.584782,37.2335914 15.3796318,37.17451 C15.6448107,37.1545873 15.8976237,37.1030629 16.1456278,37.006197 C16.2685994,36.9574206 16.4018758,36.8804775 16.5159165,36.8138393 C17.0847459,36.4813351 17.497628,35.9406725 17.7016647,35.3258146 C17.7428842,35.2035301 17.7792947,35.0936113 17.8005915,34.9658308 C17.8218882,34.8387373 17.8493679,34.7116438 17.8493679,34.5818023 C17.8576118,34.4938673 17.8576118,34.4066194 17.8493679,34.3186844 C17.7861647,33.7038266 17.4921321,33.1143874 17.0345954,32.6863914 L11.2535579,27.0942767 C11.1999725,27.0193946 11.1422652,26.9472604 11.0811229,26.8785612 C10.5528261,26.2444676 9.71881784,25.8920408 8.88206161,25.9181464 L8.88343559,25.9195204 Z M34.0067323,0 C22.0173483,0 11.7062856,7.18044018 7.45105731,17.3754012 C6.83963445,18.7006087 7.45105731,20.2559585 8.81473639,20.8488326 C10.1791025,21.4423937 11.7797938,20.8488326 12.3905296,19.5236251 C12.4180093,19.4645438 12.442741,19.4047755 12.4654118,19.3436332 C15.9120505,11.0859896 24.2383933,5.25617564 34.0067323,5.25617564 C44.14536,5.25617564 52.710776,11.5442132 55.8936098,20.303361 L54.8067885,19.2474543 C54.0627762,18.504816 52.8309996,18.2595598 51.8424181,18.6477103 C51.4714424,18.7933526 51.1471822,19.0324258 50.8785684,19.3195885 C50.7899464,19.4150804 50.7061334,19.5243121 50.6319382,19.6314828 C50.4079789,19.9529951 50.2513447,20.305422 50.1874544,20.6880765 C50.1654707,20.814483 50.1634097,20.9422635 50.1620357,21.071418 C50.1551658,21.159353 50.1551658,21.247288 50.1620357,21.3352229 C50.225926,21.9500808 50.5199585,22.5395199 50.9774952,22.9675159 L56.733801,28.5596306 C56.7873864,28.6345127 56.8450937,28.7066469 56.906923,28.7753461 C57.510102,29.4994356 58.530972,29.8717853 59.475586,29.7117162 L59.5497811,29.7117162 C59.6081755,29.6966023 59.6658828,29.6808015 59.7229031,29.6636267 C59.7558787,29.6560698 59.7895413,29.6485129 59.82183,29.640269 C59.9660983,29.5956145 60.1069316,29.5392812 60.2415821,29.471956 C60.2663138,29.4637121 60.2917325,29.4554682 60.3164642,29.4485982 C60.3666146,29.4183706 60.416078,29.386082 60.4648545,29.3517324 C60.4895862,29.3359315 60.5136309,29.3194437 60.5383626,29.3036429 C60.5892,29.2651714 60.6386634,29.2253258 60.6874399,29.1834193 C60.7114846,29.1683055 60.7362163,29.1525047 60.760948,29.1367039 C60.8117854,29.0975453 60.8619358,29.0576998 60.9093383,29.0157933 C60.9175822,29.0075494 60.9251391,28.9999925 60.933383,28.9924356 C60.9855944,28.9388502 61.0357448,28.8818299 61.0817733,28.8241225 L67.1094409,22.9682029 C68.2354207,22.0304588 68.303433,20.1508488 67.2578312,19.1279177 C66.2156643,18.1042997 64.27766,18.16132 63.3055663,19.2481413 L61.699379,20.8089871 C58.4925005,8.83609085 47.3000271,0.00068699198 34.0074193,0.00068699198 L34.0067323,0 Z" id="icon_重新組合" fill="#FFFFFF"></path>
    </g>
</svg>