<?xml version="1.0" encoding="UTF-8"?>
<svg width="54px" height="20px" viewBox="0 0 54 20" version="1.1" xmlns="http://www.w3.org/2000/svg" xmlns:xlink="http://www.w3.org/1999/xlink">
    <!-- Generator: Sketch 50.2 (55047) - http://www.bohemiancoding.com/sketch -->
    <title>icon_female_eye</title>
    <desc>Created with Sketch.</desc>
    <defs></defs>
    <g id="Page-8" stroke="none" stroke-width="1" fill="none" fill-rule="evenodd">
        <g id="icon_female_eye" fill="#FFFFFF">
            <path d="M12.0453824,5.00007136 C13.7017464,5.01082243 14.9971714,6.3186383 14.9999967,7.98297357 C15.0024689,9.63586416 13.6035653,11.0158163 11.9422569,10.999863 C10.2961348,10.983563 9.00247568,9.65805992 9.00000349,7.98470762 C8.99753131,6.27355316 10.3084957,4.98897348 12.0453824,5.00007136" id="Fill-4"></path>
            <path d="M43.7245272,2.30140169 C40.5885571,1.87046821 37.7945881,2.92772062 35.1093395,4.36163276 C30.919286,6.59915805 30.005243,10.8382988 32.8442122,14.6801558 C35.3519802,18.0733498 40.9949984,19.9012893 45.2318521,18.6927941 C50.9468705,17.0631347 53.5583189,9.32044325 50.0198675,4.49333703 C48.9647041,3.05363569 47.6550199,2.12519295 45.7624938,2.29199424 C45.0878516,2.35133352 44.4042094,2.30140169 43.7245272,2.30140169 M10.5421403,2.30140169 C9.79153789,2.30140169 9.03697546,2.34699163 8.29033306,2.29163241 C6.8128883,2.18199946 5.67816464,2.77177408 4.70040149,3.84096671 C2.94755585,5.75646782 2.53535452,8.06635809 2.66927495,10.5437733 C2.89499568,14.7221274 5.53596418,18.1214725 9.40345664,18.8006179 C13.55427,19.5293333 17.3850424,18.6074034 20.5177724,15.6230715 C24.2149844,12.1010677 23.5014621,6.78043234 19.0406877,4.37972401 C16.3950392,2.95558114 13.6424703,1.88711216 10.5421403,2.30140169 M1.65083167,7.29567102 C2.58827469,5.634171 3.47135753,4.06891641 4.35696039,2.49931992 C4.22843997,2.48195232 3.90227892,2.43744786 3.39575729,2.3683393 C4.19711987,1.22750533 5.28324337,0.492638925 6.46476718,0.40688642 C10.127419,0.140945106 13.8055508,0.00887901115 17.4779227,0.00381346231 C18.7584468,0.00200433772 20.0137708,0.573325882 20.9054937,1.94391867 C19.6991298,2.08394491 18.4924059,2.2246948 17.1305215,2.38317412 C19.6314496,3.59420212 22.1723378,4.65326365 23.3157015,7.47766895 C25.7644293,6.72688225 28.1919172,6.68201596 30.7356854,7.48960917 C31.8934491,4.71513571 34.4264173,3.59492577 37.0871858,2.38353594 C35.6716613,2.2377205 34.4066172,2.10746353 32.8416921,1.94645144 C33.7953352,0.644967216 34.9408589,0.168081975 36.0403025,0.118150136 C39.1373924,-0.0218761068 42.2506825,-0.0540785244 45.3448924,0.113084587 C46.7172168,0.187258695 48.0729812,0.800190105 49.4046255,1.26115505 C49.8369869,1.41095057 50.168908,1.85527156 50.7384298,2.32202571 C50.176828,2.41139646 49.862547,2.4613283 49.7387066,2.48122867 C50.6412295,4.04431231 51.5563524,5.62874362 52.5197155,7.29639467 C53.4798386,7.19870194 53.9856403,7.47875443 53.9996803,8.32542473 C54.0184004,9.4546803 53.2116378,9.52342703 52.4613954,9.49846111 C52.2457547,10.8100764 52.1521544,12.1075806 51.8090732,13.3348907 C50.7099897,17.2664803 47.0916181,19.8951383 43.0214449,19.9801671 C38.38823,20.0767744 34.5588977,18.5306965 31.7274886,14.7514353 C31.6421683,14.6381841 31.547848,14.4272401 31.4664877,14.431582 C29.4688413,14.5365113 30.2846039,12.7414978 29.6189618,11.9147279 C31.252647,11.0221058 29.8302824,9.58964099 30.5765649,8.54179603 C28.3481577,7.63795739 26.265551,7.56233598 24.1717842,8.34641058 C23.9575835,8.42673571 23.7426628,8.78602785 23.7160227,9.03604887 C23.6508625,9.63921101 23.6969427,10.2546752 23.6987427,10.8650738 C23.6994627,11.0087183 23.6620226,11.1686449 23.7109827,11.2934745 C24.2992246,12.7787658 24.3024646,12.7773185 23.5655423,14.0748227 C23.0608206,14.4666791 22.4754588,14.7879796 22.0632574,15.2612466 C18.4999659,19.3549337 14.0078715,20.7432559 8.81737475,19.6313679 C4.77672174,18.7658827 2.01659285,15.0336587 1.80347216,10.6244603 C1.7861921,10.2673391 1.80131215,9.90804692 1.80131215,9.49773746 C0.936589367,9.48615907 0.019306412,9.52342703 0.000226350541,8.34930518 C-0.0138136947,7.50408217 0.626268367,7.18965632 1.65083167,7.29567102" id="Fill-1"></path>
            <path d="M41.9556213,10.9999381 C40.3244008,10.9891862 38.9677837,9.57478435 39.0005825,7.92002439 C39.0337303,6.25173779 40.3111417,4.99792156 41.9748121,5.00000259 C43.6712814,5.00208361 45.0052185,6.32006471 44.9999847,7.98835131 C44.9944019,9.61883266 43.5875396,11.0106901 41.9556213,10.9999381" id="Fill-6"></path>
        </g>
    </g>
</svg>