<?xml version="1.0" encoding="UTF-8"?>
<svg width="26px" height="26px" viewBox="0 0 26 26" version="1.1" xmlns="http://www.w3.org/2000/svg" xmlns:xlink="http://www.w3.org/1999/xlink">
    <!-- Generator: Sketch 50.2 (55047) - http://www.bohemiancoding.com/sketch -->
    <title>icon_male_mouth</title>
    <desc>Created with Sketch.</desc>
    <defs></defs>
    <g id="Page-8" stroke="none" stroke-width="1" fill="none" fill-rule="evenodd">
        <path d="M12.99557,13.0750239 C7.20200943,13.0750239 6.63668642,9.06717525 6.63668642,9.06717525 L19.3633136,9.06717525 C19.3633136,9.06717525 18.7891306,13.0750239 12.99557,13.0750239 M14.5097668,0 C14.5897924,0.540457948 14.6355212,1.00975036 14.6355212,1.35557485 C14.6355212,2.7108639 13.8818525,4.38396852 12.1390113,3.6694551 C11.1372635,3.25875279 10.9700674,1.75255851 11.1464093,0.0437282211 C4.84497257,0.94372932 0,6.35974102 0,12.9101142 C0,20.089545 5.82042629,25.9099713 13.0001429,25.9099713 C20.1798595,25.9099713 26,20.089545 26,12.9101142 C26,6.24113179 20.9778281,0.748524255 14.5097668,0" id="icon_male_mouth" fill="#FFFFFF"></path>
    </g>
</svg>