<?xml version="1.0" encoding="UTF-8"?>
<svg width="50px" height="19px" viewBox="0 0 50 19" version="1.1" xmlns="http://www.w3.org/2000/svg" xmlns:xlink="http://www.w3.org/1999/xlink">
    <!-- Generator: Sketch 50.2 (55047) - http://www.bohemiancoding.com/sketch -->
    <title>icon_male_eye</title>
    <desc>Created with Sketch.</desc>
    <defs></defs>
    <g id="Page-8" stroke="none" stroke-width="1" fill="none" fill-rule="evenodd">
        <path d="M41.9622996,0.0512030995 C40.4742104,0.00856633993 39.3833279,-0.00756051732 38.6898731,0.00326435947 C38.2473786,0.00326435947 37.3937597,0.0432501288 36.1296792,0.123221668 C34.8706798,0.208495187 33.6010764,0.36865918 32.320869,0.603271816 C31.0355806,0.82728049 30.1448479,1.14473657 29.6486709,1.55541914 C29.0298856,2.16360048 28.6459338,2.54755224 28.4965947,2.70749531 C28.3737655,2.83562651 28.3125718,2.90764508 28.3125718,2.92355102 L25.0081125,2.84357948 L21.7116061,2.92355102 C21.6957002,2.90764508 21.6261117,2.83562651 21.5035034,2.70749531 C21.3541643,2.54755224 20.9702125,2.16360048 20.3514272,1.55541914 C19.8554711,1.14473657 18.9698195,0.82728049 17.6949141,0.603271816 C16.4041027,0.36865918 15.1291974,0.208495187 13.8704188,0.123221668 C12.6061174,0.0432501288 11.7527195,0.00326435947 11.3100041,0.00326435947 C10.6273741,-0.00756051732 9.53649163,0.00856633993 8.03779848,0.0512030995 C6.55479036,0.0885378786 5.46943078,0.203193206 4.78105698,0.395169082 C4.19430448,0.597969835 3.56491521,0.976619607 2.89288919,1.53133931 C2.23146712,2.08605902 1.67409643,2.77156091 1.22055618,3.58762407 C0.804571632,4.43572003 0.540577188,5.19854247 0.42857285,5.87609139 C0.321870493,6.55341939 0.276582744,6.91351223 0.292488685,6.95614899 L0.0205412703,6.95614899 C-0.0223164051,7.3562276 0.00198433866,7.91094731 0.0925598383,8.62030811 C0.177833357,9.32966891 0.228423088,9.72466646 0.244549945,9.80441708 L0.572609986,9.82054394 C0.865986239,11.4687971 1.57556796,13.2796444 2.7006924,15.2533066 C3.74098515,16.8856538 5.11729091,17.8563581 6.82960968,18.1658612 C8.54700952,18.4751434 10.134069,18.4751434 11.5901254,18.1658612 C12.9876391,17.8616601 14.2651955,17.3148933 15.4225736,16.525561 C16.5854747,15.7307057 17.4949852,15.0266469 18.1511053,14.4131636 C18.8125274,13.7676475 19.4313127,12.999744 20.0072403,12.1090113 C20.5886908,11.2286616 20.900624,10.7459604 20.9432608,10.6606869 L20.9675615,11.1246102 C20.8767651,11.2368355 20.727426,11.5461177 20.5195442,12.0528986 C20.4981153,12.2342705 20.5913418,12.3303689 20.7994445,12.3409729 C21.0075473,12.3462749 21.1272837,12.3409729 21.1595374,12.324846 C21.2127781,12.2610014 21.4714706,11.8609228 21.9356148,11.1246102 C22.1596235,10.7673893 22.3836321,10.3352779 22.6076408,9.82849691 C22.8316495,9.32723884 22.9730356,8.93776419 23.0317992,8.66029388 C23.1170728,8.12170103 23.079738,7.84157973 22.9197949,7.82015089 C22.7116922,7.92155127 22.5890839,8.02560264 22.5517491,8.13230499 L22.1675764,7.84423072 L22.1675764,5.83610562 L27.8323007,5.83610562 L27.8323007,7.84423072 L27.448349,8.13230499 C27.4110142,8.02560264 27.2937079,7.92155127 27.0962091,7.82015089 C26.9256621,7.85240461 26.8856763,8.13230499 26.9762518,8.66029388 C27.0294925,8.93776419 27.1682277,9.32723884 27.3924573,9.82849691 C27.6164659,10.3352779 27.8402537,10.7673893 28.0644833,11.1246102 C28.5284066,11.8609228 28.787099,12.2610014 28.8405607,12.324846 C28.8725935,12.3409729 28.9925508,12.3462749 29.2004326,12.3409729 C29.4087562,12.3303689 29.5019827,12.2342705 29.4805539,12.0528986 C29.2779741,11.5461177 29.1286349,11.2368355 29.0327575,11.1246102 L29.0566164,10.6606869 C29.0992531,10.7459604 29.4114072,11.2286616 29.9926368,12.1090113 C30.5796103,12.999744 31.2034766,13.7676475 31.8648987,14.4131636 C32.5104148,15.0266469 33.4146234,15.7307057 34.5773035,16.525561 C35.7349026,17.3148933 37.012459,17.8616601 38.4099727,18.1658612 C39.86625,18.4751434 41.4528676,18.4751434 43.1707093,18.1658612 C44.8881091,17.8563581 46.266845,16.8856538 47.3071377,15.2533066 C48.427402,13.2690404 49.1341118,11.4581932 49.4274881,9.82054394 L49.7553272,9.80441708 C49.771675,9.72466646 49.8220438,9.32966891 49.9075382,8.62030811 C49.9981137,7.91094731 50.0221935,7.3562276 49.9795568,6.95614899 L49.7076094,6.95614899 C49.7235153,6.91351223 49.6782276,6.55341939 49.5713043,5.87609139 C49.4699039,5.19854247 49.2112115,4.43572003 48.7954478,3.58762407 C48.3419076,2.77156091 47.7792349,2.08605902 47.106988,1.53133931 C46.4349619,0.976619607 45.8108746,0.597969835 45.2347261,0.395169082 C44.5359693,0.203193206 43.4453077,0.0885378786 41.9622996,0.0512030995" id="icon_male_eye" fill="#FFFFFF"></path>
    </g>
</svg>