<?xml version="1.0" encoding="utf-8"?>
<!-- Generator: Adobe Illustrator 16.0.0, SVG Export Plug-In . SVG Version: 6.00 Build 0)  -->
<!DOCTYPE svg PUBLIC "-//W3C//DTD SVG 1.1//EN" "http://www.w3.org/Graphics/SVG/1.1/DTD/svg11.dtd">
<svg version="1.1" id="Layer_1" xmlns="http://www.w3.org/2000/svg" xmlns:xlink="http://www.w3.org/1999/xlink" x="0px" y="0px"
	 width="500px" height="500px" viewBox="230 30 500 500" enable-background="new 230 30 500 500" xml:space="preserve">
<g id="Mask">
	<path id="path-1_1_" fill="#FFFFFF" d="M666.104,184.191c0,4.258,0,8.516,0,12.774c0,127.035-96.519,273.231-273.232,273.231
		c-53.937,0-104.325-15.612-146.907-43.29c7.807,0.709,14.903,1.418,23.42,1.418c44.71,0,85.873-14.903,119.229-41.161
		c-41.872-0.71-77.356-28.388-89.421-66.712c5.678,0.711,12.065,1.42,18.452,1.42c8.516,0,17.032-1.42,25.549-3.549
		c-45.42-8.517-78.066-46.84-78.066-93.679v-1.419c12.775,7.097,27.678,11.355,43.292,12.064
		c-25.549-17.032-42.582-46.839-42.582-80.195c0-17.742,4.968-34.065,12.774-48.259c47.55,58.195,118.52,96.519,198.005,100.776
		c-1.419-7.096-2.129-14.903-2.129-22c0-53.227,42.581-95.809,95.809-95.809c27.679,0,52.517,11.355,70.26,30.517
		c22-4.258,42.581-12.065,61.033-23.42c-7.097,22-22,41.163-41.872,53.227c19.161-2.129,38.323-7.097,55.356-14.903
		C701.588,153.675,685.265,170.707,666.104,184.191z"/>
</g>
</svg>
