<?xml version="1.0" encoding="UTF-8"?>
<svg width="15px" height="23px" viewBox="0 0 15 23" version="1.1" xmlns="http://www.w3.org/2000/svg" xmlns:xlink="http://www.w3.org/1999/xlink">
    <!-- Generator: Sketch 50.2 (55047) - http://www.bohemiancoding.com/sketch -->
    <title>voice</title>
    <desc>Created with Sketch.</desc>
    <defs></defs>
    <g id="Symbols" stroke="none" stroke-width="1" fill="none" fill-rule="evenodd">
        <g id="header" transform="translate(-275.000000, -24.000000)">
            <g id="Group" transform="translate(188.000000, 20.000000)">
                <g id="Btn_voice" transform="translate(87.000000, 4.000000)">
                    <g id="icon_unvoice">
                        <g id="unvoice" stroke-width="1" transform="translate(3.243243, 3.607843)"></g>
                        <path d="M8.11459459,8.88245978 L10.1059459,11.0976755 L10.1059459,3.09187154 C10.7918919,3.4977539 11.5374324,4.04434213 11.9237838,4.668499 C12.5971622,5.75581272 12.9912162,9.44212645 12.9912162,9.44212645 C13.0321622,9.77089115 13.3086486,10.0428323 13.6106757,10.0428323 L14.4255405,10.0428323 C14.7312162,10.0428323 14.9428378,9.77359703 14.9055405,9.44167547 C14.9055405,9.44167547 14.4689189,4.93187154 13.4610811,3.3435186 C12.4982432,1.82642056 8.61202703,0.0468519363 8.61202703,0.0468519363 C8.33432432,-0.0879912009 8.10810811,0.0784205638 8.10810811,0.415302917 L8.10810811,1.51659703 C8.10810811,1.54996958 8.11013514,1.58334213 8.11459459,1.61716566 L8.11459459,8.88245978 Z" id="Fill-4" fill="#FFFFFF"></path>
                        <path d="M8.02864865,11.7254902 L8.02864865,14.3308039 C7.18824324,13.7161176 6.13945946,13.3512745 5.00189189,13.3512745 C2.23945946,13.3512745 0,15.502451 0,18.1564706 C0,20.8109412 2.23945946,22.9625686 5.00189189,22.9625686 C7.69297297,22.9625686 9.88743243,20.9200784 9.99891892,18.3612157 C10.0127027,18.307098 10.02,18.2502745 10.02,18.1911961 L10.02,13.9407059 L8.02864865,11.7254902 Z" id="Fill-6" fill="#FFFFFF"></path>
                        <path d="M13.4392771,15.5362208 L3.80566248,4.93035371 C3.56809491,4.66653018 3.56809491,4.23809881 3.80566248,3.9738243 C4.04323005,3.70954979 4.42795978,3.70954979 4.66552734,3.9738243 L14.2995474,14.5792404 C14.5367095,14.8435149 14.5367095,15.2719463 14.2995474,15.5362208 C14.1807636,15.668358 14.0250879,15.7342012 13.8694122,15.7342012 C13.7137365,15.7342012 13.5580609,15.668358 13.4392771,15.5362208 Z" id="Fill-8" fill="#FFFFFF"></path>
                    </g>
                </g>
            </g>
        </g>
    </g>
</svg>