<?xml version="1.0" encoding="UTF-8"?>
<svg width="23px" height="23px" viewBox="0 0 23 23" version="1.1" xmlns="http://www.w3.org/2000/svg" xmlns:xlink="http://www.w3.org/1999/xlink">
    <!-- Generator: Sketch 50.2 (55047) - http://www.bohemiancoding.com/sketch -->
    <title>BTN_bell</title>
    <desc>Created with Sketch.</desc>
    <defs></defs>
    <g id="Symbols" stroke="none" stroke-width="1" fill="none" fill-rule="evenodd">
        <g id="header" transform="translate(-232.000000, -24.000000)" fill="#FFFFFF">
            <g id="Group" transform="translate(188.000000, 20.000000)">
                <g id="icon_list" transform="translate(44.000000, 4.000000)">
                    <path d="M18.3179667,13.2289018 L10.6513,13.2289018 C10.2058263,13.2289018 9.84428246,12.8613125 9.84428246,12.4074732 C9.84428246,11.9540446 10.2058263,11.5860446 10.6513,11.5860446 L18.3179667,11.5860446 C18.7634404,11.5860446 19.1249842,11.9540446 19.1249842,12.4074732 C19.1249842,12.8613125 18.7634404,13.2289018 18.3179667,13.2289018 Z M18.3179667,19.1497589 L10.6513,19.1497589 C10.2058263,19.1497589 9.84428246,18.7817589 9.84428246,18.3283304 C9.84428246,17.8744911 10.2058263,17.5069018 10.6513,17.5069018 L18.3179667,17.5069018 C18.7634404,17.5069018 19.1249842,17.8744911 19.1249842,18.3283304 C19.1249842,18.7817589 18.7634404,19.1497589 18.3179667,19.1497589 Z M7.69519474,5.26720536 L5.39035263,7.61320536 C5.3427386,7.66166964 5.28745789,7.68590179 5.22370351,7.68590179 C5.15994912,7.68590179 5.10426491,7.66166964 5.05665088,7.61320536 L3.71377368,6.24634821 C3.66575614,6.19747321 3.64194912,6.14079464 3.64194912,6.0763125 C3.64194912,6.01141964 3.66575614,5.95515179 3.71377368,5.90627679 L4.09508947,5.51815179 C4.14270351,5.4696875 4.19838772,5.44545536 4.26214211,5.44545536 C4.32549298,5.44545536 4.38117719,5.4696875 4.42879123,5.51815179 L5.22370351,6.32684821 L6.97977368,4.53941964 C7.02779123,4.49095536 7.08307193,4.46672321 7.14682632,4.46672321 C7.2105807,4.46672321 7.2658614,4.49095536 7.31387895,4.53941964 L7.69519474,4.92754464 C7.74280877,4.97600893 7.76661579,5.0326875 7.76661579,5.09758036 C7.76661579,5.1620625 7.74280877,5.21874107 7.69519474,5.26720536 Z M7.69519474,11.5987768 L5.39035263,13.9443661 C5.3427386,13.9928304 5.28745789,14.0170625 5.22370351,14.0170625 C5.15994912,14.0170625 5.10426491,13.9928304 5.05665088,13.9443661 L3.71377368,12.5775089 C3.66575614,12.5286339 3.64194912,12.4723661 3.64194912,12.4074732 C3.64194912,12.3429911 3.66575614,12.2863125 3.71377368,12.2374375 L4.09508947,11.8493125 C4.14270351,11.8008482 4.19838772,11.7766161 4.26214211,11.7766161 C4.32549298,11.7766161 4.38117719,11.8008482 4.42879123,11.8493125 L5.22370351,12.6584196 L6.97977368,10.8705804 C7.02779123,10.8221161 7.08307193,10.7978839 7.14682632,10.7978839 C7.2105807,10.7978839 7.2658614,10.8221161 7.31387895,10.8705804 L7.69519474,11.2591161 C7.74280877,11.3075804 7.76661579,11.3638482 7.76661579,11.4287411 C7.76661579,11.4936339 7.74280877,11.5503125 7.69519474,11.5987768 Z M5.30077368,19.9711875 C4.40942281,19.9711875 3.6867386,19.2355982 3.6867386,18.3283304 C3.6867386,17.4210625 4.40942281,16.6854732 5.30077368,16.6854732 C6.19212456,16.6854732 6.91480877,17.4210625 6.91480877,18.3283304 C6.91480877,19.2355982 6.19212456,19.9711875 5.30077368,19.9711875 Z M10.6513,5.25488393 L12.2653351,5.25488393 C12.7108088,5.25488393 13.0723526,5.62247321 13.0723526,6.0763125 C13.0723526,6.52974107 12.7108088,6.89774107 12.2653351,6.89774107 L10.6513,6.89774107 C10.2058263,6.89774107 9.84428246,6.52974107 9.84428246,6.0763125 C9.84428246,5.62247321 10.2058263,5.25488393 10.6513,5.25488393 Z M16.8411246,6.57163393 L22.7452649,6.57163393 L22.7452649,22.2227232 C22.7158088,22.6087946 22.3643526,22.9956875 21.943493,23.0002054 L20.8762123,23.0002054 L16.2943702,23.0002054 L10.3426158,23.0002054 L6.45077368,23.0002054 L0.801650877,23.0002054 C0.380387719,22.9956875 0.0293350877,22.6087946 0.00028245614,22.2227232 L0.00028245614,21.7680625 L0.00028245614,1.23234821 L0.00028245614,0.777276786 C0.0293350877,0.391205357 0.380387719,0.0043125 0.801650877,0.000205357143 L6.45077368,0.000205357143 L16.034107,0.000205357143 L16.034107,1.23234821 L16.034107,5.75020536 C16.0381421,6.15024107 16.4037211,6.56711607 16.8411246,6.57163393 Z M18.0066596,0.61065 L22.0417474,4.71779286 L18.0066596,4.71779286 L18.0066596,0.61065 Z" id="Fill-1"></path>
                </g>
            </g>
        </g>
    </g>
</svg>