<?xml version="1.0" encoding="UTF-8"?>
<svg width="15px" height="23px" viewBox="0 0 15 23" version="1.1" xmlns="http://www.w3.org/2000/svg" xmlns:xlink="http://www.w3.org/1999/xlink">
    <!-- Generator: Sketch 50.2 (55047) - http://www.bohemiancoding.com/sketch -->
    <title>voice</title>
    <desc>Created with Sketch.</desc>
    <defs></defs>
    <g id="Symbols" stroke="none" stroke-width="1" fill="none" fill-rule="evenodd">
        <g id="header" transform="translate(-275.000000, -24.000000)" fill="#FFFFFF">
            <g id="Group" transform="translate(188.000000, 20.000000)">
                <g id="icon_voice" transform="translate(87.000000, 4.000000)">
                    <path d="M8.02864865,14.3025921 L8.02864865,1.61696465 C8.02459459,1.58314112 8.02216216,1.54976857 8.02216216,1.516847 L8.02216216,0.415101902 C8.02216216,0.078219549 8.24837838,-0.0881922157 8.52608108,0.047101902 C8.52608108,0.047101902 12.4122973,1.82621955 13.3751351,3.34331759 C14.382973,4.93212151 14.8195946,9.44147445 14.8195946,9.44147445 C14.8568919,9.77339602 14.6452703,10.0426313 14.3395946,10.0426313 L13.5247297,10.0426313 C13.2227027,10.0426313 12.9458108,9.77069014 12.9052703,9.44192543 C12.9052703,9.44192543 12.5112162,5.75606269 11.8378378,4.66829798 C11.4514865,4.04414112 10.7055405,3.49755288 10.02,3.09212151 L10.02,18.1634352 C10.02,18.2220627 10.0127027,18.2793372 9.99891892,18.3334548 C9.88743243,20.8923176 7.69297297,22.9343568 5.00189189,22.9343568 C2.23945946,22.9343568 0,20.7827294 0,18.1287097 C0,15.4751411 2.23945946,13.3230627 5.00189189,13.3230627 C6.13945946,13.3230627 7.18824324,13.6883568 8.02864865,14.3025921" id="voice"></path>
                </g>
            </g>
        </g>
    </g>
</svg>