<?xml version="1.0" encoding="UTF-8"?>
<svg width="24px" height="23px" viewBox="0 0 24 23" version="1.1" xmlns="http://www.w3.org/2000/svg" xmlns:xlink="http://www.w3.org/1999/xlink">
    <!-- Generator: Sketch 50.2 (55047) - http://www.bohemiancoding.com/sketch -->
    <title>icon_list</title>
    <desc>Created with Sketch.</desc>
    <defs></defs>
    <g id="Symbols" stroke="none" stroke-width="1" fill="none" fill-rule="evenodd">
        <g id="header" transform="translate(-188.000000, -24.000000)" fill="#FFFFFF">
            <g id="Group" transform="translate(188.000000, 20.000000)">
                <g id="BTN_bell" transform="translate(0.000000, 4.000000)">
                    <g id="icon_w_bell">
                        <path d="M11.9765206,1.6939084 C11.5405206,1.6939084 11.1174095,1.71392692 10.7085206,1.75353803 C10.9565206,1.299501 11.4485206,1.02264914 11.9765206,1.04011211 C12.3427429,1.03798248 12.6960762,1.17001951 12.9667429,1.40981581 C13.0774095,1.5082047 13.1689651,1.62576025 13.2356318,1.75609359 C12.8174095,1.7152047 12.3969651,1.69433433 11.9765206,1.6939084 M10.7227429,4.57657507 C10.513854,4.57657507 9.7200762,4.90411211 8.75252065,5.73253803 C7.78496509,6.56138988 7.13074287,7.49161211 6.96052065,8.27872322 C6.9560762,8.31577877 6.9480762,8.3524084 6.93696509,8.38818618 C6.82585398,8.7532047 6.43118731,8.96148248 6.05652065,8.85329729 C5.68140953,8.74511211 5.46718731,8.36135285 5.57874287,7.99633433 C5.88052065,6.52774174 7.11518731,5.30363062 7.8160762,4.70094544 C8.65963176,3.97005655 9.86763176,3.19401951 10.7227429,3.19401951 L10.7227429,3.20168618 C11.0725206,3.22681581 11.3507429,3.4977047 11.3769651,3.83801951 C11.405854,4.21794544 11.1129651,4.54846396 10.7227429,4.57657507 M22.9569651,16.6281491 L22.9569651,16.6140936 C22.6027429,16.3227603 22.225854,16.0586862 21.8294095,15.824001 C21.673854,15.7277417 21.5809651,15.5599269 21.5840762,15.3806121 L21.5840762,15.3150195 C21.6467429,13.4967417 21.5382984,11.6763343 21.2596318,9.87722322 C20.8160762,7.37874174 19.889854,5.40926025 18.5080762,4.04757507 C17.3849651,2.9589084 15.9542984,2.22077877 14.3982984,1.92688988 C14.3182984,1.43324174 14.0689651,0.980482477 13.6911873,0.642297292 C12.7027429,-0.212961968 11.213854,-0.214239745 10.2236318,0.63931581 C9.84585398,0.977500995 9.59696509,1.43026025 9.51696509,1.92433433 C7.9680762,2.21268618 6.54363176,2.94613062 5.42763176,4.03053803 C2.33696509,7.11722322 2.4040762,12.3872047 2.44496509,15.2183343 L2.44496509,15.3750751 C2.44674287,15.5560936 2.35163176,15.7251862 2.19385398,15.8210195 C1.78629842,16.0544269 1.3960762,16.3146677 1.02496509,16.600038 C0.36896509,17.1447973 -0.00614602151,17.9434084 7.62007097e-05,18.7829084 C0.00185397849,19.5184825 0.613853978,20.1147788 1.36985398,20.1160566 L8.76318731,20.1160566 C8.92363176,21.8359454 10.4862984,23.103501 12.253854,22.9476121 C13.7991873,22.8113158 15.0231873,21.6195751 15.1631873,20.1160566 L22.4925206,20.1160566 C23.2760762,20.1224454 23.9169651,19.5112417 23.9267429,18.7488343 C23.925854,17.9404269 23.5734095,17.1703528 22.9569651,16.6281491" id="Fill-1"></path>
                    </g>
                </g>
            </g>
        </g>
    </g>
</svg>